{"glyphs":{"0":{"ha":917,"x_min":79,"x_max":838,"o":"m 458 -15 q 262 49 347 -15 q 128 226 176 113 q 79 486 79 339 q 128 747 79 635 q 262 924 176 860 q 458 988 347 988 q 655 924 569 988 q 789 747 740 860 q 838 486 838 635 q 789 226 838 339 q 655 49 740 113 q 458 -15 569 -15 m 458 75 q 605 126 543 75 q 701 269 667 176 q 736 486 736 361 q 701 703 736 611 q 605 847 667 796 q 458 897 543 897 q 313 847 375 897 q 215 703 250 796 q 181 486 181 611 q 215 269 181 361 q 313 126 250 176 q 458 75 375 75 z "},"1":{"ha":426,"x_min":57,"x_max":313,"o":"m 213 0 l 213 864 l 57 794 l 57 886 l 250 972 l 313 972 l 313 0 l 213 0 z "},"2":{"ha":833,"x_min":90,"x_max":729,"o":"m 103 0 l 103 74 l 492 499 q 563 587 538 549 q 599 658 589 625 q 610 729 610 692 q 552 851 610 803 q 406 899 494 899 q 279 872 338 899 q 149 781 221 846 l 90 850 q 244 953 167 919 q 407 988 322 988 q 563 955 494 988 q 669 865 631 922 q 708 735 708 808 q 696 645 708 686 q 651 558 683 604 q 560 446 619 511 l 228 86 l 729 88 l 729 0 l 103 0 z "},"3":{"ha":833,"x_min":57,"x_max":738,"o":"m 397 -15 q 210 19 297 -15 q 57 122 124 54 l 124 188 q 249 99 185 126 q 396 72 314 72 q 522 97 467 72 q 607 167 576 122 q 638 268 638 211 q 610 365 638 322 q 536 431 583 407 q 428 454 489 454 l 313 454 l 313 540 l 424 540 q 552 589 503 540 q 601 715 601 638 q 574 808 601 767 q 498 874 546 850 q 390 899 450 899 q 256 872 315 899 q 136 781 197 844 l 69 847 q 217 952 135 917 q 392 988 299 988 q 551 953 481 988 q 661 858 621 918 q 701 721 701 797 q 651 584 701 644 q 519 500 601 524 q 678 414 618 478 q 738 265 738 350 q 694 121 738 185 q 573 21 650 57 q 397 -15 496 -15 z "},"4":{"ha":858,"x_min":54,"x_max":813,"o":"m 579 0 l 579 260 l 54 260 l 54 339 l 571 972 l 678 972 l 678 347 l 813 347 l 813 260 l 678 260 l 678 0 l 579 0 m 171 347 l 579 347 l 579 851 l 171 347 z "},"5":{"ha":833,"x_min":69,"x_max":740,"o":"m 400 -15 q 69 117 208 -15 l 132 185 q 259 98 196 125 q 401 71 322 71 q 526 100 472 71 q 610 182 581 129 q 640 303 640 235 q 574 460 640 400 q 401 519 508 519 q 293 506 346 519 q 183 464 240 493 l 114 486 l 136 972 l 689 972 l 689 885 l 222 885 l 207 549 q 314 588 263 576 q 422 600 365 600 q 590 563 518 600 q 701 460 661 526 q 740 307 740 394 q 697 139 740 211 q 578 26 654 67 q 400 -15 501 -15 z "},"6":{"ha":833,"x_min":65,"x_max":775,"o":"m 446 -14 q 248 46 333 -14 q 114 210 163 106 q 65 453 65 315 q 119 734 65 614 q 272 921 174 854 q 501 988 371 988 q 622 971 563 988 q 729 922 682 954 l 679 844 q 589 883 636 869 q 493 897 542 897 q 320 845 393 897 q 208 696 247 793 q 165 463 168 599 q 294 571 219 532 q 450 610 369 610 q 618 571 544 610 q 733 463 692 532 q 775 307 775 394 q 732 142 775 215 q 615 28 689 69 q 446 -14 540 -14 m 436 528 q 290 490 360 528 q 168 385 219 451 q 216 222 179 292 q 312 113 253 151 q 444 74 371 74 q 563 103 511 74 q 645 186 615 133 q 675 304 675 239 q 644 420 675 369 q 560 499 614 471 q 436 528 507 528 z "},"7":{"ha":833,"x_min":71,"x_max":763,"o":"m 171 0 l 654 885 l 71 885 l 71 972 l 763 972 l 763 894 l 285 0 l 171 0 z "},"8":{"ha":833,"x_min":71,"x_max":763,"o":"m 417 -15 q 239 21 317 -15 q 116 120 161 57 q 71 263 71 183 q 100 373 71 322 q 181 460 129 424 q 300 513 233 497 q 162 597 215 536 q 108 735 108 658 q 149 864 108 807 q 259 954 189 921 q 417 988 329 988 q 575 954 506 988 q 685 864 644 921 q 725 735 725 807 q 672 597 725 658 q 533 513 619 536 q 699 420 635 489 q 763 263 763 351 q 718 120 763 183 q 595 21 674 57 q 417 -15 517 -15 m 417 554 q 524 578 476 554 q 600 641 572 601 q 628 731 628 681 q 600 821 628 781 q 524 884 572 861 q 417 907 476 907 q 309 884 357 907 q 233 821 261 861 q 206 731 206 781 q 233 641 206 681 q 309 578 261 601 q 417 554 357 554 m 417 65 q 543 92 488 65 q 631 164 599 118 q 664 267 664 210 q 631 369 664 324 q 543 442 599 415 q 417 468 488 468 q 290 442 346 468 q 202 369 235 415 q 169 267 169 324 q 202 164 169 210 q 290 92 235 118 q 417 65 346 65 z "},"9":{"ha":860,"x_min":71,"x_max":781,"o":"m 400 988 q 598 928 513 988 q 732 763 683 868 q 781 521 781 658 q 726 240 781 360 q 574 53 672 119 q 344 -14 476 -14 q 224 3 285 -14 q 117 51 164 21 l 167 129 q 258 90 210 104 q 353 76 306 76 q 526 128 453 76 q 639 278 599 181 q 681 511 679 376 q 551 403 626 442 q 396 364 476 364 q 228 403 301 364 q 113 511 154 443 q 71 667 71 579 q 114 832 71 760 q 231 946 157 904 q 400 988 306 988 m 410 446 q 556 484 486 446 q 678 589 626 522 q 631 753 668 683 q 535 861 593 822 q 401 900 476 900 q 283 870 335 900 q 201 788 231 840 q 171 669 171 736 q 201 553 171 604 q 285 474 232 503 q 410 446 339 446 z "},"A":{"ha":917,"x_min":13,"x_max":904,"o":"m 13 0 l 397 972 l 525 972 l 904 0 l 789 0 l 674 306 l 240 306 l 125 0 l 13 0 m 274 390 l 642 390 l 457 875 l 274 390 z "},"Á":{"ha":917,"x_min":13,"x_max":904,"o":"m 13 0 l 397 972 l 525 972 l 904 0 l 789 0 l 674 306 l 240 306 l 125 0 l 13 0 m 274 390 l 642 390 l 457 875 l 274 390 m 372 1106 l 528 1275 l 665 1275 l 465 1106 l 372 1106 z "},"Ă":{"ha":917,"x_min":13,"x_max":904,"o":"m 13 0 l 397 972 l 525 972 l 904 0 l 789 0 l 674 306 l 240 306 l 125 0 l 13 0 m 274 390 l 642 390 l 457 875 l 274 390 m 463 1099 q 319 1145 378 1099 q 242 1274 261 1192 l 313 1290 q 463 1163 344 1163 q 558 1196 519 1163 q 611 1290 596 1229 l 681 1274 q 604 1145 663 1192 q 463 1099 546 1099 z "},"Â":{"ha":917,"x_min":13,"x_max":904,"o":"m 13 0 l 397 972 l 525 972 l 904 0 l 789 0 l 674 306 l 240 306 l 125 0 l 13 0 m 274 390 l 642 390 l 457 875 l 274 390 m 590 1099 l 460 1215 l 331 1099 l 249 1099 l 407 1275 l 515 1275 l 674 1099 l 590 1099 z "},"Ä":{"ha":917,"x_min":13,"x_max":904,"o":"m 13 0 l 397 972 l 525 972 l 904 0 l 789 0 l 674 306 l 240 306 l 125 0 l 13 0 m 274 390 l 642 390 l 457 875 l 274 390 m 339 1140 q 287 1162 308 1140 q 265 1213 265 1183 q 287 1263 265 1242 q 339 1285 308 1285 q 391 1263 369 1285 q 413 1213 413 1242 q 391 1162 413 1183 q 339 1140 369 1140 m 583 1140 q 531 1162 553 1140 q 510 1213 510 1183 q 531 1263 510 1242 q 583 1285 553 1285 q 635 1263 614 1285 q 657 1213 657 1242 q 635 1162 657 1183 q 583 1140 614 1140 z "},"À":{"ha":917,"x_min":13,"x_max":904,"o":"m 13 0 l 397 972 l 525 972 l 904 0 l 789 0 l 674 306 l 240 306 l 125 0 l 13 0 m 274 390 l 642 390 l 457 875 l 274 390 m 453 1106 l 253 1275 l 396 1275 l 551 1106 l 453 1106 z "},"Ā":{"ha":917,"x_min":13,"x_max":904,"o":"m 13 0 l 397 972 l 525 972 l 904 0 l 789 0 l 674 306 l 240 306 l 125 0 l 13 0 m 274 390 l 642 390 l 457 875 l 274 390 m 272 1143 l 272 1215 l 650 1215 l 650 1143 l 272 1143 z "},"Ą":{"ha":917,"x_min":13,"x_max":939,"o":"m 838 -321 q 731 -286 771 -321 q 690 -194 690 -251 q 723 -97 690 -143 q 828 0 756 -51 l 789 0 l 674 306 l 240 306 l 125 0 l 13 0 l 397 972 l 525 972 l 904 0 q 794 -92 829 -49 q 760 -178 760 -135 q 785 -236 760 -215 q 853 -257 810 -257 q 889 -253 871 -257 q 919 -240 907 -249 l 939 -294 q 838 -321 897 -321 m 274 390 l 642 390 l 457 875 l 274 390 z "},"Å":{"ha":917,"x_min":13,"x_max":904,"o":"m 13 0 l 397 972 l 525 972 l 904 0 l 789 0 l 674 306 l 240 306 l 125 0 l 13 0 m 274 390 l 642 390 l 457 875 l 274 390 m 461 1089 q 383 1110 418 1089 q 326 1166 347 1131 q 306 1243 306 1201 q 326 1321 306 1286 q 383 1376 347 1356 q 461 1397 418 1397 q 540 1376 504 1397 q 596 1321 575 1356 q 617 1243 617 1286 q 596 1166 617 1201 q 540 1110 575 1131 q 461 1089 504 1089 m 461 1146 q 530 1174 501 1146 q 558 1243 558 1203 q 530 1312 558 1283 q 461 1340 501 1340 q 392 1312 421 1340 q 364 1243 364 1283 q 392 1174 364 1203 q 461 1146 421 1146 z "},"Ã":{"ha":917,"x_min":13,"x_max":904,"o":"m 13 0 l 397 972 l 525 972 l 904 0 l 789 0 l 674 306 l 240 306 l 125 0 l 13 0 m 274 390 l 642 390 l 457 875 l 274 390 m 294 1100 l 224 1114 q 278 1222 243 1185 q 363 1258 313 1258 q 438 1238 403 1258 q 505 1196 474 1217 q 564 1175 536 1175 q 601 1194 588 1175 q 628 1264 614 1214 l 699 1250 q 647 1142 681 1179 q 565 1106 613 1106 q 492 1126 526 1106 q 426 1168 457 1147 q 365 1189 394 1189 q 323 1169 339 1189 q 294 1100 307 1149 z "},"Æ":{"ha":1275,"x_min":13,"x_max":1208,"o":"m 13 0 l 397 972 l 1208 972 l 1208 878 l 568 878 l 696 538 l 1025 538 l 1025 444 l 731 444 l 863 94 l 1208 94 l 1208 0 l 788 0 l 672 306 l 240 306 l 124 0 l 13 0 m 272 390 l 640 390 l 457 876 l 272 390 z "},"B":{"ha":929,"x_min":124,"x_max":847,"o":"m 124 0 l 124 972 l 517 972 q 672 942 606 972 q 774 856 738 911 q 810 725 810 800 q 763 587 810 644 q 638 506 717 529 q 791 422 735 483 q 847 269 847 360 q 808 128 847 189 q 699 33 769 67 q 532 0 628 0 l 124 0 m 231 547 l 508 547 q 650 592 597 547 q 703 714 703 638 q 650 835 703 790 q 508 881 597 881 l 231 881 l 231 547 m 231 92 l 521 92 q 679 142 619 92 q 739 276 739 193 q 680 410 739 360 q 521 460 621 460 l 231 460 l 231 92 z "},"C":{"ha":1008,"x_min":78,"x_max":939,"o":"m 572 -15 q 378 23 468 -15 q 221 130 289 61 q 115 290 153 199 q 78 486 78 381 q 115 683 78 592 q 221 842 153 774 q 378 949 289 911 q 572 988 468 988 q 710 969 644 988 q 835 915 776 950 q 939 828 893 879 l 868 754 q 735 855 814 819 q 572 890 657 890 q 419 860 490 890 q 297 774 349 829 q 215 645 244 718 q 186 486 186 572 q 215 328 186 401 q 297 199 244 254 q 419 113 349 143 q 572 82 490 82 q 735 118 657 82 q 868 218 814 154 l 939 144 q 835 58 893 93 q 710 3 776 22 q 572 -15 644 -15 z "},"Ć":{"ha":1008,"x_min":78,"x_max":939,"o":"m 572 -15 q 378 23 468 -15 q 221 130 289 61 q 115 290 153 199 q 78 486 78 381 q 115 683 78 592 q 221 842 153 774 q 378 949 289 911 q 572 988 468 988 q 710 969 644 988 q 835 915 776 950 q 939 828 893 879 l 868 754 q 735 855 814 819 q 572 890 657 890 q 419 860 490 890 q 297 774 349 829 q 215 645 244 718 q 186 486 186 572 q 215 328 186 401 q 297 199 244 254 q 419 113 349 143 q 572 82 490 82 q 735 118 657 82 q 868 218 814 154 l 939 144 q 835 58 893 93 q 710 3 776 22 q 572 -15 644 -15 m 476 1106 l 632 1275 l 769 1275 l 569 1106 l 476 1106 z "},"Č":{"ha":1008,"x_min":78,"x_max":939,"o":"m 572 -15 q 378 23 468 -15 q 221 130 289 61 q 115 290 153 199 q 78 486 78 381 q 115 683 78 592 q 221 842 153 774 q 378 949 289 911 q 572 988 468 988 q 710 969 644 988 q 835 915 776 950 q 939 828 893 879 l 868 754 q 735 855 814 819 q 572 890 657 890 q 419 860 490 890 q 297 774 349 829 q 215 645 244 718 q 186 486 186 572 q 215 328 186 401 q 297 199 244 254 q 419 113 349 143 q 572 82 490 82 q 735 118 657 82 q 868 218 814 154 l 939 144 q 835 58 893 93 q 710 3 776 22 q 572 -15 644 -15 m 438 1281 l 565 1165 l 693 1281 l 778 1281 l 619 1104 l 511 1104 l 353 1281 l 438 1281 z "},"Ç":{"ha":1008,"x_min":78,"x_max":939,"o":"m 560 -332 q 474 -319 513 -332 q 407 -282 435 -307 l 446 -237 q 556 -278 494 -278 q 622 -258 599 -278 q 646 -206 646 -239 q 620 -156 646 -174 q 547 -137 594 -137 l 507 -137 l 538 -14 q 356 33 440 -7 q 210 141 272 74 q 113 297 147 208 q 78 486 78 385 q 115 683 78 592 q 221 842 153 774 q 378 949 289 911 q 572 988 468 988 q 710 969 644 988 q 835 915 776 950 q 939 828 893 879 l 868 754 q 735 855 814 819 q 572 890 657 890 q 419 860 490 890 q 297 774 349 829 q 215 645 244 718 q 186 486 186 572 q 215 328 186 401 q 297 199 244 254 q 419 113 349 143 q 572 82 490 82 q 735 118 657 82 q 868 218 814 154 l 939 144 q 786 31 875 72 q 597 -15 697 -10 l 579 -92 q 677 -124 640 -94 q 714 -203 714 -154 q 671 -295 714 -258 q 560 -332 628 -332 z "},"Ĉ":{"ha":1008,"x_min":78,"x_max":939,"o":"m 572 -15 q 378 23 468 -15 q 221 130 289 61 q 115 290 153 199 q 78 486 78 381 q 115 683 78 592 q 221 842 153 774 q 378 949 289 911 q 572 988 468 988 q 710 969 644 988 q 835 915 776 950 q 939 828 893 879 l 868 754 q 735 855 814 819 q 572 890 657 890 q 419 860 490 890 q 297 774 349 829 q 215 645 244 718 q 186 486 186 572 q 215 328 186 401 q 297 199 244 254 q 419 113 349 143 q 572 82 490 82 q 735 118 657 82 q 868 218 814 154 l 939 144 q 835 58 893 93 q 710 3 776 22 q 572 -15 644 -15 m 694 1099 l 564 1215 l 435 1099 l 353 1099 l 511 1275 l 619 1275 l 778 1099 l 694 1099 z "},"Ċ":{"ha":1008,"x_min":78,"x_max":939,"o":"m 572 -15 q 378 23 468 -15 q 221 130 289 61 q 115 290 153 199 q 78 486 78 381 q 115 683 78 592 q 221 842 153 774 q 378 949 289 911 q 572 988 468 988 q 710 969 644 988 q 835 915 776 950 q 939 828 893 879 l 868 754 q 735 855 814 819 q 572 890 657 890 q 419 860 490 890 q 297 774 349 829 q 215 645 244 718 q 186 486 186 572 q 215 328 186 401 q 297 199 244 254 q 419 113 349 143 q 572 82 490 82 q 735 118 657 82 q 868 218 814 154 l 939 144 q 835 58 893 93 q 710 3 776 22 q 572 -15 644 -15 m 565 1140 q 513 1162 535 1140 q 492 1213 492 1183 q 513 1263 492 1242 q 565 1285 535 1285 q 617 1263 596 1285 q 639 1213 639 1242 q 617 1162 639 1183 q 565 1140 596 1140 z "},"D":{"ha":1011,"x_min":124,"x_max":932,"o":"m 231 96 l 453 96 q 642 147 558 96 q 774 287 725 199 q 824 486 824 375 q 774 685 824 597 q 642 825 725 774 q 453 876 558 876 l 231 876 l 231 96 m 124 0 l 124 972 l 446 972 q 642 935 553 972 q 797 833 732 899 q 897 678 861 767 q 932 486 932 590 q 897 294 932 382 q 797 140 861 206 q 642 37 732 74 q 446 0 553 0 l 124 0 z "},"Ď":{"ha":1011,"x_min":124,"x_max":932,"o":"m 231 96 l 453 96 q 642 147 558 96 q 774 287 725 199 q 824 486 824 375 q 774 685 824 597 q 642 825 725 774 q 453 876 558 876 l 231 876 l 231 96 m 124 0 l 124 972 l 446 972 q 642 935 553 972 q 797 833 732 899 q 897 678 861 767 q 932 486 932 590 q 897 294 932 382 q 797 140 861 206 q 642 37 732 74 q 446 0 553 0 l 124 0 m 364 1281 l 492 1165 l 619 1281 l 704 1281 l 546 1104 l 438 1104 l 279 1281 l 364 1281 z "},"Đ":{"ha":1056,"x_min":35,"x_max":976,"o":"m 168 0 l 168 447 l 35 447 l 35 532 l 168 532 l 168 972 l 490 972 q 687 935 597 972 q 841 833 776 899 q 941 678 906 767 q 976 486 976 590 q 941 294 976 382 q 841 140 906 206 q 687 37 776 74 q 490 0 597 0 l 168 0 m 275 96 l 497 96 q 686 147 603 96 q 819 287 769 199 q 868 486 868 375 q 819 685 868 597 q 686 825 769 774 q 497 876 603 876 l 275 876 l 275 532 l 506 532 l 506 447 l 275 447 l 275 96 z "},"Ð":{"ha":1056,"x_min":35,"x_max":976,"o":"m 168 0 l 168 447 l 35 447 l 35 532 l 168 532 l 168 972 l 490 972 q 687 935 597 972 q 841 833 776 899 q 941 678 906 767 q 976 486 976 590 q 941 294 976 382 q 841 140 906 206 q 687 37 776 74 q 490 0 597 0 l 168 0 m 275 96 l 497 96 q 686 147 603 96 q 819 287 769 199 q 868 486 868 375 q 819 685 868 597 q 686 825 769 774 q 497 876 603 876 l 275 876 l 275 532 l 506 532 l 506 447 l 275 447 l 275 96 z "},"E":{"ha":860,"x_min":124,"x_max":793,"o":"m 124 0 l 124 972 l 788 972 l 788 878 l 231 878 l 231 538 l 617 538 l 617 444 l 231 444 l 231 94 l 793 94 l 793 0 l 124 0 z "},"É":{"ha":860,"x_min":124,"x_max":793,"o":"m 124 0 l 124 972 l 788 972 l 788 878 l 231 878 l 231 538 l 617 538 l 617 444 l 231 444 l 231 94 l 793 94 l 793 0 l 124 0 m 368 1106 l 524 1275 l 661 1275 l 461 1106 l 368 1106 z "},"Ĕ":{"ha":860,"x_min":124,"x_max":793,"o":"m 124 0 l 124 972 l 788 972 l 788 878 l 231 878 l 231 538 l 617 538 l 617 444 l 231 444 l 231 94 l 793 94 l 793 0 l 124 0 m 458 1099 q 315 1145 374 1099 q 238 1274 257 1192 l 308 1290 q 458 1163 340 1163 q 553 1196 515 1163 q 607 1290 592 1229 l 676 1274 q 600 1145 658 1192 q 458 1099 542 1099 z "},"Ě":{"ha":860,"x_min":124,"x_max":793,"o":"m 124 0 l 124 972 l 788 972 l 788 878 l 231 878 l 231 538 l 617 538 l 617 444 l 231 444 l 231 94 l 793 94 l 793 0 l 124 0 m 329 1281 l 457 1165 l 585 1281 l 669 1281 l 511 1104 l 403 1104 l 244 1281 l 329 1281 z "},"Ê":{"ha":860,"x_min":124,"x_max":793,"o":"m 124 0 l 124 972 l 788 972 l 788 878 l 231 878 l 231 538 l 617 538 l 617 444 l 231 444 l 231 94 l 793 94 l 793 0 l 124 0 m 586 1099 l 456 1215 l 326 1099 l 244 1099 l 403 1275 l 511 1275 l 669 1099 l 586 1099 z "},"Ë":{"ha":860,"x_min":124,"x_max":793,"o":"m 124 0 l 124 972 l 788 972 l 788 878 l 231 878 l 231 538 l 617 538 l 617 444 l 231 444 l 231 94 l 793 94 l 793 0 l 124 0 m 335 1140 q 283 1162 304 1140 q 261 1213 261 1183 q 283 1263 261 1242 q 335 1285 304 1285 q 387 1263 365 1285 q 408 1213 408 1242 q 387 1162 408 1183 q 335 1140 365 1140 m 579 1140 q 527 1162 549 1140 q 506 1213 506 1183 q 527 1263 506 1242 q 579 1285 549 1285 q 631 1263 610 1285 q 653 1213 653 1242 q 631 1162 653 1183 q 579 1140 610 1140 z "},"Ė":{"ha":860,"x_min":124,"x_max":793,"o":"m 124 0 l 124 972 l 788 972 l 788 878 l 231 878 l 231 538 l 617 538 l 617 444 l 231 444 l 231 94 l 793 94 l 793 0 l 124 0 m 457 1140 q 405 1162 426 1140 q 383 1213 383 1183 q 405 1263 383 1242 q 457 1285 426 1285 q 509 1263 488 1285 q 531 1213 531 1242 q 509 1162 531 1183 q 457 1140 488 1140 z "},"È":{"ha":860,"x_min":124,"x_max":793,"o":"m 124 0 l 124 972 l 788 972 l 788 878 l 231 878 l 231 538 l 617 538 l 617 444 l 231 444 l 231 94 l 793 94 l 793 0 l 124 0 m 449 1106 l 249 1275 l 392 1275 l 547 1106 l 449 1106 z "},"Ē":{"ha":860,"x_min":124,"x_max":793,"o":"m 124 0 l 124 972 l 788 972 l 788 878 l 231 878 l 231 538 l 617 538 l 617 444 l 231 444 l 231 94 l 793 94 l 793 0 l 124 0 m 268 1143 l 268 1215 l 646 1215 l 646 1143 l 268 1143 z "},"Ę":{"ha":860,"x_min":124,"x_max":828,"o":"m 828 -294 q 726 -321 786 -321 q 619 -286 660 -321 q 579 -194 579 -251 q 612 -97 579 -143 q 717 0 644 -51 l 124 0 l 124 972 l 788 972 l 788 878 l 231 878 l 231 538 l 617 538 l 617 444 l 231 444 l 231 94 l 793 94 l 793 0 q 683 -92 718 -49 q 649 -178 649 -135 q 674 -236 649 -215 q 742 -257 699 -257 q 778 -253 760 -257 q 808 -240 796 -249 l 828 -294 z "},"F":{"ha":847,"x_min":124,"x_max":788,"o":"m 124 0 l 124 972 l 788 972 l 788 878 l 231 878 l 231 531 l 611 531 l 611 438 l 231 438 l 231 0 l 124 0 z "},"G":{"ha":1110,"x_min":78,"x_max":1033,"o":"m 569 -15 q 376 24 465 -15 q 220 131 288 63 q 115 291 153 200 q 78 486 78 382 q 115 681 78 590 q 220 841 153 772 q 376 949 288 910 q 569 988 465 988 q 780 947 681 988 q 949 828 879 907 l 876 756 q 740 856 822 821 q 569 890 658 890 q 418 859 488 890 q 297 773 349 828 q 215 644 244 718 q 186 486 186 571 q 215 328 186 401 q 297 199 244 254 q 418 113 349 144 q 569 82 488 82 q 744 125 667 82 q 869 244 821 168 q 925 414 917 319 l 597 414 l 597 508 l 1033 508 l 1033 465 q 999 277 1033 364 q 901 124 964 190 q 753 22 838 58 q 569 -15 668 -15 z "},"Ğ":{"ha":1110,"x_min":78,"x_max":1033,"o":"m 569 -15 q 376 24 465 -15 q 220 131 288 63 q 115 291 153 200 q 78 486 78 382 q 115 681 78 590 q 220 841 153 772 q 376 949 288 910 q 569 988 465 988 q 780 947 681 988 q 949 828 879 907 l 876 756 q 740 856 822 821 q 569 890 658 890 q 418 859 488 890 q 297 773 349 828 q 215 644 244 718 q 186 486 186 571 q 215 328 186 401 q 297 199 244 254 q 418 113 349 144 q 569 82 488 82 q 744 125 667 82 q 869 244 821 168 q 925 414 917 319 l 597 414 l 597 508 l 1033 508 l 1033 465 q 999 277 1033 364 q 901 124 964 190 q 753 22 838 58 q 569 -15 668 -15 m 569 1099 q 426 1145 485 1099 q 349 1274 368 1192 l 419 1290 q 569 1163 451 1163 q 665 1196 626 1163 q 718 1290 703 1229 l 788 1274 q 711 1145 769 1192 q 569 1099 653 1099 z "},"Ĝ":{"ha":1110,"x_min":78,"x_max":1033,"o":"m 569 -15 q 376 24 465 -15 q 220 131 288 63 q 115 291 153 200 q 78 486 78 382 q 115 681 78 590 q 220 841 153 772 q 376 949 288 910 q 569 988 465 988 q 780 947 681 988 q 949 828 879 907 l 876 756 q 740 856 822 821 q 569 890 658 890 q 418 859 488 890 q 297 773 349 828 q 215 644 244 718 q 186 486 186 571 q 215 328 186 401 q 297 199 244 254 q 418 113 349 144 q 569 82 488 82 q 744 125 667 82 q 869 244 821 168 q 925 414 917 319 l 597 414 l 597 508 l 1033 508 l 1033 465 q 999 277 1033 364 q 901 124 964 190 q 753 22 838 58 q 569 -15 668 -15 m 697 1099 l 567 1215 l 438 1099 l 356 1099 l 514 1275 l 622 1275 l 781 1099 l 697 1099 z "},"Ģ":{"ha":1110,"x_min":78,"x_max":1033,"o":"m 569 -15 q 376 24 465 -15 q 220 131 288 63 q 115 291 153 200 q 78 486 78 382 q 115 681 78 590 q 220 841 153 772 q 376 949 288 910 q 569 988 465 988 q 780 947 681 988 q 949 828 879 907 l 876 756 q 740 856 822 821 q 569 890 658 890 q 418 859 488 890 q 297 773 349 828 q 215 644 244 718 q 186 486 186 571 q 215 328 186 401 q 297 199 244 254 q 418 113 349 144 q 569 82 488 82 q 744 125 667 82 q 869 244 821 168 q 925 414 917 319 l 597 414 l 597 508 l 1033 508 l 1033 465 q 999 277 1033 364 q 901 124 964 190 q 753 22 838 58 q 569 -15 668 -15 m 460 -381 l 528 -121 l 629 -121 l 533 -381 l 460 -381 z "},"Ġ":{"ha":1110,"x_min":78,"x_max":1033,"o":"m 569 -15 q 376 24 465 -15 q 220 131 288 63 q 115 291 153 200 q 78 486 78 382 q 115 681 78 590 q 220 841 153 772 q 376 949 288 910 q 569 988 465 988 q 780 947 681 988 q 949 828 879 907 l 876 756 q 740 856 822 821 q 569 890 658 890 q 418 859 488 890 q 297 773 349 828 q 215 644 244 718 q 186 486 186 571 q 215 328 186 401 q 297 199 244 254 q 418 113 349 144 q 569 82 488 82 q 744 125 667 82 q 869 244 821 168 q 925 414 917 319 l 597 414 l 597 508 l 1033 508 l 1033 465 q 999 277 1033 364 q 901 124 964 190 q 753 22 838 58 q 569 -15 668 -15 m 568 1140 q 516 1162 538 1140 q 494 1213 494 1183 q 516 1263 494 1242 q 568 1285 538 1285 q 620 1263 599 1285 q 642 1213 642 1242 q 620 1162 642 1183 q 568 1140 599 1140 z "},"H":{"ha":1017,"x_min":122,"x_max":894,"o":"m 122 0 l 122 972 l 229 972 l 229 538 l 788 538 l 788 972 l 894 972 l 894 0 l 788 0 l 788 442 l 229 442 l 229 0 l 122 0 z "},"Ħ":{"ha":1039,"x_min":17,"x_max":1022,"o":"m 133 0 l 133 724 l 17 724 l 17 808 l 133 808 l 133 972 l 240 972 l 240 808 l 799 808 l 799 972 l 906 972 l 906 808 l 1022 808 l 1022 724 l 906 724 l 906 0 l 799 0 l 799 442 l 240 442 l 240 0 l 133 0 m 240 536 l 799 536 l 799 724 l 240 724 l 240 536 z "},"Ĥ":{"ha":1017,"x_min":122,"x_max":894,"o":"m 122 0 l 122 972 l 229 972 l 229 538 l 788 538 l 788 972 l 894 972 l 894 0 l 788 0 l 788 442 l 229 442 l 229 0 l 122 0 m 638 1099 l 507 1215 l 378 1099 l 296 1099 l 454 1275 l 563 1275 l 721 1099 l 638 1099 z "},"I":{"ha":351,"x_min":122,"x_max":229,"o":"m 122 0 l 122 972 l 229 972 l 229 0 l 122 0 z "},"Ĳ":{"ha":1185,"x_min":122,"x_max":1081,"o":"m 122 0 l 122 972 l 229 972 l 229 0 l 122 0 m 722 -15 q 508 50 599 -15 q 376 233 417 115 l 474 272 q 571 131 508 179 q 724 82 633 82 q 906 160 838 82 q 974 368 974 238 l 974 972 l 1081 972 l 1081 367 q 1037 164 1081 250 q 913 31 993 78 q 722 -15 832 -15 z "},"Í":{"ha":351,"x_min":86,"x_max":379,"o":"m 122 0 l 122 972 l 229 972 l 229 0 l 122 0 m 86 1106 l 242 1275 l 379 1275 l 179 1106 l 86 1106 z "},"Ĭ":{"ha":351,"x_min":-44,"x_max":394,"o":"m 122 0 l 122 972 l 229 972 l 229 0 l 122 0 m 176 1099 q 33 1145 92 1099 q -44 1274 -25 1192 l 26 1290 q 176 1163 58 1163 q 272 1196 233 1163 q 325 1290 310 1229 l 394 1274 q 318 1145 376 1192 q 176 1099 260 1099 z "},"Î":{"ha":351,"x_min":-37,"x_max":388,"o":"m 122 0 l 122 972 l 229 972 l 229 0 l 122 0 m 304 1099 l 174 1215 l 44 1099 l -37 1099 l 121 1275 l 229 1275 l 388 1099 l 304 1099 z "},"Ï":{"ha":351,"x_min":-21,"x_max":371,"o":"m 122 0 l 122 972 l 229 972 l 229 0 l 122 0 m 53 1140 q 1 1162 22 1140 q -21 1213 -21 1183 q 1 1263 -21 1242 q 53 1285 22 1285 q 105 1263 83 1285 q 126 1213 126 1242 q 105 1162 126 1183 q 53 1140 83 1140 m 297 1140 q 245 1162 267 1140 q 224 1213 224 1183 q 245 1263 224 1242 q 297 1285 267 1285 q 349 1263 328 1285 q 371 1213 371 1242 q 349 1162 371 1183 q 297 1140 328 1140 z "},"İ":{"ha":351,"x_min":101,"x_max":249,"o":"m 122 0 l 122 972 l 229 972 l 229 0 l 122 0 m 175 1140 q 123 1162 144 1140 q 101 1213 101 1183 q 123 1263 101 1242 q 175 1285 144 1285 q 227 1263 206 1285 q 249 1213 249 1242 q 227 1162 249 1183 q 175 1140 206 1140 z "},"Ì":{"ha":351,"x_min":-33,"x_max":265,"o":"m 122 0 l 122 972 l 229 972 l 229 0 l 122 0 m 167 1106 l -33 1275 l 110 1275 l 265 1106 l 167 1106 z "},"Ī":{"ha":351,"x_min":-14,"x_max":364,"o":"m 122 0 l 122 972 l 229 972 l 229 0 l 122 0 m -14 1143 l -14 1215 l 364 1215 l 364 1143 l -14 1143 z "},"Į":{"ha":351,"x_min":15,"x_max":264,"o":"m 163 -321 q 56 -286 96 -321 q 15 -194 15 -251 q 48 -97 15 -143 q 153 0 81 -51 l 122 0 l 122 972 l 229 972 l 229 0 q 119 -92 154 -49 q 85 -178 85 -135 q 110 -236 85 -215 q 178 -257 135 -257 q 214 -253 196 -257 q 244 -240 232 -249 l 264 -294 q 163 -321 222 -321 z "},"Ĩ":{"ha":351,"x_min":-62,"x_max":413,"o":"m 122 0 l 122 972 l 229 972 l 229 0 l 122 0 m 8 1100 l -62 1114 q -8 1222 -43 1185 q 76 1258 26 1258 q 152 1238 117 1258 q 219 1196 188 1217 q 278 1175 250 1175 q 315 1194 301 1175 q 342 1264 328 1214 l 413 1250 q 360 1142 394 1179 q 279 1106 326 1106 q 206 1126 240 1106 q 140 1168 171 1147 q 79 1189 108 1189 q 37 1169 53 1189 q 8 1100 21 1149 z "},"J":{"ha":833,"x_min":25,"x_max":729,"o":"m 371 -15 q 156 50 247 -15 q 25 233 65 115 l 122 272 q 219 131 157 179 q 372 82 282 82 q 554 160 486 82 q 622 368 622 238 l 622 972 l 729 972 l 729 367 q 685 164 729 250 q 561 31 642 78 q 371 -15 481 -15 z "},"Ĵ":{"ha":833,"x_min":25,"x_max":888,"o":"m 371 -15 q 156 50 247 -15 q 25 233 65 115 l 122 272 q 219 131 157 179 q 372 82 282 82 q 554 160 486 82 q 622 368 622 238 l 622 972 l 729 972 l 729 367 q 685 164 729 250 q 561 31 642 78 q 371 -15 481 -15 m 804 1099 l 674 1215 l 544 1099 l 463 1099 l 621 1275 l 729 1275 l 888 1099 l 804 1099 z "},"K":{"ha":847,"x_min":124,"x_max":850,"o":"m 124 0 l 124 972 l 231 972 l 231 511 l 703 972 l 839 972 l 343 494 l 850 0 l 704 0 l 231 465 l 231 0 l 124 0 z "},"Ķ":{"ha":847,"x_min":124,"x_max":850,"o":"m 124 0 l 124 972 l 231 972 l 231 511 l 703 972 l 839 972 l 343 494 l 850 0 l 704 0 l 231 465 l 231 0 l 124 0 m 343 -381 l 411 -121 l 513 -121 l 417 -381 l 343 -381 z "},"L":{"ha":843,"x_min":124,"x_max":779,"o":"m 124 0 l 124 972 l 231 972 l 231 94 l 779 94 l 779 0 l 124 0 z "},"Ĺ":{"ha":843,"x_min":75,"x_max":779,"o":"m 124 0 l 124 972 l 231 972 l 231 94 l 779 94 l 779 0 l 124 0 m 75 1106 l 231 1275 l 368 1275 l 168 1106 l 75 1106 z "},"Ľ":{"ha":842,"x_min":124,"x_max":779,"o":"m 124 0 l 124 972 l 231 972 l 231 94 l 779 94 l 779 0 l 124 0 m 592 732 l 599 1003 l 704 1024 l 669 732 l 592 732 z "},"Ļ":{"ha":843,"x_min":124,"x_max":779,"o":"m 124 0 l 124 972 l 231 972 l 231 94 l 779 94 l 779 0 l 124 0 m 338 -381 l 406 -121 l 507 -121 l 411 -381 l 338 -381 z "},"Ł":{"ha":868,"x_min":19,"x_max":804,"o":"m 149 0 l 149 339 l 19 238 l 19 340 l 149 442 l 149 972 l 256 972 l 256 525 l 500 715 l 500 613 l 256 422 l 256 94 l 804 94 l 804 0 l 149 0 z "},"M":{"ha":1194,"x_min":124,"x_max":1071,"o":"m 124 0 l 124 972 l 272 972 l 597 281 l 922 972 l 1071 972 l 1071 0 l 969 0 l 969 846 l 597 69 l 224 849 l 224 0 l 124 0 z "},"N":{"ha":1026,"x_min":124,"x_max":903,"o":"m 124 0 l 124 972 l 235 972 l 804 167 l 801 972 l 903 972 l 903 0 l 806 0 l 222 824 l 225 0 l 124 0 z "},"Ń":{"ha":1026,"x_min":124,"x_max":903,"o":"m 124 0 l 124 972 l 235 972 l 804 167 l 801 972 l 903 972 l 903 0 l 806 0 l 222 824 l 225 0 l 124 0 m 429 1106 l 585 1275 l 722 1275 l 522 1106 l 429 1106 z "},"Ň":{"ha":1026,"x_min":124,"x_max":903,"o":"m 124 0 l 124 972 l 235 972 l 804 167 l 801 972 l 903 972 l 903 0 l 806 0 l 222 824 l 225 0 l 124 0 m 390 1281 l 518 1165 l 646 1281 l 731 1281 l 572 1104 l 464 1104 l 306 1281 l 390 1281 z "},"Ņ":{"ha":1026,"x_min":124,"x_max":903,"o":"m 124 0 l 124 972 l 235 972 l 804 167 l 801 972 l 903 972 l 903 0 l 806 0 l 222 824 l 225 0 l 124 0 m 403 -381 l 471 -121 l 572 -121 l 476 -381 l 403 -381 z "},"Ñ":{"ha":1026,"x_min":124,"x_max":903,"o":"m 124 0 l 124 972 l 235 972 l 804 167 l 801 972 l 903 972 l 903 0 l 806 0 l 222 824 l 225 0 l 124 0 m 351 1100 l 281 1114 q 335 1222 300 1185 q 419 1258 369 1258 q 495 1238 460 1258 q 562 1196 531 1217 q 621 1175 593 1175 q 658 1194 644 1175 q 685 1264 671 1214 l 756 1250 q 703 1142 738 1179 q 622 1106 669 1106 q 549 1126 583 1106 q 483 1168 514 1147 q 422 1189 451 1189 q 380 1169 396 1189 q 351 1100 364 1149 z "},"Ŋ":{"ha":1026,"x_min":124,"x_max":903,"o":"m 732 -304 q 699 -301 715 -304 q 669 -296 683 -299 l 669 -210 q 719 -215 690 -215 q 784 -193 764 -215 q 804 -121 804 -171 l 804 1 l 224 819 l 225 0 l 124 0 l 124 972 l 235 972 l 803 171 l 801 972 l 903 972 l 903 -131 q 859 -258 903 -212 q 732 -304 815 -304 z "},"O":{"ha":1125,"x_min":79,"x_max":1046,"o":"m 563 -15 q 374 23 461 -15 q 220 130 286 61 q 117 290 154 199 q 79 486 79 381 q 117 683 79 592 q 220 842 154 774 q 374 949 286 911 q 563 988 461 988 q 751 949 664 988 q 905 842 839 911 q 1008 683 971 774 q 1046 486 1046 592 q 1008 290 1046 381 q 905 130 971 199 q 751 23 839 61 q 563 -15 664 -15 m 563 82 q 710 113 642 82 q 829 199 778 143 q 909 328 881 254 q 938 486 938 401 q 909 645 938 572 q 829 774 881 718 q 710 860 778 829 q 563 890 642 890 q 415 860 483 890 q 296 774 347 829 q 216 645 244 718 q 188 486 188 572 q 216 328 188 401 q 296 199 244 254 q 415 113 347 143 q 563 82 483 82 z "},"Ó":{"ha":1125,"x_min":79,"x_max":1046,"o":"m 563 -15 q 374 23 461 -15 q 220 130 286 61 q 117 290 154 199 q 79 486 79 381 q 117 683 79 592 q 220 842 154 774 q 374 949 286 911 q 563 988 461 988 q 751 949 664 988 q 905 842 839 911 q 1008 683 971 774 q 1046 486 1046 592 q 1008 290 1046 381 q 905 130 971 199 q 751 23 839 61 q 563 -15 664 -15 m 563 82 q 710 113 642 82 q 829 199 778 143 q 909 328 881 254 q 938 486 938 401 q 909 645 938 572 q 829 774 881 718 q 710 860 778 829 q 563 890 642 890 q 415 860 483 890 q 296 774 347 829 q 216 645 244 718 q 188 486 188 572 q 216 328 188 401 q 296 199 244 254 q 415 113 347 143 q 563 82 483 82 m 472 1106 l 628 1275 l 765 1275 l 565 1106 l 472 1106 z "},"Ŏ":{"ha":1125,"x_min":79,"x_max":1046,"o":"m 563 -15 q 374 23 461 -15 q 220 130 286 61 q 117 290 154 199 q 79 486 79 381 q 117 683 79 592 q 220 842 154 774 q 374 949 286 911 q 563 988 461 988 q 751 949 664 988 q 905 842 839 911 q 1008 683 971 774 q 1046 486 1046 592 q 1008 290 1046 381 q 905 130 971 199 q 751 23 839 61 q 563 -15 664 -15 m 563 82 q 710 113 642 82 q 829 199 778 143 q 909 328 881 254 q 938 486 938 401 q 909 645 938 572 q 829 774 881 718 q 710 860 778 829 q 563 890 642 890 q 415 860 483 890 q 296 774 347 829 q 216 645 244 718 q 188 486 188 572 q 216 328 188 401 q 296 199 244 254 q 415 113 347 143 q 563 82 483 82 m 563 1099 q 419 1145 478 1099 q 342 1274 361 1192 l 413 1290 q 563 1163 444 1163 q 658 1196 619 1163 q 711 1290 696 1229 l 781 1274 q 704 1145 763 1192 q 563 1099 646 1099 z "},"Ô":{"ha":1125,"x_min":79,"x_max":1046,"o":"m 563 -15 q 374 23 461 -15 q 220 130 286 61 q 117 290 154 199 q 79 486 79 381 q 117 683 79 592 q 220 842 154 774 q 374 949 286 911 q 563 988 461 988 q 751 949 664 988 q 905 842 839 911 q 1008 683 971 774 q 1046 486 1046 592 q 1008 290 1046 381 q 905 130 971 199 q 751 23 839 61 q 563 -15 664 -15 m 563 82 q 710 113 642 82 q 829 199 778 143 q 909 328 881 254 q 938 486 938 401 q 909 645 938 572 q 829 774 881 718 q 710 860 778 829 q 563 890 642 890 q 415 860 483 890 q 296 774 347 829 q 216 645 244 718 q 188 486 188 572 q 216 328 188 401 q 296 199 244 254 q 415 113 347 143 q 563 82 483 82 m 690 1099 l 560 1215 l 431 1099 l 349 1099 l 507 1275 l 615 1275 l 774 1099 l 690 1099 z "},"Ö":{"ha":1125,"x_min":79,"x_max":1046,"o":"m 563 -15 q 374 23 461 -15 q 220 130 286 61 q 117 290 154 199 q 79 486 79 381 q 117 683 79 592 q 220 842 154 774 q 374 949 286 911 q 563 988 461 988 q 751 949 664 988 q 905 842 839 911 q 1008 683 971 774 q 1046 486 1046 592 q 1008 290 1046 381 q 905 130 971 199 q 751 23 839 61 q 563 -15 664 -15 m 563 82 q 710 113 642 82 q 829 199 778 143 q 909 328 881 254 q 938 486 938 401 q 909 645 938 572 q 829 774 881 718 q 710 860 778 829 q 563 890 642 890 q 415 860 483 890 q 296 774 347 829 q 216 645 244 718 q 188 486 188 572 q 216 328 188 401 q 296 199 244 254 q 415 113 347 143 q 563 82 483 82 m 439 1140 q 387 1162 408 1140 q 365 1213 365 1183 q 387 1263 365 1242 q 439 1285 408 1285 q 491 1263 469 1285 q 513 1213 513 1242 q 491 1162 513 1183 q 439 1140 469 1140 m 683 1140 q 631 1162 653 1140 q 610 1213 610 1183 q 631 1263 610 1242 q 683 1285 653 1285 q 735 1263 714 1285 q 757 1213 757 1242 q 735 1162 757 1183 q 683 1140 714 1140 z "},"Ò":{"ha":1125,"x_min":79,"x_max":1046,"o":"m 563 -15 q 374 23 461 -15 q 220 130 286 61 q 117 290 154 199 q 79 486 79 381 q 117 683 79 592 q 220 842 154 774 q 374 949 286 911 q 563 988 461 988 q 751 949 664 988 q 905 842 839 911 q 1008 683 971 774 q 1046 486 1046 592 q 1008 290 1046 381 q 905 130 971 199 q 751 23 839 61 q 563 -15 664 -15 m 563 82 q 710 113 642 82 q 829 199 778 143 q 909 328 881 254 q 938 486 938 401 q 909 645 938 572 q 829 774 881 718 q 710 860 778 829 q 563 890 642 890 q 415 860 483 890 q 296 774 347 829 q 216 645 244 718 q 188 486 188 572 q 216 328 188 401 q 296 199 244 254 q 415 113 347 143 q 563 82 483 82 m 553 1106 l 353 1275 l 496 1275 l 651 1106 l 553 1106 z "},"Ő":{"ha":1125,"x_min":79,"x_max":1046,"o":"m 563 -15 q 374 23 461 -15 q 220 130 286 61 q 117 290 154 199 q 79 486 79 381 q 117 683 79 592 q 220 842 154 774 q 374 949 286 911 q 563 988 461 988 q 751 949 664 988 q 905 842 839 911 q 1008 683 971 774 q 1046 486 1046 592 q 1008 290 1046 381 q 905 130 971 199 q 751 23 839 61 q 563 -15 664 -15 m 563 82 q 710 113 642 82 q 829 199 778 143 q 909 328 881 254 q 938 486 938 401 q 909 645 938 572 q 829 774 881 718 q 710 860 778 829 q 563 890 642 890 q 415 860 483 890 q 296 774 347 829 q 216 645 244 718 q 188 486 188 572 q 216 328 188 401 q 296 199 244 254 q 415 113 347 143 q 563 82 483 82 m 374 1103 l 553 1275 l 669 1275 l 469 1103 l 374 1103 m 614 1103 l 793 1275 l 911 1275 l 707 1103 l 614 1103 z "},"Ō":{"ha":1125,"x_min":79,"x_max":1046,"o":"m 563 -15 q 374 23 461 -15 q 220 130 286 61 q 117 290 154 199 q 79 486 79 381 q 117 683 79 592 q 220 842 154 774 q 374 949 286 911 q 563 988 461 988 q 751 949 664 988 q 905 842 839 911 q 1008 683 971 774 q 1046 486 1046 592 q 1008 290 1046 381 q 905 130 971 199 q 751 23 839 61 q 563 -15 664 -15 m 563 82 q 710 113 642 82 q 829 199 778 143 q 909 328 881 254 q 938 486 938 401 q 909 645 938 572 q 829 774 881 718 q 710 860 778 829 q 563 890 642 890 q 415 860 483 890 q 296 774 347 829 q 216 645 244 718 q 188 486 188 572 q 216 328 188 401 q 296 199 244 254 q 415 113 347 143 q 563 82 483 82 m 372 1143 l 372 1215 l 750 1215 l 750 1143 l 372 1143 z "},"Ø":{"ha":1125,"x_min":79,"x_max":1046,"o":"m 563 -15 q 410 10 482 -15 q 278 79 339 35 l 208 -7 l 107 -7 l 219 131 q 117 290 154 199 q 79 486 79 381 q 117 683 79 592 q 220 842 154 774 q 374 949 286 911 q 563 988 461 988 q 713 964 642 988 q 844 896 785 940 l 913 979 l 1017 979 l 906 843 q 1008 683 971 775 q 1046 486 1046 592 q 1009 290 1046 381 q 906 130 972 199 q 752 23 840 61 q 563 -15 664 -15 m 285 211 l 781 818 q 679 872 735 853 q 563 890 624 890 q 415 860 483 890 q 296 774 347 829 q 216 645 244 718 q 188 486 188 572 q 213 335 188 406 q 285 211 239 264 m 563 82 q 710 113 642 82 q 830 199 779 143 q 909 328 881 254 q 938 486 938 401 q 912 639 938 568 q 839 763 886 710 l 342 157 q 444 102 389 122 q 563 82 500 82 z "},"Õ":{"ha":1125,"x_min":79,"x_max":1046,"o":"m 563 -15 q 374 23 461 -15 q 220 130 286 61 q 117 290 154 199 q 79 486 79 381 q 117 683 79 592 q 220 842 154 774 q 374 949 286 911 q 563 988 461 988 q 751 949 664 988 q 905 842 839 911 q 1008 683 971 774 q 1046 486 1046 592 q 1008 290 1046 381 q 905 130 971 199 q 751 23 839 61 q 563 -15 664 -15 m 563 82 q 710 113 642 82 q 829 199 778 143 q 909 328 881 254 q 938 486 938 401 q 909 645 938 572 q 829 774 881 718 q 710 860 778 829 q 563 890 642 890 q 415 860 483 890 q 296 774 347 829 q 216 645 244 718 q 188 486 188 572 q 216 328 188 401 q 296 199 244 254 q 415 113 347 143 q 563 82 483 82 m 394 1100 l 324 1114 q 378 1222 343 1185 q 463 1258 413 1258 q 538 1238 503 1258 q 605 1196 574 1217 q 664 1175 636 1175 q 701 1194 688 1175 q 728 1264 714 1214 l 799 1250 q 747 1142 781 1179 q 665 1106 713 1106 q 592 1126 626 1106 q 526 1168 557 1147 q 465 1189 494 1189 q 423 1169 439 1189 q 394 1100 407 1149 z "},"Œ":{"ha":1472,"x_min":78,"x_max":1406,"o":"m 554 0 q 366 37 453 0 q 215 140 279 74 q 114 294 150 206 q 78 486 78 382 q 114 678 78 590 q 215 833 150 767 q 366 935 279 899 q 554 972 453 972 l 1406 972 l 1406 878 l 803 878 q 934 733 883 822 q 994 538 985 644 l 1236 538 l 1236 444 l 996 444 q 936 244 986 336 q 804 94 886 153 l 1406 94 l 1406 0 l 554 0 m 540 96 q 722 147 642 96 q 849 288 801 199 q 896 486 896 376 q 849 685 896 597 q 722 825 801 774 q 540 876 642 876 q 360 825 440 876 q 232 685 279 774 q 185 486 185 597 q 232 288 185 376 q 360 147 279 199 q 540 96 440 96 z "},"P":{"ha":908,"x_min":124,"x_max":835,"o":"m 124 0 l 124 972 l 525 972 q 689 937 619 972 q 797 837 758 901 q 835 685 835 772 q 797 533 835 599 q 689 433 758 468 q 525 397 619 397 l 231 397 l 231 0 l 124 0 m 231 489 l 513 489 q 671 542 614 489 q 728 685 728 594 q 671 826 728 775 q 513 878 614 878 l 231 878 l 231 489 z "},"Þ":{"ha":908,"x_min":124,"x_max":835,"o":"m 124 0 l 124 972 l 231 972 l 231 774 l 525 774 q 689 738 619 774 q 797 638 758 703 q 835 486 835 574 q 797 335 835 400 q 689 234 758 269 q 525 199 619 199 l 231 199 l 231 0 l 124 0 m 231 290 l 513 290 q 671 344 614 290 q 728 486 728 397 q 671 628 728 576 q 513 681 614 681 l 231 681 l 231 290 z "},"Q":{"ha":1125,"x_min":79,"x_max":1046,"o":"m 893 -33 l 817 58 q 697 4 761 24 q 563 -15 633 -15 q 374 23 461 -15 q 220 130 286 61 q 117 290 154 199 q 79 486 79 381 q 117 683 79 592 q 220 842 154 774 q 374 949 286 911 q 563 988 461 988 q 751 949 664 988 q 905 842 839 911 q 1008 683 971 774 q 1046 486 1046 592 q 1004 281 1046 376 q 892 117 963 185 l 1003 -18 l 893 -33 m 563 82 q 663 96 615 82 q 753 135 711 110 l 611 303 l 721 319 l 825 194 q 908 324 878 250 q 938 486 938 399 q 909 645 938 572 q 829 774 881 718 q 710 860 778 829 q 563 890 642 890 q 415 860 483 890 q 296 774 347 829 q 216 645 244 718 q 188 486 188 572 q 216 328 188 401 q 296 199 244 254 q 415 113 347 143 q 563 82 483 82 z "},"R":{"ha":899,"x_min":124,"x_max":836,"o":"m 124 0 l 124 972 l 522 972 q 685 937 615 972 q 793 839 754 901 q 832 692 832 776 q 778 526 832 594 q 629 429 724 457 l 836 0 l 718 0 l 521 415 l 231 415 l 231 0 l 124 0 m 231 504 l 514 504 q 667 555 610 504 q 725 690 725 606 q 667 827 725 776 q 514 878 610 878 l 231 878 l 231 504 z "},"Ŕ":{"ha":899,"x_min":124,"x_max":836,"o":"m 124 0 l 124 972 l 522 972 q 685 937 615 972 q 793 839 754 901 q 832 692 832 776 q 778 526 832 594 q 629 429 724 457 l 836 0 l 718 0 l 521 415 l 231 415 l 231 0 l 124 0 m 231 504 l 514 504 q 667 555 610 504 q 725 690 725 606 q 667 827 725 776 q 514 878 610 878 l 231 878 l 231 504 m 363 1106 l 518 1275 l 656 1275 l 456 1106 l 363 1106 z "},"Ř":{"ha":899,"x_min":124,"x_max":836,"o":"m 124 0 l 124 972 l 522 972 q 685 937 615 972 q 793 839 754 901 q 832 692 832 776 q 778 526 832 594 q 629 429 724 457 l 836 0 l 718 0 l 521 415 l 231 415 l 231 0 l 124 0 m 231 504 l 514 504 q 667 555 610 504 q 725 690 725 606 q 667 827 725 776 q 514 878 610 878 l 231 878 l 231 504 m 324 1281 l 451 1165 l 579 1281 l 664 1281 l 506 1104 l 397 1104 l 239 1281 l 324 1281 z "},"Ŗ":{"ha":899,"x_min":124,"x_max":836,"o":"m 124 0 l 124 972 l 522 972 q 685 937 615 972 q 793 839 754 901 q 832 692 832 776 q 778 526 832 594 q 629 429 724 457 l 836 0 l 718 0 l 521 415 l 231 415 l 231 0 l 124 0 m 231 504 l 514 504 q 667 555 610 504 q 725 690 725 606 q 667 827 725 776 q 514 878 610 878 l 231 878 l 231 504 m 336 -381 l 404 -121 l 506 -121 l 410 -381 l 336 -381 z "},"S":{"ha":865,"x_min":39,"x_max":807,"o":"m 438 -15 q 226 26 324 -15 q 39 150 129 67 l 104 228 q 269 111 192 146 q 440 76 346 76 q 574 102 515 76 q 667 172 633 128 q 700 274 700 217 q 651 385 700 347 q 483 444 603 424 l 326 471 q 131 552 193 494 q 69 707 69 610 q 112 852 69 789 q 229 951 154 915 q 403 988 304 988 q 604 958 511 988 q 788 864 697 928 l 732 781 q 574 867 657 838 q 404 897 490 897 q 284 874 336 897 q 202 810 232 850 q 172 718 172 769 q 215 618 172 654 q 356 567 258 582 l 511 540 q 737 451 667 513 q 807 279 807 389 q 759 128 807 194 q 628 23 711 61 q 438 -15 544 -15 z "},"Ś":{"ha":865,"x_min":39,"x_max":807,"o":"m 438 -15 q 226 26 324 -15 q 39 150 129 67 l 104 228 q 269 111 192 146 q 440 76 346 76 q 574 102 515 76 q 667 172 633 128 q 700 274 700 217 q 651 385 700 347 q 483 444 603 424 l 326 471 q 131 552 193 494 q 69 707 69 610 q 112 852 69 789 q 229 951 154 915 q 403 988 304 988 q 604 958 511 988 q 788 864 697 928 l 732 781 q 574 867 657 838 q 404 897 490 897 q 284 874 336 897 q 202 810 232 850 q 172 718 172 769 q 215 618 172 654 q 356 567 258 582 l 511 540 q 737 451 667 513 q 807 279 807 389 q 759 128 807 194 q 628 23 711 61 q 438 -15 544 -15 m 314 1108 l 469 1278 l 607 1278 l 407 1108 l 314 1108 z "},"Š":{"ha":865,"x_min":39,"x_max":807,"o":"m 438 -15 q 226 26 324 -15 q 39 150 129 67 l 104 228 q 269 111 192 146 q 440 76 346 76 q 574 102 515 76 q 667 172 633 128 q 700 274 700 217 q 651 385 700 347 q 483 444 603 424 l 326 471 q 131 552 193 494 q 69 707 69 610 q 112 852 69 789 q 229 951 154 915 q 403 988 304 988 q 604 958 511 988 q 788 864 697 928 l 732 781 q 574 867 657 838 q 404 897 490 897 q 284 874 336 897 q 202 810 232 850 q 172 718 172 769 q 215 618 172 654 q 356 567 258 582 l 511 540 q 737 451 667 513 q 807 279 807 389 q 759 128 807 194 q 628 23 711 61 q 438 -15 544 -15 m 275 1283 l 403 1168 l 531 1283 l 615 1283 l 457 1107 l 349 1107 l 190 1283 l 275 1283 z "},"Ş":{"ha":865,"x_min":39,"x_max":807,"o":"m 425 -329 q 339 -317 378 -329 q 272 -279 300 -304 l 311 -235 q 421 -275 360 -275 q 488 -256 464 -275 q 511 -203 511 -236 q 485 -153 511 -171 q 413 -135 460 -135 l 372 -135 l 403 -14 q 210 33 300 -8 q 39 150 121 74 l 104 228 q 269 111 192 146 q 440 76 346 76 q 574 102 515 76 q 667 172 633 128 q 700 274 700 217 q 651 385 700 347 q 483 444 603 424 l 326 471 q 131 552 193 494 q 69 707 69 610 q 112 852 69 789 q 229 951 154 915 q 403 988 304 988 q 604 958 511 988 q 788 864 697 928 l 732 781 q 574 867 657 838 q 404 897 490 897 q 284 874 336 897 q 202 810 232 850 q 172 718 172 769 q 215 618 172 654 q 356 567 258 582 l 511 540 q 737 451 667 513 q 807 279 807 389 q 763 133 807 199 q 640 29 718 68 q 461 -15 563 -10 l 444 -89 q 542 -122 506 -92 q 579 -200 579 -151 q 536 -292 579 -256 q 425 -329 493 -329 z "},"Ŝ":{"ha":865,"x_min":39,"x_max":807,"o":"m 438 -15 q 226 26 324 -15 q 39 150 129 67 l 104 228 q 269 111 192 146 q 440 76 346 76 q 574 102 515 76 q 667 172 633 128 q 700 274 700 217 q 651 385 700 347 q 483 444 603 424 l 326 471 q 131 552 193 494 q 69 707 69 610 q 112 852 69 789 q 229 951 154 915 q 403 988 304 988 q 604 958 511 988 q 788 864 697 928 l 732 781 q 574 867 657 838 q 404 897 490 897 q 284 874 336 897 q 202 810 232 850 q 172 718 172 769 q 215 618 172 654 q 356 567 258 582 l 511 540 q 737 451 667 513 q 807 279 807 389 q 759 128 807 194 q 628 23 711 61 q 438 -15 544 -15 m 532 1101 l 401 1218 l 272 1101 l 190 1101 l 349 1278 l 457 1278 l 615 1101 l 532 1101 z "},"Ș":{"ha":865,"x_min":39,"x_max":807,"o":"m 438 -15 q 226 26 324 -15 q 39 150 129 67 l 104 228 q 269 111 192 146 q 440 76 346 76 q 574 102 515 76 q 667 172 633 128 q 700 274 700 217 q 651 385 700 347 q 483 444 603 424 l 326 471 q 131 552 193 494 q 69 707 69 610 q 112 852 69 789 q 229 951 154 915 q 403 988 304 988 q 604 958 511 988 q 788 864 697 928 l 732 781 q 574 867 657 838 q 404 897 490 897 q 284 874 336 897 q 202 810 232 850 q 172 718 172 769 q 215 618 172 654 q 356 567 258 582 l 511 540 q 737 451 667 513 q 807 279 807 389 q 759 128 807 194 q 628 23 711 61 q 438 -15 544 -15 m 321 -378 l 389 -118 l 490 -118 l 394 -378 l 321 -378 z "},"ẞ":{"ha":922,"x_min":122,"x_max":843,"o":"m 578 -15 q 447 8 513 -15 q 332 71 382 31 l 388 153 q 478 97 429 117 q 576 76 528 76 q 656 95 621 76 q 713 145 692 114 q 735 214 735 176 q 724 284 735 256 q 685 336 713 313 q 606 386 657 360 q 485 466 517 433 q 453 542 453 499 q 465 598 453 572 q 517 674 478 624 l 678 883 l 229 883 l 229 0 l 122 0 l 122 972 l 776 972 l 776 849 l 606 636 q 568 583 579 604 q 557 546 557 561 q 581 505 557 524 q 679 450 606 486 q 843 214 843 371 q 807 99 843 151 q 711 16 771 47 q 578 -15 651 -15 z "},"T":{"ha":857,"x_min":39,"x_max":818,"o":"m 375 0 l 375 878 l 39 878 l 39 972 l 818 972 l 818 878 l 482 878 l 482 0 l 375 0 z "},"Ŧ":{"ha":857,"x_min":39,"x_max":818,"o":"m 375 0 l 375 433 l 161 433 l 161 518 l 375 518 l 375 878 l 39 878 l 39 972 l 818 972 l 818 878 l 482 878 l 482 518 l 696 518 l 696 433 l 482 433 l 482 0 l 375 0 z "},"Ť":{"ha":857,"x_min":39,"x_max":818,"o":"m 375 0 l 375 878 l 39 878 l 39 972 l 818 972 l 818 878 l 482 878 l 482 0 l 375 0 m 300 1281 l 428 1165 l 556 1281 l 640 1281 l 482 1104 l 374 1104 l 215 1281 l 300 1281 z "},"Ţ":{"ha":857,"x_min":39,"x_max":818,"o":"m 417 -332 q 331 -319 369 -332 q 264 -282 292 -307 l 303 -237 q 413 -278 351 -278 q 479 -258 456 -278 q 503 -206 503 -239 q 477 -156 503 -174 q 404 -137 451 -137 l 364 -137 l 399 0 l 375 0 l 375 878 l 39 878 l 39 972 l 818 972 l 818 878 l 482 878 l 482 0 l 457 0 l 436 -92 q 534 -124 497 -94 q 571 -203 571 -154 q 528 -295 571 -258 q 417 -332 485 -332 z "},"Ț":{"ha":857,"x_min":39,"x_max":818,"o":"m 375 0 l 375 878 l 39 878 l 39 972 l 818 972 l 818 878 l 482 878 l 482 0 l 375 0 m 313 -381 l 381 -121 l 482 -121 l 386 -381 l 313 -381 z "},"U":{"ha":989,"x_min":104,"x_max":885,"o":"m 494 -15 q 287 37 375 -15 q 151 185 199 89 q 104 411 104 281 l 104 972 l 211 972 l 211 411 q 246 238 211 311 q 344 123 281 164 q 494 82 408 82 q 644 123 581 82 q 743 238 708 164 q 778 411 778 311 l 778 972 l 885 972 l 885 411 q 838 185 885 281 q 703 37 790 89 q 494 -15 615 -15 z "},"Ú":{"ha":989,"x_min":104,"x_max":885,"o":"m 494 -15 q 287 37 375 -15 q 151 185 199 89 q 104 411 104 281 l 104 972 l 211 972 l 211 411 q 246 238 211 311 q 344 123 281 164 q 494 82 408 82 q 644 123 581 82 q 743 238 708 164 q 778 411 778 311 l 778 972 l 885 972 l 885 411 q 838 185 885 281 q 703 37 790 89 q 494 -15 615 -15 m 406 1106 l 561 1275 l 699 1275 l 499 1106 l 406 1106 z "},"Ŭ":{"ha":989,"x_min":104,"x_max":885,"o":"m 494 -15 q 287 37 375 -15 q 151 185 199 89 q 104 411 104 281 l 104 972 l 211 972 l 211 411 q 246 238 211 311 q 344 123 281 164 q 494 82 408 82 q 644 123 581 82 q 743 238 708 164 q 778 411 778 311 l 778 972 l 885 972 l 885 411 q 838 185 885 281 q 703 37 790 89 q 494 -15 615 -15 m 496 1099 q 353 1145 411 1099 q 275 1274 294 1192 l 346 1290 q 496 1163 378 1163 q 591 1196 553 1163 q 644 1290 629 1229 l 714 1274 q 638 1145 696 1192 q 496 1099 579 1099 z "},"Û":{"ha":989,"x_min":104,"x_max":885,"o":"m 494 -15 q 287 37 375 -15 q 151 185 199 89 q 104 411 104 281 l 104 972 l 211 972 l 211 411 q 246 238 211 311 q 344 123 281 164 q 494 82 408 82 q 644 123 581 82 q 743 238 708 164 q 778 411 778 311 l 778 972 l 885 972 l 885 411 q 838 185 885 281 q 703 37 790 89 q 494 -15 615 -15 m 624 1099 l 493 1215 l 364 1099 l 282 1099 l 440 1275 l 549 1275 l 707 1099 l 624 1099 z "},"Ü":{"ha":989,"x_min":104,"x_max":885,"o":"m 494 -15 q 287 37 375 -15 q 151 185 199 89 q 104 411 104 281 l 104 972 l 211 972 l 211 411 q 246 238 211 311 q 344 123 281 164 q 494 82 408 82 q 644 123 581 82 q 743 238 708 164 q 778 411 778 311 l 778 972 l 885 972 l 885 411 q 838 185 885 281 q 703 37 790 89 q 494 -15 615 -15 m 372 1140 q 320 1162 342 1140 q 299 1213 299 1183 q 320 1263 299 1242 q 372 1285 342 1285 q 424 1263 403 1285 q 446 1213 446 1242 q 424 1162 446 1183 q 372 1140 403 1140 m 617 1140 q 565 1162 586 1140 q 543 1213 543 1183 q 565 1263 543 1242 q 617 1285 586 1285 q 669 1263 647 1285 q 690 1213 690 1242 q 669 1162 690 1183 q 617 1140 647 1140 z "},"Ù":{"ha":989,"x_min":104,"x_max":885,"o":"m 494 -15 q 287 37 375 -15 q 151 185 199 89 q 104 411 104 281 l 104 972 l 211 972 l 211 411 q 246 238 211 311 q 344 123 281 164 q 494 82 408 82 q 644 123 581 82 q 743 238 708 164 q 778 411 778 311 l 778 972 l 885 972 l 885 411 q 838 185 885 281 q 703 37 790 89 q 494 -15 615 -15 m 486 1106 l 286 1275 l 429 1275 l 585 1106 l 486 1106 z "},"Ű":{"ha":989,"x_min":104,"x_max":885,"o":"m 494 -15 q 287 37 375 -15 q 151 185 199 89 q 104 411 104 281 l 104 972 l 211 972 l 211 411 q 246 238 211 311 q 344 123 281 164 q 494 82 408 82 q 644 123 581 82 q 743 238 708 164 q 778 411 778 311 l 778 972 l 885 972 l 885 411 q 838 185 885 281 q 703 37 790 89 q 494 -15 615 -15 m 307 1103 l 486 1275 l 603 1275 l 403 1103 l 307 1103 m 547 1103 l 726 1275 l 844 1275 l 640 1103 l 547 1103 z "},"Ū":{"ha":989,"x_min":104,"x_max":885,"o":"m 494 -15 q 287 37 375 -15 q 151 185 199 89 q 104 411 104 281 l 104 972 l 211 972 l 211 411 q 246 238 211 311 q 344 123 281 164 q 494 82 408 82 q 644 123 581 82 q 743 238 708 164 q 778 411 778 311 l 778 972 l 885 972 l 885 411 q 838 185 885 281 q 703 37 790 89 q 494 -15 615 -15 m 306 1143 l 306 1215 l 683 1215 l 683 1143 l 306 1143 z "},"Ų":{"ha":989,"x_min":104,"x_max":885,"o":"m 547 -321 q 440 -286 481 -321 q 400 -194 400 -251 q 428 -105 400 -147 q 518 -15 456 -62 q 300 30 393 -21 q 156 178 207 81 q 104 411 104 275 l 104 972 l 211 972 l 211 411 q 246 238 211 311 q 344 123 281 164 q 494 82 408 82 q 644 123 581 82 q 743 238 708 164 q 778 411 778 311 l 778 972 l 885 972 l 885 411 q 813 142 885 250 q 614 0 742 35 q 504 -92 539 -49 q 469 -178 469 -135 q 494 -236 469 -215 q 563 -257 519 -257 q 599 -253 581 -257 q 629 -240 617 -249 l 649 -294 q 547 -321 607 -321 z "},"Ů":{"ha":989,"x_min":104,"x_max":885,"o":"m 494 -15 q 287 37 375 -15 q 151 185 199 89 q 104 411 104 281 l 104 972 l 211 972 l 211 411 q 246 238 211 311 q 344 123 281 164 q 494 82 408 82 q 644 123 581 82 q 743 238 708 164 q 778 411 778 311 l 778 972 l 885 972 l 885 411 q 838 185 885 281 q 703 37 790 89 q 494 -15 615 -15 m 494 1089 q 416 1110 451 1089 q 360 1166 381 1131 q 339 1243 339 1201 q 360 1321 339 1286 q 416 1376 381 1356 q 494 1397 451 1397 q 573 1376 538 1397 q 629 1321 608 1356 q 650 1243 650 1286 q 629 1166 650 1201 q 573 1110 608 1131 q 494 1089 538 1089 m 494 1146 q 563 1174 535 1146 q 592 1243 592 1203 q 563 1312 592 1283 q 494 1340 535 1340 q 426 1312 454 1340 q 397 1243 397 1283 q 426 1174 397 1203 q 494 1146 454 1146 z "},"Ũ":{"ha":989,"x_min":104,"x_max":885,"o":"m 494 -15 q 287 37 375 -15 q 151 185 199 89 q 104 411 104 281 l 104 972 l 211 972 l 211 411 q 246 238 211 311 q 344 123 281 164 q 494 82 408 82 q 644 123 581 82 q 743 238 708 164 q 778 411 778 311 l 778 972 l 885 972 l 885 411 q 838 185 885 281 q 703 37 790 89 q 494 -15 615 -15 m 328 1100 l 257 1114 q 311 1222 276 1185 q 396 1258 346 1258 q 472 1238 436 1258 q 538 1196 507 1217 q 597 1175 569 1175 q 634 1194 621 1175 q 661 1264 647 1214 l 732 1250 q 680 1142 714 1179 q 599 1106 646 1106 q 525 1126 560 1106 q 459 1168 490 1147 q 399 1189 428 1189 q 356 1169 372 1189 q 328 1100 340 1149 z "},"V":{"ha":917,"x_min":13,"x_max":904,"o":"m 393 0 l 13 972 l 126 972 l 460 103 l 794 972 l 904 972 l 521 0 l 393 0 z "},"W":{"ha":1246,"x_min":58,"x_max":1188,"o":"m 268 0 l 58 972 l 167 972 l 332 168 l 572 972 l 676 972 l 917 171 l 1083 972 l 1188 972 l 978 0 l 869 0 l 624 825 l 376 0 l 268 0 z "},"Ẃ":{"ha":1246,"x_min":58,"x_max":1188,"o":"m 268 0 l 58 972 l 167 972 l 332 168 l 572 972 l 676 972 l 917 171 l 1083 972 l 1188 972 l 978 0 l 869 0 l 624 825 l 376 0 l 268 0 m 536 1106 l 692 1275 l 829 1275 l 629 1106 l 536 1106 z "},"Ŵ":{"ha":1246,"x_min":58,"x_max":1188,"o":"m 268 0 l 58 972 l 167 972 l 332 168 l 572 972 l 676 972 l 917 171 l 1083 972 l 1188 972 l 978 0 l 869 0 l 624 825 l 376 0 l 268 0 m 754 1099 l 624 1215 l 494 1099 l 413 1099 l 571 1275 l 679 1275 l 838 1099 l 754 1099 z "},"Ẅ":{"ha":1246,"x_min":58,"x_max":1188,"o":"m 268 0 l 58 972 l 167 972 l 332 168 l 572 972 l 676 972 l 917 171 l 1083 972 l 1188 972 l 978 0 l 869 0 l 624 825 l 376 0 l 268 0 m 503 1140 q 451 1162 472 1140 q 429 1213 429 1183 q 451 1263 429 1242 q 503 1285 472 1285 q 555 1263 533 1285 q 576 1213 576 1242 q 555 1162 576 1183 q 503 1140 533 1140 m 747 1140 q 695 1162 717 1140 q 674 1213 674 1183 q 695 1263 674 1242 q 747 1285 717 1285 q 799 1263 778 1285 q 821 1213 821 1242 q 799 1162 821 1183 q 747 1140 778 1140 z "},"Ẁ":{"ha":1246,"x_min":58,"x_max":1188,"o":"m 268 0 l 58 972 l 167 972 l 332 168 l 572 972 l 676 972 l 917 171 l 1083 972 l 1188 972 l 978 0 l 869 0 l 624 825 l 376 0 l 268 0 m 617 1106 l 417 1275 l 560 1275 l 715 1106 l 617 1106 z "},"X":{"ha":908,"x_min":15,"x_max":893,"o":"m 15 0 l 390 503 l 39 972 l 167 972 l 457 582 l 744 972 l 869 972 l 518 501 l 893 0 l 764 0 l 453 424 l 140 0 l 15 0 z "},"Y":{"ha":897,"x_min":17,"x_max":881,"o":"m 394 0 l 394 397 l 17 972 l 142 972 l 451 490 l 763 972 l 881 972 l 501 394 l 501 0 l 394 0 z "},"Ý":{"ha":897,"x_min":17,"x_max":881,"o":"m 394 0 l 394 397 l 17 972 l 142 972 l 451 490 l 763 972 l 881 972 l 501 394 l 501 0 l 394 0 m 364 1106 l 519 1275 l 657 1275 l 457 1106 l 364 1106 z "},"Ŷ":{"ha":897,"x_min":17,"x_max":881,"o":"m 394 0 l 394 397 l 17 972 l 142 972 l 451 490 l 763 972 l 881 972 l 501 394 l 501 0 l 394 0 m 582 1099 l 451 1215 l 322 1099 l 240 1099 l 399 1275 l 507 1275 l 665 1099 l 582 1099 z "},"Ÿ":{"ha":897,"x_min":17,"x_max":881,"o":"m 394 0 l 394 397 l 17 972 l 142 972 l 451 490 l 763 972 l 881 972 l 501 394 l 501 0 l 394 0 m 331 1140 q 278 1162 300 1140 q 257 1213 257 1183 q 278 1263 257 1242 q 331 1285 300 1285 q 383 1263 361 1285 q 404 1213 404 1242 q 383 1162 404 1183 q 331 1140 361 1140 m 575 1140 q 523 1162 544 1140 q 501 1213 501 1183 q 523 1263 501 1242 q 575 1285 544 1285 q 627 1263 606 1285 q 649 1213 649 1242 q 627 1162 649 1183 q 575 1140 606 1140 z "},"Ỳ":{"ha":897,"x_min":17,"x_max":881,"o":"m 394 0 l 394 397 l 17 972 l 142 972 l 451 490 l 763 972 l 881 972 l 501 394 l 501 0 l 394 0 m 444 1106 l 244 1275 l 388 1275 l 543 1106 l 444 1106 z "},"Z":{"ha":840,"x_min":51,"x_max":794,"o":"m 51 0 l 51 75 l 649 882 l 56 879 l 56 972 l 783 972 l 783 897 l 185 90 l 794 93 l 794 0 l 51 0 z "},"Ź":{"ha":840,"x_min":51,"x_max":794,"o":"m 51 0 l 51 75 l 649 882 l 56 879 l 56 972 l 783 972 l 783 897 l 185 90 l 794 93 l 794 0 l 51 0 m 335 1106 l 490 1275 l 628 1275 l 428 1106 l 335 1106 z "},"Ž":{"ha":840,"x_min":51,"x_max":794,"o":"m 51 0 l 51 75 l 649 882 l 56 879 l 56 972 l 783 972 l 783 897 l 185 90 l 794 93 l 794 0 l 51 0 m 296 1281 l 424 1165 l 551 1281 l 636 1281 l 478 1104 l 369 1104 l 211 1281 l 296 1281 z "},"Ż":{"ha":840,"x_min":51,"x_max":794,"o":"m 51 0 l 51 75 l 649 882 l 56 879 l 56 972 l 783 972 l 783 897 l 185 90 l 794 93 l 794 0 l 51 0 m 424 1140 q 372 1162 393 1140 q 350 1213 350 1183 q 372 1263 350 1242 q 424 1285 393 1285 q 476 1263 454 1285 q 497 1213 497 1242 q 476 1162 497 1183 q 424 1140 454 1140 z "},"a":{"ha":731,"x_min":68,"x_max":629,"o":"m 314 -12 q 186 14 242 -12 q 99 87 131 40 q 68 194 68 133 q 100 301 68 256 q 189 371 132 346 q 322 396 246 396 q 433 383 381 396 q 529 343 485 371 l 529 436 q 485 562 529 519 q 354 604 440 604 q 258 590 307 604 q 149 546 208 576 l 111 624 q 367 689 247 689 q 561 627 493 689 q 629 450 629 565 l 629 0 l 529 0 l 529 79 q 431 10 485 33 q 314 -12 376 -12 m 165 197 q 212 101 165 138 q 335 65 258 65 q 440 85 392 65 q 529 143 488 104 l 529 274 q 440 310 486 299 q 338 322 394 322 q 213 288 260 322 q 165 197 165 254 z "},"á":{"ha":731,"x_min":68,"x_max":629,"o":"m 314 -12 q 186 14 242 -12 q 99 87 131 40 q 68 194 68 133 q 100 301 68 256 q 189 371 132 346 q 322 396 246 396 q 433 383 381 396 q 529 343 485 371 l 529 436 q 485 562 529 519 q 354 604 440 604 q 258 590 307 604 q 149 546 208 576 l 111 624 q 367 689 247 689 q 561 627 493 689 q 629 450 629 565 l 629 0 l 529 0 l 529 79 q 431 10 485 33 q 314 -12 376 -12 m 165 197 q 212 101 165 138 q 335 65 258 65 q 440 85 392 65 q 529 143 488 104 l 529 274 q 440 310 486 299 q 338 322 394 322 q 213 288 260 322 q 165 197 165 254 m 278 811 l 433 981 l 571 981 l 371 811 l 278 811 z "},"ă":{"ha":731,"x_min":68,"x_max":629,"o":"m 314 -12 q 186 14 242 -12 q 99 87 131 40 q 68 194 68 133 q 100 301 68 256 q 189 371 132 346 q 322 396 246 396 q 433 383 381 396 q 529 343 485 371 l 529 436 q 485 562 529 519 q 354 604 440 604 q 258 590 307 604 q 149 546 208 576 l 111 624 q 367 689 247 689 q 561 627 493 689 q 629 450 629 565 l 629 0 l 529 0 l 529 79 q 431 10 485 33 q 314 -12 376 -12 m 165 197 q 212 101 165 138 q 335 65 258 65 q 440 85 392 65 q 529 143 488 104 l 529 274 q 440 310 486 299 q 338 322 394 322 q 213 288 260 322 q 165 197 165 254 m 368 804 q 225 851 283 804 q 147 979 167 897 l 218 996 q 368 868 250 868 q 463 901 425 868 q 517 996 501 935 l 586 979 q 510 851 568 897 q 368 804 451 804 z "},"â":{"ha":731,"x_min":68,"x_max":629,"o":"m 314 -12 q 186 14 242 -12 q 99 87 131 40 q 68 194 68 133 q 100 301 68 256 q 189 371 132 346 q 322 396 246 396 q 433 383 381 396 q 529 343 485 371 l 529 436 q 485 562 529 519 q 354 604 440 604 q 258 590 307 604 q 149 546 208 576 l 111 624 q 367 689 247 689 q 561 627 493 689 q 629 450 629 565 l 629 0 l 529 0 l 529 79 q 431 10 485 33 q 314 -12 376 -12 m 165 197 q 212 101 165 138 q 335 65 258 65 q 440 85 392 65 q 529 143 488 104 l 529 274 q 440 310 486 299 q 338 322 394 322 q 213 288 260 322 q 165 197 165 254 m 496 804 l 365 921 l 236 804 l 154 804 l 313 981 l 421 981 l 579 804 l 496 804 z "},"ä":{"ha":731,"x_min":68,"x_max":629,"o":"m 314 -12 q 186 14 242 -12 q 99 87 131 40 q 68 194 68 133 q 100 301 68 256 q 189 371 132 346 q 322 396 246 396 q 433 383 381 396 q 529 343 485 371 l 529 436 q 485 562 529 519 q 354 604 440 604 q 258 590 307 604 q 149 546 208 576 l 111 624 q 367 689 247 689 q 561 627 493 689 q 629 450 629 565 l 629 0 l 529 0 l 529 79 q 431 10 485 33 q 314 -12 376 -12 m 165 197 q 212 101 165 138 q 335 65 258 65 q 440 85 392 65 q 529 143 488 104 l 529 274 q 440 310 486 299 q 338 322 394 322 q 213 288 260 322 q 165 197 165 254 m 244 846 q 192 867 214 846 q 171 918 171 889 q 192 969 171 947 q 244 990 214 990 q 297 969 275 990 q 318 918 318 947 q 297 867 318 889 q 244 846 275 846 m 489 846 q 437 867 458 846 q 415 918 415 889 q 437 969 415 947 q 489 990 458 990 q 541 969 519 990 q 563 918 563 947 q 541 867 563 889 q 489 846 519 846 z "},"à":{"ha":731,"x_min":68,"x_max":629,"o":"m 314 -12 q 186 14 242 -12 q 99 87 131 40 q 68 194 68 133 q 100 301 68 256 q 189 371 132 346 q 322 396 246 396 q 433 383 381 396 q 529 343 485 371 l 529 436 q 485 562 529 519 q 354 604 440 604 q 258 590 307 604 q 149 546 208 576 l 111 624 q 367 689 247 689 q 561 627 493 689 q 629 450 629 565 l 629 0 l 529 0 l 529 79 q 431 10 485 33 q 314 -12 376 -12 m 165 197 q 212 101 165 138 q 335 65 258 65 q 440 85 392 65 q 529 143 488 104 l 529 274 q 440 310 486 299 q 338 322 394 322 q 213 288 260 322 q 165 197 165 254 m 358 811 l 158 981 l 301 981 l 457 811 l 358 811 z "},"ā":{"ha":731,"x_min":68,"x_max":629,"o":"m 314 -12 q 186 14 242 -12 q 99 87 131 40 q 68 194 68 133 q 100 301 68 256 q 189 371 132 346 q 322 396 246 396 q 433 383 381 396 q 529 343 485 371 l 529 436 q 485 562 529 519 q 354 604 440 604 q 258 590 307 604 q 149 546 208 576 l 111 624 q 367 689 247 689 q 561 627 493 689 q 629 450 629 565 l 629 0 l 529 0 l 529 79 q 431 10 485 33 q 314 -12 376 -12 m 165 197 q 212 101 165 138 q 335 65 258 65 q 440 85 392 65 q 529 143 488 104 l 529 274 q 440 310 486 299 q 338 322 394 322 q 213 288 260 322 q 165 197 165 254 m 178 849 l 178 921 l 556 921 l 556 849 l 178 849 z "},"ą":{"ha":731,"x_min":68,"x_max":664,"o":"m 563 -321 q 456 -286 496 -321 q 415 -194 415 -251 q 448 -97 415 -143 q 553 0 481 -51 l 529 0 l 529 79 q 431 10 485 33 q 314 -12 376 -12 q 186 14 242 -12 q 99 87 131 40 q 68 194 68 133 q 100 301 68 256 q 189 371 132 346 q 322 396 246 396 q 433 383 381 396 q 529 343 485 371 l 529 436 q 485 562 529 519 q 354 604 440 604 q 258 590 307 604 q 149 546 208 576 l 111 624 q 367 689 247 689 q 561 627 493 689 q 629 450 629 565 l 629 0 q 519 -92 554 -49 q 485 -178 485 -135 q 510 -236 485 -215 q 578 -257 535 -257 q 614 -253 596 -257 q 644 -240 632 -249 l 664 -294 q 563 -321 622 -321 m 335 65 q 440 85 392 65 q 529 143 488 104 l 529 274 q 440 310 486 299 q 338 322 394 322 q 213 288 260 322 q 165 197 165 254 q 212 101 165 138 q 335 65 258 65 z "},"å":{"ha":731,"x_min":68,"x_max":629,"o":"m 314 -12 q 186 14 242 -12 q 99 87 131 40 q 68 194 68 133 q 100 301 68 256 q 189 371 132 346 q 322 396 246 396 q 433 383 381 396 q 529 343 485 371 l 529 436 q 485 562 529 519 q 354 604 440 604 q 258 590 307 604 q 149 546 208 576 l 111 624 q 367 689 247 689 q 561 627 493 689 q 629 450 629 565 l 629 0 l 529 0 l 529 79 q 431 10 485 33 q 314 -12 376 -12 m 165 197 q 212 101 165 138 q 335 65 258 65 q 440 85 392 65 q 529 143 488 104 l 529 274 q 440 310 486 299 q 338 322 394 322 q 213 288 260 322 q 165 197 165 254 m 367 794 q 288 815 324 794 q 232 872 253 836 q 211 949 211 907 q 232 1026 211 992 q 288 1082 253 1061 q 367 1103 324 1103 q 445 1082 410 1103 q 501 1026 481 1061 q 522 949 522 992 q 501 872 522 907 q 445 815 481 836 q 367 794 410 794 m 367 851 q 435 880 407 851 q 464 949 464 908 q 435 1017 464 989 q 367 1046 407 1046 q 298 1017 326 1046 q 269 949 269 989 q 298 880 269 908 q 367 851 326 851 z "},"ã":{"ha":731,"x_min":68,"x_max":629,"o":"m 314 -12 q 186 14 242 -12 q 99 87 131 40 q 68 194 68 133 q 100 301 68 256 q 189 371 132 346 q 322 396 246 396 q 433 383 381 396 q 529 343 485 371 l 529 436 q 485 562 529 519 q 354 604 440 604 q 258 590 307 604 q 149 546 208 576 l 111 624 q 367 689 247 689 q 561 627 493 689 q 629 450 629 565 l 629 0 l 529 0 l 529 79 q 431 10 485 33 q 314 -12 376 -12 m 165 197 q 212 101 165 138 q 335 65 258 65 q 440 85 392 65 q 529 143 488 104 l 529 274 q 440 310 486 299 q 338 322 394 322 q 213 288 260 322 q 165 197 165 254 m 200 806 l 129 819 q 183 927 149 890 q 268 964 218 964 q 344 943 308 964 q 410 901 379 922 q 469 881 442 881 q 506 900 493 881 q 533 969 519 919 l 604 956 q 552 848 586 885 q 471 811 518 811 q 397 832 432 811 q 331 874 363 853 q 271 894 300 894 q 228 874 244 894 q 200 806 213 854 z "},"æ":{"ha":1231,"x_min":69,"x_max":1161,"o":"m 317 -12 q 188 14 243 -12 q 101 88 132 40 q 69 196 69 135 q 101 301 69 256 q 189 371 132 346 q 322 396 246 396 q 529 344 438 396 l 529 436 q 485 562 529 519 q 354 604 440 604 q 258 590 307 604 q 149 546 208 576 l 111 624 q 367 689 247 689 q 516 656 456 689 q 603 561 576 624 q 710 656 646 622 q 850 689 774 689 q 1009 644 939 689 q 1120 522 1079 599 q 1161 347 1161 444 l 1161 317 l 629 317 q 667 192 635 247 q 753 106 700 138 q 871 75 807 75 q 973 94 924 75 q 1056 144 1022 113 l 1119 76 q 999 8 1061 31 q 865 -14 938 -14 q 711 24 781 -14 q 596 125 642 61 q 472 22 540 57 q 317 -12 403 -12 m 632 389 l 1061 389 q 1024 498 1054 450 q 949 574 994 546 q 849 601 904 601 q 746 574 792 601 q 671 499 700 547 q 632 389 642 451 m 335 65 q 461 96 404 65 q 561 186 518 126 q 535 271 543 224 q 444 311 492 299 q 338 324 396 324 q 213 289 260 324 q 165 197 165 254 q 212 101 165 138 q 335 65 258 65 z "},"b":{"ha":810,"x_min":104,"x_max":736,"o":"m 104 0 l 104 993 l 206 1014 l 206 585 q 300 660 244 633 q 424 686 356 686 q 583 640 513 686 q 694 515 653 593 q 736 339 736 436 q 694 163 736 242 q 580 37 651 83 q 418 -10 508 -10 q 299 16 354 -10 q 204 89 244 42 l 204 0 l 104 0 m 399 78 q 520 112 467 78 q 605 205 574 146 q 636 338 636 264 q 605 471 636 413 q 520 563 574 529 q 399 597 467 597 q 288 573 339 597 q 206 504 238 549 l 206 172 q 290 103 239 128 q 399 78 340 78 z "},"c":{"ha":707,"x_min":74,"x_max":669,"o":"m 408 -11 q 238 35 314 -11 q 118 162 163 82 q 74 339 74 242 q 118 517 74 438 q 238 642 163 596 q 408 689 314 689 q 551 661 483 689 q 669 583 619 633 l 604 513 q 517 575 568 553 q 413 597 465 597 q 292 563 346 597 q 207 469 239 528 q 175 339 175 411 q 207 208 175 267 q 292 115 239 150 q 413 81 346 81 q 517 103 465 81 q 604 165 568 126 l 669 94 q 551 17 619 44 q 408 -11 483 -11 z "},"ć":{"ha":707,"x_min":74,"x_max":669,"o":"m 408 -11 q 238 35 314 -11 q 118 162 163 82 q 74 339 74 242 q 118 517 74 438 q 238 642 163 596 q 408 689 314 689 q 551 661 483 689 q 669 583 619 633 l 604 513 q 517 575 568 553 q 413 597 465 597 q 292 563 346 597 q 207 469 239 528 q 175 339 175 411 q 207 208 175 267 q 292 115 239 150 q 413 81 346 81 q 517 103 465 81 q 604 165 568 126 l 669 94 q 551 17 619 44 q 408 -11 483 -11 m 321 811 l 476 981 l 614 981 l 414 811 l 321 811 z "},"č":{"ha":707,"x_min":74,"x_max":669,"o":"m 408 -11 q 238 35 314 -11 q 118 162 163 82 q 74 339 74 242 q 118 517 74 438 q 238 642 163 596 q 408 689 314 689 q 551 661 483 689 q 669 583 619 633 l 604 513 q 517 575 568 553 q 413 597 465 597 q 292 563 346 597 q 207 469 239 528 q 175 339 175 411 q 207 208 175 267 q 292 115 239 150 q 413 81 346 81 q 517 103 465 81 q 604 165 568 126 l 669 94 q 551 17 619 44 q 408 -11 483 -11 m 282 986 l 410 871 l 538 986 l 622 986 l 464 810 l 356 810 l 197 986 l 282 986 z "},"ç":{"ha":707,"x_min":74,"x_max":669,"o":"m 400 -322 q 314 -310 353 -322 q 247 -272 275 -297 l 286 -228 q 396 -268 335 -268 q 463 -249 439 -268 q 486 -196 486 -229 q 460 -146 486 -164 q 388 -128 435 -128 l 347 -128 l 376 -10 q 222 47 290 -1 q 113 171 153 94 q 74 339 74 247 q 118 517 74 438 q 238 642 163 596 q 408 689 314 689 q 551 661 483 689 q 669 583 619 633 l 604 513 q 517 575 568 553 q 413 597 465 597 q 292 563 346 597 q 207 469 239 528 q 175 339 175 411 q 207 208 175 267 q 292 115 239 150 q 413 81 346 81 q 517 103 465 81 q 604 165 568 126 l 669 94 q 563 22 624 49 q 436 -10 503 -6 l 419 -82 q 517 -115 481 -85 q 554 -193 554 -144 q 511 -285 554 -249 q 400 -322 468 -322 z "},"ĉ":{"ha":707,"x_min":74,"x_max":669,"o":"m 408 -11 q 238 35 314 -11 q 118 162 163 82 q 74 339 74 242 q 118 517 74 438 q 238 642 163 596 q 408 689 314 689 q 551 661 483 689 q 669 583 619 633 l 604 513 q 517 575 568 553 q 413 597 465 597 q 292 563 346 597 q 207 469 239 528 q 175 339 175 411 q 207 208 175 267 q 292 115 239 150 q 413 81 346 81 q 517 103 465 81 q 604 165 568 126 l 669 94 q 551 17 619 44 q 408 -11 483 -11 m 539 804 l 408 921 l 279 804 l 197 804 l 356 981 l 464 981 l 622 804 l 539 804 z "},"ċ":{"ha":707,"x_min":74,"x_max":669,"o":"m 408 -11 q 238 35 314 -11 q 118 162 163 82 q 74 339 74 242 q 118 517 74 438 q 238 642 163 596 q 408 689 314 689 q 551 661 483 689 q 669 583 619 633 l 604 513 q 517 575 568 553 q 413 597 465 597 q 292 563 346 597 q 207 469 239 528 q 175 339 175 411 q 207 208 175 267 q 292 115 239 150 q 413 81 346 81 q 517 103 465 81 q 604 165 568 126 l 669 94 q 551 17 619 44 q 408 -11 483 -11 m 410 846 q 358 867 379 846 q 336 918 336 889 q 358 969 336 947 q 410 990 379 990 q 462 969 440 990 q 483 918 483 947 q 462 867 483 889 q 410 846 440 846 z "},"d":{"ha":808,"x_min":74,"x_max":704,"o":"m 386 -10 q 228 37 299 -10 q 115 162 157 83 q 74 338 74 240 q 116 515 74 436 q 231 640 158 593 q 392 686 303 686 q 508 662 454 686 q 603 592 563 638 l 603 1003 l 704 1024 l 704 0 l 603 0 l 603 90 q 508 16 564 42 q 386 -10 453 -10 m 411 79 q 521 103 471 79 q 603 169 571 126 l 603 506 q 519 573 569 549 q 411 597 468 597 q 290 564 343 597 q 205 472 236 531 q 174 339 174 414 q 205 206 174 265 q 290 113 236 147 q 411 79 343 79 z "},"ď":{"ha":917,"x_min":74,"x_max":915,"o":"m 386 -10 q 228 37 299 -10 q 115 162 157 83 q 74 338 74 240 q 116 515 74 436 q 231 640 158 593 q 392 686 303 686 q 508 662 454 686 q 603 592 563 638 l 603 1003 l 704 1024 l 704 0 l 603 0 l 603 90 q 508 16 564 42 q 386 -10 453 -10 m 411 79 q 521 103 471 79 q 603 169 571 126 l 603 506 q 519 573 569 549 q 411 597 468 597 q 290 564 343 597 q 205 472 236 531 q 174 339 174 414 q 205 206 174 265 q 290 113 236 147 q 411 79 343 79 m 803 732 l 810 1003 l 915 1024 l 881 732 l 803 732 z "},"đ":{"ha":817,"x_min":74,"x_max":789,"o":"m 386 -10 q 228 37 299 -10 q 115 162 157 83 q 74 338 74 240 q 116 515 74 436 q 231 640 158 593 q 392 686 303 686 q 508 662 454 686 q 603 592 563 638 l 603 796 l 400 796 l 400 871 l 603 871 l 603 1003 l 704 1024 l 704 871 l 789 871 l 789 796 l 704 796 l 704 0 l 603 0 l 603 90 q 508 16 564 42 q 386 -10 453 -10 m 411 79 q 521 103 471 79 q 603 169 571 126 l 603 506 q 519 573 569 549 q 411 597 468 597 q 290 564 343 597 q 205 472 236 531 q 174 339 174 414 q 205 206 174 265 q 290 113 236 147 q 411 79 343 79 z "},"ð":{"ha":819,"x_min":72,"x_max":742,"o":"m 401 -14 q 235 32 310 -14 q 116 156 160 78 q 72 331 72 235 q 113 501 72 426 q 225 618 154 575 q 385 661 296 661 q 542 617 474 661 q 646 503 611 574 q 595 688 633 604 q 496 832 557 772 l 364 746 l 324 804 l 442 881 q 374 922 410 904 q 297 951 338 939 l 339 1024 q 435 984 390 1007 q 518 931 479 961 l 661 1024 l 699 965 l 572 882 q 699 676 656 797 q 742 401 742 554 q 699 183 742 276 q 581 38 657 90 q 401 -14 504 -14 m 404 75 q 524 108 471 75 q 606 199 576 142 q 636 328 636 257 q 606 457 636 400 q 524 547 576 514 q 404 581 471 581 q 285 547 338 581 q 203 457 233 514 q 172 328 172 400 q 203 199 172 257 q 285 108 233 142 q 404 75 338 75 z "},"e":{"ha":774,"x_min":74,"x_max":704,"o":"m 410 -14 q 239 33 315 -14 q 118 159 163 79 q 74 339 74 239 q 116 518 74 439 q 231 643 158 597 q 393 689 303 689 q 552 644 482 689 q 663 522 622 599 q 704 347 704 444 l 704 317 l 172 317 q 210 192 178 247 q 297 106 243 138 q 414 75 350 75 q 516 94 467 75 q 600 144 565 113 l 664 76 q 543 8 606 31 q 410 -14 481 -14 m 175 389 l 604 389 q 567 498 597 450 q 492 574 538 546 q 392 601 447 601 q 290 574 336 601 q 215 499 244 547 q 175 389 185 451 z "},"é":{"ha":774,"x_min":74,"x_max":704,"o":"m 410 -14 q 239 33 315 -14 q 118 159 163 79 q 74 339 74 239 q 116 518 74 439 q 231 643 158 597 q 393 689 303 689 q 552 644 482 689 q 663 522 622 599 q 704 347 704 444 l 704 317 l 172 317 q 210 192 178 247 q 297 106 243 138 q 414 75 350 75 q 516 94 467 75 q 600 144 565 113 l 664 76 q 543 8 606 31 q 410 -14 481 -14 m 175 389 l 604 389 q 567 498 597 450 q 492 574 538 546 q 392 601 447 601 q 290 574 336 601 q 215 499 244 547 q 175 389 185 451 m 310 811 l 465 981 l 603 981 l 403 811 l 310 811 z "},"ĕ":{"ha":774,"x_min":74,"x_max":704,"o":"m 410 -14 q 239 33 315 -14 q 118 159 163 79 q 74 339 74 239 q 116 518 74 439 q 231 643 158 597 q 393 689 303 689 q 552 644 482 689 q 663 522 622 599 q 704 347 704 444 l 704 317 l 172 317 q 210 192 178 247 q 297 106 243 138 q 414 75 350 75 q 516 94 467 75 q 600 144 565 113 l 664 76 q 543 8 606 31 q 410 -14 481 -14 m 175 389 l 604 389 q 567 498 597 450 q 492 574 538 546 q 392 601 447 601 q 290 574 336 601 q 215 499 244 547 q 175 389 185 451 m 400 804 q 257 851 315 804 q 179 979 199 897 l 250 996 q 400 868 282 868 q 495 901 457 868 q 549 996 533 935 l 618 979 q 542 851 600 897 q 400 804 483 804 z "},"ě":{"ha":774,"x_min":74,"x_max":704,"o":"m 410 -14 q 239 33 315 -14 q 118 159 163 79 q 74 339 74 239 q 116 518 74 439 q 231 643 158 597 q 393 689 303 689 q 552 644 482 689 q 663 522 622 599 q 704 347 704 444 l 704 317 l 172 317 q 210 192 178 247 q 297 106 243 138 q 414 75 350 75 q 516 94 467 75 q 600 144 565 113 l 664 76 q 543 8 606 31 q 410 -14 481 -14 m 175 389 l 604 389 q 567 498 597 450 q 492 574 538 546 q 392 601 447 601 q 290 574 336 601 q 215 499 244 547 q 175 389 185 451 m 271 986 l 399 871 l 526 986 l 611 986 l 453 810 l 344 810 l 186 986 l 271 986 z "},"ê":{"ha":774,"x_min":74,"x_max":704,"o":"m 410 -14 q 239 33 315 -14 q 118 159 163 79 q 74 339 74 239 q 116 518 74 439 q 231 643 158 597 q 393 689 303 689 q 552 644 482 689 q 663 522 622 599 q 704 347 704 444 l 704 317 l 172 317 q 210 192 178 247 q 297 106 243 138 q 414 75 350 75 q 516 94 467 75 q 600 144 565 113 l 664 76 q 543 8 606 31 q 410 -14 481 -14 m 175 389 l 604 389 q 567 498 597 450 q 492 574 538 546 q 392 601 447 601 q 290 574 336 601 q 215 499 244 547 q 175 389 185 451 m 528 804 l 397 921 l 268 804 l 186 804 l 344 981 l 453 981 l 611 804 l 528 804 z "},"ë":{"ha":774,"x_min":74,"x_max":704,"o":"m 410 -14 q 239 33 315 -14 q 118 159 163 79 q 74 339 74 239 q 116 518 74 439 q 231 643 158 597 q 393 689 303 689 q 552 644 482 689 q 663 522 622 599 q 704 347 704 444 l 704 317 l 172 317 q 210 192 178 247 q 297 106 243 138 q 414 75 350 75 q 516 94 467 75 q 600 144 565 113 l 664 76 q 543 8 606 31 q 410 -14 481 -14 m 175 389 l 604 389 q 567 498 597 450 q 492 574 538 546 q 392 601 447 601 q 290 574 336 601 q 215 499 244 547 q 175 389 185 451 m 276 846 q 224 867 246 846 q 203 918 203 889 q 224 969 203 947 q 276 990 246 990 q 328 969 307 990 q 350 918 350 947 q 328 867 350 889 q 276 846 307 846 m 521 846 q 469 867 490 846 q 447 918 447 889 q 469 969 447 947 q 521 990 490 990 q 573 969 551 990 q 594 918 594 947 q 573 867 594 889 q 521 846 551 846 z "},"ė":{"ha":774,"x_min":74,"x_max":704,"o":"m 410 -14 q 239 33 315 -14 q 118 159 163 79 q 74 339 74 239 q 116 518 74 439 q 231 643 158 597 q 393 689 303 689 q 552 644 482 689 q 663 522 622 599 q 704 347 704 444 l 704 317 l 172 317 q 210 192 178 247 q 297 106 243 138 q 414 75 350 75 q 516 94 467 75 q 600 144 565 113 l 664 76 q 543 8 606 31 q 410 -14 481 -14 m 175 389 l 604 389 q 567 498 597 450 q 492 574 538 546 q 392 601 447 601 q 290 574 336 601 q 215 499 244 547 q 175 389 185 451 m 399 846 q 347 867 368 846 q 325 918 325 889 q 347 969 325 947 q 399 990 368 990 q 451 969 429 990 q 472 918 472 947 q 451 867 472 889 q 399 846 429 846 z "},"è":{"ha":774,"x_min":74,"x_max":704,"o":"m 410 -14 q 239 33 315 -14 q 118 159 163 79 q 74 339 74 239 q 116 518 74 439 q 231 643 158 597 q 393 689 303 689 q 552 644 482 689 q 663 522 622 599 q 704 347 704 444 l 704 317 l 172 317 q 210 192 178 247 q 297 106 243 138 q 414 75 350 75 q 516 94 467 75 q 600 144 565 113 l 664 76 q 543 8 606 31 q 410 -14 481 -14 m 175 389 l 604 389 q 567 498 597 450 q 492 574 538 546 q 392 601 447 601 q 290 574 336 601 q 215 499 244 547 q 175 389 185 451 m 390 811 l 190 981 l 333 981 l 489 811 l 390 811 z "},"ē":{"ha":774,"x_min":74,"x_max":704,"o":"m 410 -14 q 239 33 315 -14 q 118 159 163 79 q 74 339 74 239 q 116 518 74 439 q 231 643 158 597 q 393 689 303 689 q 552 644 482 689 q 663 522 622 599 q 704 347 704 444 l 704 317 l 172 317 q 210 192 178 247 q 297 106 243 138 q 414 75 350 75 q 516 94 467 75 q 600 144 565 113 l 664 76 q 543 8 606 31 q 410 -14 481 -14 m 175 389 l 604 389 q 567 498 597 450 q 492 574 538 546 q 392 601 447 601 q 290 574 336 601 q 215 499 244 547 q 175 389 185 451 m 210 849 l 210 921 l 588 921 l 588 849 l 210 849 z "},"ę":{"ha":774,"x_min":74,"x_max":704,"o":"m 449 -321 q 342 -286 382 -321 q 301 -194 301 -251 q 329 -103 301 -146 q 419 -14 357 -61 q 245 29 324 -17 q 120 156 167 75 q 74 339 74 238 q 116 518 74 439 q 231 643 158 597 q 393 689 303 689 q 552 644 482 689 q 663 522 622 599 q 704 347 704 444 l 704 317 l 172 317 q 210 192 178 247 q 297 106 243 138 q 414 75 350 75 q 516 94 467 75 q 600 144 565 113 l 664 76 q 514 0 594 21 q 406 -92 440 -49 q 371 -178 371 -135 q 396 -236 371 -215 q 464 -257 421 -257 q 500 -253 482 -257 q 531 -240 518 -249 l 550 -294 q 449 -321 508 -321 m 175 389 l 604 389 q 567 498 597 450 q 492 574 538 546 q 392 601 447 601 q 290 574 336 601 q 215 499 244 547 q 175 389 185 451 z "},"f":{"ha":514,"x_min":39,"x_max":485,"o":"m 190 0 l 190 594 l 39 594 l 39 678 l 190 678 l 190 819 q 243 974 190 919 q 393 1028 296 1028 q 444 1025 421 1028 q 485 1015 467 1022 l 485 924 q 444 933 463 931 q 403 936 426 936 q 318 908 344 936 q 292 818 292 879 l 292 678 l 485 678 l 485 594 l 292 594 l 292 0 l 190 0 z "},"g":{"ha":808,"x_min":74,"x_max":704,"o":"m 418 -304 q 281 -285 350 -304 q 154 -233 213 -267 l 197 -156 q 311 -203 260 -187 q 414 -218 363 -218 q 555 -174 507 -218 q 603 -44 603 -129 l 603 92 q 508 17 564 43 q 386 -8 453 -8 q 228 38 299 -8 q 115 163 157 85 q 74 339 74 242 q 116 515 74 436 q 231 640 158 593 q 392 686 303 686 q 510 662 456 686 q 604 590 564 638 l 604 678 l 704 678 l 704 -43 q 631 -237 704 -169 q 418 -304 557 -304 m 411 79 q 521 103 471 79 q 603 171 571 128 l 603 506 q 519 573 569 549 q 411 597 468 597 q 290 564 343 597 q 205 472 236 531 q 174 339 174 414 q 205 206 174 265 q 290 113 236 147 q 411 79 343 79 z "},"ğ":{"ha":808,"x_min":74,"x_max":704,"o":"m 418 -304 q 281 -285 350 -304 q 154 -233 213 -267 l 197 -156 q 311 -203 260 -187 q 414 -218 363 -218 q 555 -174 507 -218 q 603 -44 603 -129 l 603 92 q 508 17 564 43 q 386 -8 453 -8 q 228 38 299 -8 q 115 163 157 85 q 74 339 74 242 q 116 515 74 436 q 231 640 158 593 q 392 686 303 686 q 510 662 456 686 q 604 590 564 638 l 604 678 l 704 678 l 704 -43 q 631 -237 704 -169 q 418 -304 557 -304 m 411 79 q 521 103 471 79 q 603 171 571 128 l 603 506 q 519 573 569 549 q 411 597 468 597 q 290 564 343 597 q 205 472 236 531 q 174 339 174 414 q 205 206 174 265 q 290 113 236 147 q 411 79 343 79 m 399 804 q 256 851 314 804 q 178 979 197 897 l 249 996 q 399 868 281 868 q 494 901 456 868 q 547 996 532 935 l 617 979 q 540 851 599 897 q 399 804 482 804 z "},"ĝ":{"ha":808,"x_min":74,"x_max":704,"o":"m 418 -304 q 281 -285 350 -304 q 154 -233 213 -267 l 197 -156 q 311 -203 260 -187 q 414 -218 363 -218 q 555 -174 507 -218 q 603 -44 603 -129 l 603 92 q 508 17 564 43 q 386 -8 453 -8 q 228 38 299 -8 q 115 163 157 85 q 74 339 74 242 q 116 515 74 436 q 231 640 158 593 q 392 686 303 686 q 510 662 456 686 q 604 590 564 638 l 604 678 l 704 678 l 704 -43 q 631 -237 704 -169 q 418 -304 557 -304 m 411 79 q 521 103 471 79 q 603 171 571 128 l 603 506 q 519 573 569 549 q 411 597 468 597 q 290 564 343 597 q 205 472 236 531 q 174 339 174 414 q 205 206 174 265 q 290 113 236 147 q 411 79 343 79 m 526 804 l 396 921 l 267 804 l 185 804 l 343 981 l 451 981 l 610 804 l 526 804 z "},"ģ":{"ha":808,"x_min":74,"x_max":704,"o":"m 532 1107 l 464 847 l 363 847 l 458 1107 l 532 1107 m 418 -304 q 281 -285 350 -304 q 154 -233 213 -267 l 197 -156 q 311 -203 260 -187 q 414 -218 363 -218 q 555 -174 507 -218 q 603 -44 603 -129 l 603 92 q 508 17 564 43 q 386 -8 453 -8 q 228 38 299 -8 q 115 163 157 85 q 74 339 74 242 q 116 515 74 436 q 231 640 158 593 q 392 686 303 686 q 510 662 456 686 q 604 590 564 638 l 604 678 l 704 678 l 704 -43 q 631 -237 704 -169 q 418 -304 557 -304 m 411 79 q 521 103 471 79 q 603 171 571 128 l 603 506 q 519 573 569 549 q 411 597 468 597 q 290 564 343 597 q 205 472 236 531 q 174 339 174 414 q 205 206 174 265 q 290 113 236 147 q 411 79 343 79 z "},"ġ":{"ha":808,"x_min":74,"x_max":704,"o":"m 418 -304 q 281 -285 350 -304 q 154 -233 213 -267 l 197 -156 q 311 -203 260 -187 q 414 -218 363 -218 q 555 -174 507 -218 q 603 -44 603 -129 l 603 92 q 508 17 564 43 q 386 -8 453 -8 q 228 38 299 -8 q 115 163 157 85 q 74 339 74 242 q 116 515 74 436 q 231 640 158 593 q 392 686 303 686 q 510 662 456 686 q 604 590 564 638 l 604 678 l 704 678 l 704 -43 q 631 -237 704 -169 q 418 -304 557 -304 m 411 79 q 521 103 471 79 q 603 171 571 128 l 603 506 q 519 573 569 549 q 411 597 468 597 q 290 564 343 597 q 205 472 236 531 q 174 339 174 414 q 205 206 174 265 q 290 113 236 147 q 411 79 343 79 m 397 846 q 345 867 367 846 q 324 918 324 889 q 345 969 324 947 q 397 990 367 990 q 449 969 428 990 q 471 918 471 947 q 449 867 471 889 q 397 846 428 846 z "},"h":{"ha":767,"x_min":104,"x_max":667,"o":"m 104 0 l 104 1003 l 206 1024 l 206 568 q 299 659 244 629 q 421 689 353 689 q 549 658 494 689 q 635 570 604 626 q 667 439 667 514 l 667 0 l 565 0 l 565 410 q 516 552 565 500 q 383 604 467 604 q 282 578 328 604 q 206 500 236 551 l 206 0 l 104 0 z "},"ħ":{"ha":775,"x_min":28,"x_max":675,"o":"m 113 0 l 113 796 l 28 796 l 28 871 l 113 871 l 113 1003 l 214 1024 l 214 871 l 415 871 l 415 796 l 214 796 l 214 568 q 307 659 253 629 q 429 689 361 689 q 558 658 503 689 q 644 570 613 626 q 675 439 675 514 l 675 0 l 574 0 l 574 410 q 524 552 574 500 q 392 604 475 604 q 290 578 336 604 q 214 500 244 551 l 214 0 l 113 0 z "},"ĥ":{"ha":767,"x_min":-58,"x_max":667,"o":"m 104 0 l 104 1003 l 206 1024 l 206 568 q 299 659 244 629 q 421 689 353 689 q 549 658 494 689 q 635 570 604 626 q 667 439 667 514 l 667 0 l 565 0 l 565 410 q 516 552 565 500 q 383 604 467 604 q 282 578 328 604 q 206 500 236 551 l 206 0 l 104 0 m 283 1099 l 153 1215 l 24 1099 l -58 1099 l 100 1275 l 208 1275 l 367 1099 l 283 1099 z "},"i":{"ha":308,"x_min":81,"x_max":228,"o":"m 103 0 l 103 678 l 204 678 l 204 0 l 103 0 m 154 846 q 102 867 124 846 q 81 918 81 889 q 102 969 81 947 q 154 990 124 990 q 206 969 185 990 q 228 918 228 947 q 206 867 228 889 q 154 846 185 846 z "},"ı":{"ha":310,"x_min":104,"x_max":206,"o":"m 104 0 l 104 678 l 206 678 l 206 0 l 104 0 z "},"í":{"ha":310,"x_min":67,"x_max":360,"o":"m 104 0 l 104 678 l 206 678 l 206 0 l 104 0 m 67 811 l 222 981 l 360 981 l 160 811 l 67 811 z "},"ĭ":{"ha":310,"x_min":-64,"x_max":375,"o":"m 104 0 l 104 678 l 206 678 l 206 0 l 104 0 m 157 804 q 14 851 72 804 q -64 979 -44 897 l 7 996 q 157 868 39 868 q 252 901 214 868 q 306 996 290 935 l 375 979 q 299 851 357 897 q 157 804 240 804 z "},"î":{"ha":310,"x_min":-57,"x_max":368,"o":"m 104 0 l 104 678 l 206 678 l 206 0 l 104 0 m 285 804 l 154 921 l 25 804 l -57 804 l 101 981 l 210 981 l 368 804 l 285 804 z "},"ï":{"ha":310,"x_min":-40,"x_max":351,"o":"m 104 0 l 104 678 l 206 678 l 206 0 l 104 0 m 33 846 q -19 867 3 846 q -40 918 -40 889 q -19 969 -40 947 q 33 990 3 990 q 85 969 64 990 q 107 918 107 947 q 85 867 107 889 q 33 846 64 846 m 278 846 q 226 867 247 846 q 204 918 204 889 q 226 969 204 947 q 278 990 247 990 q 330 969 308 990 q 351 918 351 947 q 330 867 351 889 q 278 846 308 846 z "},"ì":{"ha":310,"x_min":-53,"x_max":246,"o":"m 104 0 l 104 678 l 206 678 l 206 0 l 104 0 m 147 811 l -53 981 l 90 981 l 246 811 l 147 811 z "},"ī":{"ha":310,"x_min":-33,"x_max":344,"o":"m 104 0 l 104 678 l 206 678 l 206 0 l 104 0 m -33 849 l -33 921 l 344 921 l 344 849 l -33 849 z "},"į":{"ha":308,"x_min":-10,"x_max":239,"o":"m 154 846 q 102 867 124 846 q 81 918 81 889 q 102 969 81 947 q 154 990 124 990 q 206 969 185 990 q 228 918 228 947 q 206 867 228 889 q 154 846 185 846 m 138 -321 q 31 -286 71 -321 q -10 -194 -10 -251 q 23 -97 -10 -143 q 128 0 56 -51 l 103 0 l 103 678 l 204 678 l 204 0 q 94 -92 129 -49 q 60 -178 60 -135 q 85 -236 60 -215 q 153 -257 110 -257 q 189 -253 171 -257 q 219 -240 207 -249 l 239 -294 q 138 -321 197 -321 z "},"ĩ":{"ha":310,"x_min":-82,"x_max":393,"o":"m 104 0 l 104 678 l 206 678 l 206 0 l 104 0 m -11 806 l -82 819 q -28 927 -62 890 q 57 964 7 964 q 133 943 97 964 q 199 901 168 922 q 258 881 231 881 q 295 900 282 881 q 322 969 308 919 l 393 956 q 341 848 375 885 q 260 811 307 811 q 186 832 221 811 q 120 874 151 853 q 60 894 89 894 q 17 874 33 894 q -11 806 1 854 z "},"ĳ":{"ha":618,"x_min":81,"x_max":538,"o":"m 103 0 l 103 678 l 204 678 l 204 0 l 103 0 m 154 846 q 102 867 124 846 q 81 918 81 889 q 102 969 81 947 q 154 990 124 990 q 206 969 185 990 q 228 918 228 947 q 206 867 228 889 q 154 846 185 846 m 464 846 q 412 867 433 846 q 390 918 390 889 q 412 969 390 947 q 464 990 433 990 q 516 969 494 990 q 538 918 538 947 q 516 867 538 889 q 464 846 494 846 m 343 -304 q 310 -301 326 -304 q 281 -296 294 -299 l 281 -208 q 305 -212 293 -211 q 331 -214 317 -214 q 394 -193 375 -214 q 413 -125 413 -172 l 413 678 l 514 678 l 514 -131 q 470 -258 514 -212 q 343 -304 426 -304 z "},"j":{"ha":310,"x_min":-28,"x_max":229,"o":"m 156 846 q 103 867 125 846 q 82 918 82 889 q 103 969 82 947 q 156 990 125 990 q 208 969 186 990 q 229 918 229 947 q 208 867 229 889 q 156 846 186 846 m 35 -304 q 2 -301 18 -304 q -28 -296 -14 -299 l -28 -208 q -3 -212 -15 -211 q 22 -214 8 -214 q 85 -193 67 -214 q 104 -125 104 -172 l 104 678 l 206 678 l 206 -131 q 162 -258 206 -212 q 35 -304 118 -304 z "},"ȷ":{"ha":310,"x_min":-28,"x_max":206,"o":"m 35 -304 q 2 -301 18 -304 q -28 -296 -14 -299 l -28 -208 q -3 -212 -15 -211 q 22 -214 8 -214 q 85 -193 67 -214 q 104 -125 104 -172 l 104 678 l 206 678 l 206 -131 q 161 -258 206 -212 q 35 -304 117 -304 z "},"ĵ":{"ha":310,"x_min":-57,"x_max":368,"o":"m 35 -304 q 2 -301 18 -304 q -28 -296 -14 -299 l -28 -208 q -3 -212 -15 -211 q 22 -214 8 -214 q 85 -193 67 -214 q 104 -125 104 -172 l 104 678 l 206 678 l 206 -131 q 161 -258 206 -212 q 35 -304 117 -304 m 285 804 l 154 921 l 25 804 l -57 804 l 101 981 l 210 981 l 368 804 l 285 804 z "},"k":{"ha":679,"x_min":104,"x_max":665,"o":"m 104 0 l 104 1003 l 206 1024 l 206 374 l 528 678 l 650 678 l 306 356 l 665 0 l 532 0 l 206 324 l 206 0 l 104 0 z "},"ķ":{"ha":679,"x_min":104,"x_max":665,"o":"m 104 0 l 104 1003 l 206 1024 l 206 374 l 528 678 l 650 678 l 306 356 l 665 0 l 532 0 l 206 324 l 206 0 l 104 0 m 221 -381 l 289 -121 l 390 -121 l 294 -381 l 221 -381 z "},"ĸ":{"ha":679,"x_min":104,"x_max":665,"o":"m 104 0 l 104 678 l 206 678 l 206 374 l 528 678 l 650 678 l 306 356 l 665 0 l 532 0 l 206 324 l 206 0 l 104 0 z "},"l":{"ha":310,"x_min":104,"x_max":206,"o":"m 104 0 l 104 1003 l 206 1024 l 206 0 l 104 0 z "},"ĺ":{"ha":310,"x_min":65,"x_max":358,"o":"m 104 0 l 104 1003 l 206 1024 l 206 0 l 104 0 m 65 1106 l 221 1275 l 358 1275 l 158 1106 l 65 1106 z "},"ľ":{"ha":424,"x_min":125,"x_max":438,"o":"m 125 0 l 125 1003 l 226 1024 l 226 0 l 125 0 m 325 732 l 332 1003 l 438 1024 l 403 732 l 325 732 z "},"ļ":{"ha":310,"x_min":39,"x_max":208,"o":"m 104 0 l 104 1003 l 206 1024 l 206 0 l 104 0 m 39 -381 l 107 -121 l 208 -121 l 113 -381 l 39 -381 z "},"ł":{"ha":390,"x_min":13,"x_max":378,"o":"m 146 0 l 146 422 l 13 317 l 13 422 l 146 528 l 146 1003 l 247 1024 l 247 608 l 378 711 l 378 607 l 247 503 l 247 0 l 146 0 z "},"m":{"ha":1174,"x_min":104,"x_max":1072,"o":"m 104 0 l 104 678 l 206 678 l 206 572 q 294 660 244 631 q 407 689 344 689 q 533 653 479 689 q 615 557 588 618 q 712 656 656 622 q 842 689 768 689 q 962 657 910 689 q 1043 569 1014 625 q 1072 438 1072 513 l 1072 0 l 971 0 l 971 413 q 926 553 971 501 q 804 604 882 604 q 709 578 751 604 q 635 497 667 551 q 639 468 638 483 q 640 438 640 453 l 640 0 l 539 0 l 539 413 q 494 553 539 501 q 371 604 449 604 q 206 504 267 604 l 206 0 l 104 0 z "},"n":{"ha":767,"x_min":104,"x_max":667,"o":"m 104 0 l 104 678 l 206 678 l 206 568 q 299 659 244 629 q 421 689 353 689 q 549 658 494 689 q 635 570 604 626 q 667 439 667 514 l 667 0 l 565 0 l 565 410 q 516 552 565 500 q 383 604 467 604 q 282 578 328 604 q 206 500 236 551 l 206 0 l 104 0 z "},"ń":{"ha":767,"x_min":104,"x_max":667,"o":"m 104 0 l 104 678 l 206 678 l 206 568 q 299 659 244 629 q 421 689 353 689 q 549 658 494 689 q 635 570 604 626 q 667 439 667 514 l 667 0 l 565 0 l 565 410 q 516 552 565 500 q 383 604 467 604 q 282 578 328 604 q 206 500 236 551 l 206 0 l 104 0 m 296 811 l 451 981 l 589 981 l 389 811 l 296 811 z "},"ň":{"ha":767,"x_min":104,"x_max":667,"o":"m 104 0 l 104 678 l 206 678 l 206 568 q 299 659 244 629 q 421 689 353 689 q 549 658 494 689 q 635 570 604 626 q 667 439 667 514 l 667 0 l 565 0 l 565 410 q 516 552 565 500 q 383 604 467 604 q 282 578 328 604 q 206 500 236 551 l 206 0 l 104 0 m 257 986 l 385 871 l 513 986 l 597 986 l 439 810 l 331 810 l 172 986 l 257 986 z "},"ņ":{"ha":767,"x_min":104,"x_max":667,"o":"m 104 0 l 104 678 l 206 678 l 206 568 q 299 659 244 629 q 421 689 353 689 q 549 658 494 689 q 635 570 604 626 q 667 439 667 514 l 667 0 l 565 0 l 565 410 q 516 552 565 500 q 383 604 467 604 q 282 578 328 604 q 206 500 236 551 l 206 0 l 104 0 m 269 -381 l 338 -121 l 439 -121 l 343 -381 l 269 -381 z "},"ñ":{"ha":767,"x_min":104,"x_max":667,"o":"m 104 0 l 104 678 l 206 678 l 206 568 q 299 659 244 629 q 421 689 353 689 q 549 658 494 689 q 635 570 604 626 q 667 439 667 514 l 667 0 l 565 0 l 565 410 q 516 552 565 500 q 383 604 467 604 q 282 578 328 604 q 206 500 236 551 l 206 0 l 104 0 m 218 806 l 147 819 q 201 927 167 890 q 286 964 236 964 q 362 943 326 964 q 428 901 397 922 q 488 881 460 881 q 524 900 511 881 q 551 969 538 919 l 622 956 q 570 848 604 885 q 489 811 536 811 q 415 832 450 811 q 349 874 381 853 q 289 894 318 894 q 247 874 263 894 q 218 806 231 854 z "},"ŋ":{"ha":767,"x_min":104,"x_max":667,"o":"m 496 -304 q 467 -302 482 -304 q 433 -296 453 -300 l 433 -207 q 458 -211 446 -210 q 483 -212 469 -212 q 547 -192 528 -212 q 565 -124 565 -171 l 565 410 q 516 552 565 500 q 383 604 467 604 q 282 578 328 604 q 206 500 236 551 l 206 0 l 104 0 l 104 678 l 206 678 l 206 568 q 299 659 244 629 q 421 689 353 689 q 549 658 494 689 q 635 570 604 626 q 667 439 667 514 l 667 -129 q 622 -259 667 -214 q 496 -304 578 -304 z "},"o":{"ha":806,"x_min":74,"x_max":732,"o":"m 403 -11 q 235 35 310 -11 q 117 160 160 81 q 74 339 74 239 q 117 518 74 439 q 235 643 160 597 q 403 689 310 689 q 572 643 497 689 q 689 518 646 597 q 732 339 732 439 q 689 160 732 239 q 572 35 646 81 q 403 -11 497 -11 m 403 78 q 521 112 469 78 q 602 206 572 146 q 632 339 632 265 q 602 473 632 414 q 521 566 572 532 q 403 600 469 600 q 285 566 336 600 q 203 473 233 532 q 174 339 174 414 q 203 206 174 265 q 285 112 233 146 q 403 78 336 78 z "},"ó":{"ha":806,"x_min":74,"x_max":732,"o":"m 403 -11 q 235 35 310 -11 q 117 160 160 81 q 74 339 74 239 q 117 518 74 439 q 235 643 160 597 q 403 689 310 689 q 572 643 497 689 q 689 518 646 597 q 732 339 732 439 q 689 160 732 239 q 572 35 646 81 q 403 -11 497 -11 m 403 78 q 521 112 469 78 q 602 206 572 146 q 632 339 632 265 q 602 473 632 414 q 521 566 572 532 q 403 600 469 600 q 285 566 336 600 q 203 473 233 532 q 174 339 174 414 q 203 206 174 265 q 285 112 233 146 q 403 78 336 78 m 314 811 l 469 981 l 607 981 l 407 811 l 314 811 z "},"ŏ":{"ha":806,"x_min":74,"x_max":732,"o":"m 403 -11 q 235 35 310 -11 q 117 160 160 81 q 74 339 74 239 q 117 518 74 439 q 235 643 160 597 q 403 689 310 689 q 572 643 497 689 q 689 518 646 597 q 732 339 732 439 q 689 160 732 239 q 572 35 646 81 q 403 -11 497 -11 m 403 78 q 521 112 469 78 q 602 206 572 146 q 632 339 632 265 q 602 473 632 414 q 521 566 572 532 q 403 600 469 600 q 285 566 336 600 q 203 473 233 532 q 174 339 174 414 q 203 206 174 265 q 285 112 233 146 q 403 78 336 78 m 404 804 q 261 851 319 804 q 183 979 203 897 l 254 996 q 404 868 286 868 q 499 901 461 868 q 553 996 538 935 l 622 979 q 546 851 604 897 q 404 804 488 804 z "},"ô":{"ha":806,"x_min":74,"x_max":732,"o":"m 403 -11 q 235 35 310 -11 q 117 160 160 81 q 74 339 74 239 q 117 518 74 439 q 235 643 160 597 q 403 689 310 689 q 572 643 497 689 q 689 518 646 597 q 732 339 732 439 q 689 160 732 239 q 572 35 646 81 q 403 -11 497 -11 m 403 78 q 521 112 469 78 q 602 206 572 146 q 632 339 632 265 q 602 473 632 414 q 521 566 572 532 q 403 600 469 600 q 285 566 336 600 q 203 473 233 532 q 174 339 174 414 q 203 206 174 265 q 285 112 233 146 q 403 78 336 78 m 532 804 l 401 921 l 272 804 l 190 804 l 349 981 l 457 981 l 615 804 l 532 804 z "},"ö":{"ha":806,"x_min":74,"x_max":732,"o":"m 403 -11 q 235 35 310 -11 q 117 160 160 81 q 74 339 74 239 q 117 518 74 439 q 235 643 160 597 q 403 689 310 689 q 572 643 497 689 q 689 518 646 597 q 732 339 732 439 q 689 160 732 239 q 572 35 646 81 q 403 -11 497 -11 m 403 78 q 521 112 469 78 q 602 206 572 146 q 632 339 632 265 q 602 473 632 414 q 521 566 572 532 q 403 600 469 600 q 285 566 336 600 q 203 473 233 532 q 174 339 174 414 q 203 206 174 265 q 285 112 233 146 q 403 78 336 78 m 281 846 q 228 867 250 846 q 207 918 207 889 q 228 969 207 947 q 281 990 250 990 q 333 969 311 990 q 354 918 354 947 q 333 867 354 889 q 281 846 311 846 m 525 846 q 473 867 494 846 q 451 918 451 889 q 473 969 451 947 q 525 990 494 990 q 577 969 556 990 q 599 918 599 947 q 577 867 599 889 q 525 846 556 846 z "},"ò":{"ha":806,"x_min":74,"x_max":732,"o":"m 403 -11 q 235 35 310 -11 q 117 160 160 81 q 74 339 74 239 q 117 518 74 439 q 235 643 160 597 q 403 689 310 689 q 572 643 497 689 q 689 518 646 597 q 732 339 732 439 q 689 160 732 239 q 572 35 646 81 q 403 -11 497 -11 m 403 78 q 521 112 469 78 q 602 206 572 146 q 632 339 632 265 q 602 473 632 414 q 521 566 572 532 q 403 600 469 600 q 285 566 336 600 q 203 473 233 532 q 174 339 174 414 q 203 206 174 265 q 285 112 233 146 q 403 78 336 78 m 394 811 l 194 981 l 338 981 l 493 811 l 394 811 z "},"ő":{"ha":806,"x_min":74,"x_max":753,"o":"m 403 -11 q 235 35 310 -11 q 117 160 160 81 q 74 339 74 239 q 117 518 74 439 q 235 643 160 597 q 403 689 310 689 q 572 643 497 689 q 689 518 646 597 q 732 339 732 439 q 689 160 732 239 q 572 35 646 81 q 403 -11 497 -11 m 403 78 q 521 112 469 78 q 602 206 572 146 q 632 339 632 265 q 602 473 632 414 q 521 566 572 532 q 403 600 469 600 q 285 566 336 600 q 203 473 233 532 q 174 339 174 414 q 203 206 174 265 q 285 112 233 146 q 403 78 336 78 m 215 808 l 394 981 l 511 981 l 311 808 l 215 808 m 456 808 l 635 981 l 753 981 l 549 808 l 456 808 z "},"ō":{"ha":806,"x_min":74,"x_max":732,"o":"m 403 -11 q 235 35 310 -11 q 117 160 160 81 q 74 339 74 239 q 117 518 74 439 q 235 643 160 597 q 403 689 310 689 q 572 643 497 689 q 689 518 646 597 q 732 339 732 439 q 689 160 732 239 q 572 35 646 81 q 403 -11 497 -11 m 403 78 q 521 112 469 78 q 602 206 572 146 q 632 339 632 265 q 602 473 632 414 q 521 566 572 532 q 403 600 469 600 q 285 566 336 600 q 203 473 233 532 q 174 339 174 414 q 203 206 174 265 q 285 112 233 146 q 403 78 336 78 m 214 849 l 214 921 l 592 921 l 592 849 l 214 849 z "},"ø":{"ha":806,"x_min":74,"x_max":732,"o":"m 403 -11 q 298 6 347 -11 q 208 53 249 22 l 164 0 l 79 0 l 160 97 q 97 206 119 144 q 74 339 74 267 q 117 518 74 439 q 235 643 160 597 q 403 689 310 689 q 509 672 460 689 q 599 624 558 656 l 643 678 l 728 678 l 646 579 q 709 472 686 533 q 732 339 732 411 q 689 160 732 239 q 572 35 646 81 q 403 -11 497 -11 m 224 172 l 539 553 q 476 588 511 575 q 403 600 442 600 q 285 566 336 600 q 203 473 233 532 q 174 339 174 414 q 187 249 174 292 q 224 172 200 206 m 403 78 q 521 112 469 78 q 602 206 572 146 q 632 339 632 265 q 619 429 632 388 q 583 504 607 471 l 268 125 q 330 90 296 103 q 403 78 364 78 z "},"õ":{"ha":806,"x_min":74,"x_max":732,"o":"m 403 -11 q 235 35 310 -11 q 117 160 160 81 q 74 339 74 239 q 117 518 74 439 q 235 643 160 597 q 403 689 310 689 q 572 643 497 689 q 689 518 646 597 q 732 339 732 439 q 689 160 732 239 q 572 35 646 81 q 403 -11 497 -11 m 403 78 q 521 112 469 78 q 602 206 572 146 q 632 339 632 265 q 602 473 632 414 q 521 566 572 532 q 403 600 469 600 q 285 566 336 600 q 203 473 233 532 q 174 339 174 414 q 203 206 174 265 q 285 112 233 146 q 403 78 336 78 m 236 806 l 165 819 q 219 927 185 890 q 304 964 254 964 q 380 943 344 964 q 447 901 415 922 q 506 881 478 881 q 542 900 529 881 q 569 969 556 919 l 640 956 q 588 848 622 885 q 507 811 554 811 q 433 832 468 811 q 367 874 399 853 q 307 894 336 894 q 265 874 281 894 q 236 806 249 854 z "},"œ":{"ha":1333,"x_min":74,"x_max":1264,"o":"m 403 -11 q 235 35 310 -11 q 117 160 160 81 q 74 339 74 239 q 117 518 74 439 q 235 643 160 597 q 403 689 310 689 q 568 642 494 689 q 682 517 642 594 q 793 642 722 594 q 953 689 864 689 q 1112 644 1042 689 q 1223 522 1182 599 q 1264 347 1264 444 l 1264 317 l 732 317 q 770 192 738 247 q 856 106 803 138 q 974 75 910 75 q 1076 94 1026 75 q 1160 144 1125 113 l 1224 76 q 1103 8 1165 31 q 969 -14 1040 -14 q 799 34 875 -14 q 683 163 724 82 q 569 36 643 83 q 403 -11 496 -11 m 403 78 q 521 112 469 78 q 602 206 572 146 q 632 339 632 265 q 602 473 632 414 q 521 566 572 532 q 403 600 469 600 q 285 566 336 600 q 203 473 233 532 q 174 339 174 414 q 203 206 174 265 q 285 112 233 146 q 403 78 336 78 m 735 389 l 1164 389 q 1127 498 1157 450 q 1052 574 1097 546 q 951 601 1007 601 q 850 574 896 601 q 774 499 804 547 q 735 389 744 451 z "},"p":{"ha":810,"x_min":104,"x_max":736,"o":"m 104 -290 l 104 678 l 204 678 l 204 581 q 299 659 243 632 q 424 686 356 686 q 583 640 513 686 q 694 515 653 593 q 736 339 736 436 q 694 163 736 242 q 580 37 651 83 q 418 -10 508 -10 q 300 15 354 -10 q 206 85 246 39 l 206 -290 l 104 -290 m 399 78 q 520 112 467 78 q 605 205 574 146 q 636 338 636 264 q 605 471 636 413 q 520 563 574 529 q 399 597 467 597 q 288 573 339 597 q 206 504 238 549 l 206 172 q 290 103 239 128 q 399 78 340 78 z "},"þ":{"ha":810,"x_min":104,"x_max":736,"o":"m 104 -290 l 104 1003 l 206 1024 l 206 583 q 300 659 244 632 q 424 686 356 686 q 583 640 513 686 q 694 515 653 593 q 736 339 736 436 q 694 163 736 242 q 580 37 651 83 q 418 -10 508 -10 q 300 15 354 -10 q 206 85 246 39 l 206 -290 l 104 -290 m 399 597 q 288 573 339 597 q 206 504 238 549 l 206 172 q 290 103 239 128 q 399 78 340 78 q 520 112 467 78 q 605 205 574 146 q 636 338 636 264 q 605 471 636 413 q 520 563 574 529 q 399 597 467 597 z "},"q":{"ha":808,"x_min":74,"x_max":704,"o":"m 603 -290 l 603 90 q 508 16 564 42 q 386 -10 453 -10 q 228 37 299 -10 q 115 162 157 83 q 74 338 74 240 q 116 515 74 436 q 231 640 158 593 q 392 686 303 686 q 508 662 454 686 q 603 592 563 638 l 603 678 l 704 678 l 704 -290 l 603 -290 m 411 79 q 521 103 471 79 q 603 169 571 126 l 603 506 q 519 573 569 549 q 411 597 468 597 q 290 564 343 597 q 205 472 236 531 q 174 339 174 414 q 205 206 174 265 q 290 113 236 147 q 411 79 343 79 z "},"r":{"ha":489,"x_min":104,"x_max":458,"o":"m 104 0 l 104 678 l 206 678 l 206 539 q 281 649 232 610 q 394 689 331 689 q 428 687 413 689 q 458 679 443 685 l 458 588 q 423 597 442 593 q 388 600 404 600 q 278 564 325 600 q 206 463 232 528 l 206 0 l 104 0 z "},"ŕ":{"ha":489,"x_min":104,"x_max":463,"o":"m 104 0 l 104 678 l 206 678 l 206 539 q 281 649 232 610 q 394 689 331 689 q 428 687 413 689 q 458 679 443 685 l 458 588 q 423 597 442 593 q 388 600 404 600 q 278 564 325 600 q 206 463 232 528 l 206 0 l 104 0 m 169 811 l 325 981 l 463 981 l 263 811 l 169 811 z "},"ř":{"ha":489,"x_min":46,"x_max":471,"o":"m 104 0 l 104 678 l 206 678 l 206 539 q 281 649 232 610 q 394 689 331 689 q 428 687 413 689 q 458 679 443 685 l 458 588 q 423 597 442 593 q 388 600 404 600 q 278 564 325 600 q 206 463 232 528 l 206 0 l 104 0 m 131 986 l 258 871 l 386 986 l 471 986 l 313 810 l 204 810 l 46 986 l 131 986 z "},"ŗ":{"ha":489,"x_min":42,"x_max":458,"o":"m 104 0 l 104 678 l 206 678 l 206 539 q 281 649 232 610 q 394 689 331 689 q 428 687 413 689 q 458 679 443 685 l 458 588 q 423 597 442 593 q 388 600 404 600 q 278 564 325 600 q 206 463 232 528 l 206 0 l 104 0 m 42 -381 l 110 -121 l 211 -121 l 115 -381 l 42 -381 z "},"s":{"ha":628,"x_min":39,"x_max":578,"o":"m 314 -14 q 160 12 231 -14 q 39 86 89 38 l 93 153 q 206 88 154 108 q 311 68 257 68 q 433 103 385 68 q 482 192 482 138 q 453 257 482 233 q 360 293 425 281 l 249 313 q 103 374 150 331 q 57 490 57 417 q 88 593 57 549 q 175 663 119 638 q 301 689 231 689 q 433 669 371 689 q 560 604 496 649 l 510 533 q 404 588 457 571 q 297 606 351 606 q 190 576 231 606 q 150 497 150 547 q 176 433 150 456 q 267 400 201 411 l 381 379 q 531 317 483 361 q 578 197 578 272 q 543 90 578 138 q 449 14 508 42 q 314 -14 389 -14 z "},"ś":{"ha":628,"x_min":39,"x_max":578,"o":"m 314 -14 q 160 12 231 -14 q 39 86 89 38 l 93 153 q 206 88 154 108 q 311 68 257 68 q 433 103 385 68 q 482 192 482 138 q 453 257 482 233 q 360 293 425 281 l 249 313 q 103 374 150 331 q 57 490 57 417 q 88 593 57 549 q 175 663 119 638 q 301 689 231 689 q 433 669 371 689 q 560 604 496 649 l 510 533 q 404 588 457 571 q 297 606 351 606 q 190 576 231 606 q 150 497 150 547 q 176 433 150 456 q 267 400 201 411 l 381 379 q 531 317 483 361 q 578 197 578 272 q 543 90 578 138 q 449 14 508 42 q 314 -14 389 -14 m 211 811 l 367 981 l 504 981 l 304 811 l 211 811 z "},"š":{"ha":628,"x_min":39,"x_max":578,"o":"m 314 -14 q 160 12 231 -14 q 39 86 89 38 l 93 153 q 206 88 154 108 q 311 68 257 68 q 433 103 385 68 q 482 192 482 138 q 453 257 482 233 q 360 293 425 281 l 249 313 q 103 374 150 331 q 57 490 57 417 q 88 593 57 549 q 175 663 119 638 q 301 689 231 689 q 433 669 371 689 q 560 604 496 649 l 510 533 q 404 588 457 571 q 297 606 351 606 q 190 576 231 606 q 150 497 150 547 q 176 433 150 456 q 267 400 201 411 l 381 379 q 531 317 483 361 q 578 197 578 272 q 543 90 578 138 q 449 14 508 42 q 314 -14 389 -14 m 172 986 l 300 871 l 428 986 l 513 986 l 354 810 l 246 810 l 88 986 l 172 986 z "},"ş":{"ha":628,"x_min":39,"x_max":578,"o":"m 303 -332 q 217 -319 256 -332 q 150 -282 178 -307 l 189 -237 q 299 -278 238 -278 q 365 -258 342 -278 q 389 -206 389 -239 q 363 -156 389 -174 q 290 -137 338 -137 l 250 -137 l 282 -12 q 39 86 131 -4 l 93 153 q 206 88 154 108 q 311 68 257 68 q 433 103 385 68 q 482 192 482 138 q 453 257 482 233 q 360 293 425 281 l 249 313 q 103 374 150 331 q 57 490 57 417 q 88 593 57 549 q 175 663 119 638 q 301 689 231 689 q 433 669 371 689 q 560 604 496 649 l 510 533 q 404 588 457 571 q 297 606 351 606 q 190 576 231 606 q 150 497 150 547 q 176 433 150 456 q 267 400 201 411 l 381 379 q 531 317 483 361 q 578 197 578 272 q 547 96 578 142 q 462 22 515 50 q 340 -12 408 -7 l 322 -92 q 420 -124 383 -94 q 457 -203 457 -154 q 414 -295 457 -258 q 303 -332 371 -332 z "},"ŝ":{"ha":628,"x_min":39,"x_max":578,"o":"m 314 -14 q 160 12 231 -14 q 39 86 89 38 l 93 153 q 206 88 154 108 q 311 68 257 68 q 433 103 385 68 q 482 192 482 138 q 453 257 482 233 q 360 293 425 281 l 249 313 q 103 374 150 331 q 57 490 57 417 q 88 593 57 549 q 175 663 119 638 q 301 689 231 689 q 433 669 371 689 q 560 604 496 649 l 510 533 q 404 588 457 571 q 297 606 351 606 q 190 576 231 606 q 150 497 150 547 q 176 433 150 456 q 267 400 201 411 l 381 379 q 531 317 483 361 q 578 197 578 272 q 543 90 578 138 q 449 14 508 42 q 314 -14 389 -14 m 429 804 l 299 921 l 169 804 l 88 804 l 246 981 l 354 981 l 513 804 l 429 804 z "},"ș":{"ha":628,"x_min":39,"x_max":578,"o":"m 314 -14 q 160 12 231 -14 q 39 86 89 38 l 93 153 q 206 88 154 108 q 311 68 257 68 q 433 103 385 68 q 482 192 482 138 q 453 257 482 233 q 360 293 425 281 l 249 313 q 103 374 150 331 q 57 490 57 417 q 88 593 57 549 q 175 663 119 638 q 301 689 231 689 q 433 669 371 689 q 560 604 496 649 l 510 533 q 404 588 457 571 q 297 606 351 606 q 190 576 231 606 q 150 497 150 547 q 176 433 150 456 q 267 400 201 411 l 381 379 q 531 317 483 361 q 578 197 578 272 q 543 90 578 138 q 449 14 508 42 q 314 -14 389 -14 m 199 -381 l 267 -121 l 368 -121 l 272 -381 l 199 -381 z "},"ß":{"ha":822,"x_min":104,"x_max":786,"o":"m 546 -15 q 314 69 408 -15 l 371 136 q 544 65 446 65 q 650 100 610 65 q 690 192 690 135 q 665 269 690 240 q 582 319 640 297 l 492 354 q 413 396 443 374 q 370 447 383 418 q 357 515 357 476 q 379 595 357 564 q 434 649 401 626 q 499 691 467 671 q 553 737 531 711 q 575 803 575 763 q 526 897 575 860 q 403 935 478 935 q 256 871 307 935 q 206 697 206 807 l 206 0 l 104 0 l 104 696 q 140 869 104 796 q 242 983 175 943 q 401 1024 308 1024 q 544 994 483 1024 q 638 915 604 965 q 671 800 671 864 q 649 714 671 749 q 594 655 626 679 q 528 610 561 631 q 474 568 496 590 q 451 515 451 546 q 469 469 451 486 q 538 432 486 453 l 622 399 q 747 317 707 365 q 786 194 786 268 q 719 43 786 101 q 546 -15 653 -15 z "},"t":{"ha":525,"x_min":44,"x_max":481,"o":"m 363 -14 q 230 28 275 -14 q 185 151 185 71 l 185 594 l 44 594 l 44 678 l 185 678 l 185 864 l 286 888 l 286 678 l 481 678 l 481 594 l 286 594 l 286 178 q 309 100 286 124 q 385 76 332 76 q 432 81 411 76 q 481 94 453 85 l 481 4 q 422 -10 453 -6 q 363 -14 392 -14 z "},"ŧ":{"ha":525,"x_min":44,"x_max":481,"o":"m 363 -14 q 230 28 275 -14 q 185 151 185 71 l 185 349 l 44 349 l 44 424 l 185 424 l 185 594 l 44 594 l 44 678 l 185 678 l 185 864 l 286 888 l 286 678 l 481 678 l 481 594 l 286 594 l 286 424 l 481 424 l 481 349 l 286 349 l 286 178 q 309 100 286 124 q 385 76 332 76 q 432 81 411 76 q 481 94 453 85 l 481 4 q 422 -10 453 -6 q 363 -14 392 -14 z "},"ť":{"ha":525,"x_min":44,"x_max":519,"o":"m 407 815 l 414 1072 l 519 1093 l 485 815 l 407 815 m 363 -14 q 230 28 275 -14 q 185 151 185 71 l 185 594 l 44 594 l 44 678 l 185 678 l 185 864 l 286 888 l 286 678 l 481 678 l 481 594 l 286 594 l 286 178 q 309 100 286 124 q 385 76 332 76 q 432 81 411 76 q 481 94 453 85 l 481 4 q 422 -10 453 -6 q 363 -14 392 -14 z "},"ţ":{"ha":525,"x_min":44,"x_max":481,"o":"m 314 -332 q 228 -319 267 -332 q 161 -282 189 -307 l 200 -237 q 310 -278 249 -278 q 376 -258 353 -278 q 400 -206 400 -239 q 374 -156 400 -174 q 301 -137 349 -137 l 261 -137 l 294 -6 q 185 151 185 24 l 185 594 l 44 594 l 44 678 l 185 678 l 185 864 l 286 888 l 286 678 l 481 678 l 481 594 l 286 594 l 286 178 q 309 100 286 124 q 385 76 332 76 q 432 81 411 76 q 481 94 453 85 l 481 4 q 422 -10 453 -6 q 363 -14 392 -14 q 357 -14 360 -14 q 351 -14 354 -14 l 333 -92 q 431 -124 394 -94 q 468 -203 468 -154 q 425 -295 468 -258 q 314 -332 382 -332 z "},"ț":{"ha":525,"x_min":44,"x_max":481,"o":"m 363 -14 q 230 28 275 -14 q 185 151 185 71 l 185 594 l 44 594 l 44 678 l 185 678 l 185 864 l 286 888 l 286 678 l 481 678 l 481 594 l 286 594 l 286 178 q 309 100 286 124 q 385 76 332 76 q 432 81 411 76 q 481 94 453 85 l 481 4 q 422 -10 453 -6 q 363 -14 392 -14 m 210 -381 l 278 -121 l 379 -121 l 283 -381 l 210 -381 z "},"u":{"ha":767,"x_min":100,"x_max":663,"o":"m 346 -11 q 218 21 274 -11 q 131 110 163 53 q 100 240 100 167 l 100 678 l 203 678 l 203 269 q 251 126 203 179 q 383 74 300 74 q 485 100 440 74 q 561 176 531 126 l 561 678 l 663 678 l 663 0 l 561 0 l 561 110 q 469 19 522 50 q 346 -11 415 -11 z "},"ú":{"ha":767,"x_min":100,"x_max":663,"o":"m 346 -11 q 218 21 274 -11 q 131 110 163 53 q 100 240 100 167 l 100 678 l 203 678 l 203 269 q 251 126 203 179 q 383 74 300 74 q 485 100 440 74 q 561 176 531 126 l 561 678 l 663 678 l 663 0 l 561 0 l 561 110 q 469 19 522 50 q 346 -11 415 -11 m 294 811 l 450 981 l 588 981 l 388 811 l 294 811 z "},"ŭ":{"ha":767,"x_min":100,"x_max":663,"o":"m 346 -11 q 218 21 274 -11 q 131 110 163 53 q 100 240 100 167 l 100 678 l 203 678 l 203 269 q 251 126 203 179 q 383 74 300 74 q 485 100 440 74 q 561 176 531 126 l 561 678 l 663 678 l 663 0 l 561 0 l 561 110 q 469 19 522 50 q 346 -11 415 -11 m 385 804 q 242 851 300 804 q 164 979 183 897 l 235 996 q 385 868 267 868 q 480 901 442 868 q 533 996 518 935 l 603 979 q 526 851 585 897 q 385 804 468 804 z "},"û":{"ha":767,"x_min":100,"x_max":663,"o":"m 346 -11 q 218 21 274 -11 q 131 110 163 53 q 100 240 100 167 l 100 678 l 203 678 l 203 269 q 251 126 203 179 q 383 74 300 74 q 485 100 440 74 q 561 176 531 126 l 561 678 l 663 678 l 663 0 l 561 0 l 561 110 q 469 19 522 50 q 346 -11 415 -11 m 513 804 l 382 921 l 253 804 l 171 804 l 329 981 l 438 981 l 596 804 l 513 804 z "},"ü":{"ha":767,"x_min":100,"x_max":663,"o":"m 346 -11 q 218 21 274 -11 q 131 110 163 53 q 100 240 100 167 l 100 678 l 203 678 l 203 269 q 251 126 203 179 q 383 74 300 74 q 485 100 440 74 q 561 176 531 126 l 561 678 l 663 678 l 663 0 l 561 0 l 561 110 q 469 19 522 50 q 346 -11 415 -11 m 261 846 q 209 867 231 846 q 188 918 188 889 q 209 969 188 947 q 261 990 231 990 q 313 969 292 990 q 335 918 335 947 q 313 867 335 889 q 261 846 292 846 m 506 846 q 453 867 475 846 q 432 918 432 889 q 453 969 432 947 q 506 990 475 990 q 558 969 536 990 q 579 918 579 947 q 558 867 579 889 q 506 846 536 846 z "},"ù":{"ha":767,"x_min":100,"x_max":663,"o":"m 346 -11 q 218 21 274 -11 q 131 110 163 53 q 100 240 100 167 l 100 678 l 203 678 l 203 269 q 251 126 203 179 q 383 74 300 74 q 485 100 440 74 q 561 176 531 126 l 561 678 l 663 678 l 663 0 l 561 0 l 561 110 q 469 19 522 50 q 346 -11 415 -11 m 375 811 l 175 981 l 318 981 l 474 811 l 375 811 z "},"ű":{"ha":767,"x_min":100,"x_max":733,"o":"m 346 -11 q 218 21 274 -11 q 131 110 163 53 q 100 240 100 167 l 100 678 l 203 678 l 203 269 q 251 126 203 179 q 383 74 300 74 q 485 100 440 74 q 561 176 531 126 l 561 678 l 663 678 l 663 0 l 561 0 l 561 110 q 469 19 522 50 q 346 -11 415 -11 m 196 808 l 375 981 l 492 981 l 292 808 l 196 808 m 436 808 l 615 981 l 733 981 l 529 808 l 436 808 z "},"ū":{"ha":767,"x_min":100,"x_max":663,"o":"m 346 -11 q 218 21 274 -11 q 131 110 163 53 q 100 240 100 167 l 100 678 l 203 678 l 203 269 q 251 126 203 179 q 383 74 300 74 q 485 100 440 74 q 561 176 531 126 l 561 678 l 663 678 l 663 0 l 561 0 l 561 110 q 469 19 522 50 q 346 -11 415 -11 m 194 849 l 194 921 l 572 921 l 572 849 l 194 849 z "},"ų":{"ha":767,"x_min":100,"x_max":697,"o":"m 596 -321 q 489 -286 529 -321 q 449 -194 449 -251 q 481 -97 449 -143 q 586 0 514 -51 l 561 0 l 561 110 q 469 19 522 50 q 346 -11 415 -11 q 218 21 274 -11 q 131 110 163 53 q 100 240 100 167 l 100 678 l 203 678 l 203 269 q 251 126 203 179 q 383 74 300 74 q 485 100 440 74 q 561 176 531 126 l 561 678 l 663 678 l 663 0 q 553 -92 588 -49 q 518 -178 518 -135 q 543 -236 518 -215 q 611 -257 568 -257 q 647 -253 629 -257 q 678 -240 665 -249 l 697 -294 q 596 -321 656 -321 z "},"ů":{"ha":767,"x_min":100,"x_max":663,"o":"m 346 -11 q 218 21 274 -11 q 131 110 163 53 q 100 240 100 167 l 100 678 l 203 678 l 203 269 q 251 126 203 179 q 383 74 300 74 q 485 100 440 74 q 561 176 531 126 l 561 678 l 663 678 l 663 0 l 561 0 l 561 110 q 469 19 522 50 q 346 -11 415 -11 m 383 794 q 305 815 340 794 q 249 872 269 836 q 228 949 228 907 q 249 1026 228 992 q 305 1082 269 1061 q 383 1103 340 1103 q 462 1082 426 1103 q 518 1026 497 1061 q 539 949 539 992 q 518 872 539 907 q 462 815 497 836 q 383 794 426 794 m 383 851 q 452 880 424 851 q 481 949 481 908 q 452 1017 481 989 q 383 1046 424 1046 q 315 1017 343 1046 q 286 949 286 989 q 315 880 286 908 q 383 851 343 851 z "},"ũ":{"ha":767,"x_min":100,"x_max":663,"o":"m 346 -11 q 218 21 274 -11 q 131 110 163 53 q 100 240 100 167 l 100 678 l 203 678 l 203 269 q 251 126 203 179 q 383 74 300 74 q 485 100 440 74 q 561 176 531 126 l 561 678 l 663 678 l 663 0 l 561 0 l 561 110 q 469 19 522 50 q 346 -11 415 -11 m 217 806 l 146 819 q 200 927 165 890 q 285 964 235 964 q 360 943 325 964 q 427 901 396 922 q 486 881 458 881 q 523 900 510 881 q 550 969 536 919 l 621 956 q 569 848 603 885 q 488 811 535 811 q 414 832 449 811 q 348 874 379 853 q 288 894 317 894 q 245 874 261 894 q 217 806 229 854 z "},"v":{"ha":696,"x_min":21,"x_max":675,"o":"m 299 0 l 21 678 l 131 678 l 350 126 l 567 678 l 675 678 l 396 0 l 299 0 z "},"w":{"ha":969,"x_min":39,"x_max":931,"o":"m 225 0 l 39 678 l 138 678 l 279 136 l 442 678 l 532 678 l 694 136 l 835 678 l 931 678 l 746 0 l 647 0 l 486 547 l 325 0 l 225 0 z "},"ẃ":{"ha":969,"x_min":39,"x_max":931,"o":"m 225 0 l 39 678 l 138 678 l 279 136 l 442 678 l 532 678 l 694 136 l 835 678 l 931 678 l 746 0 l 647 0 l 486 547 l 325 0 l 225 0 m 397 811 l 553 981 l 690 981 l 490 811 l 397 811 z "},"ŵ":{"ha":969,"x_min":39,"x_max":931,"o":"m 225 0 l 39 678 l 138 678 l 279 136 l 442 678 l 532 678 l 694 136 l 835 678 l 931 678 l 746 0 l 647 0 l 486 547 l 325 0 l 225 0 m 615 804 l 485 921 l 356 804 l 274 804 l 432 981 l 540 981 l 699 804 l 615 804 z "},"ẅ":{"ha":969,"x_min":39,"x_max":931,"o":"m 225 0 l 39 678 l 138 678 l 279 136 l 442 678 l 532 678 l 694 136 l 835 678 l 931 678 l 746 0 l 647 0 l 486 547 l 325 0 l 225 0 m 364 846 q 312 867 333 846 q 290 918 290 889 q 312 969 290 947 q 364 990 333 990 q 416 969 394 990 q 438 918 438 947 q 416 867 438 889 q 364 846 394 846 m 608 846 q 556 867 578 846 q 535 918 535 889 q 556 969 535 947 q 608 990 578 990 q 660 969 639 990 q 682 918 682 947 q 660 867 682 889 q 608 846 639 846 z "},"ẁ":{"ha":969,"x_min":39,"x_max":931,"o":"m 225 0 l 39 678 l 138 678 l 279 136 l 442 678 l 532 678 l 694 136 l 835 678 l 931 678 l 746 0 l 647 0 l 486 547 l 325 0 l 225 0 m 478 811 l 278 981 l 421 981 l 576 811 l 478 811 z "},"x":{"ha":676,"x_min":18,"x_max":658,"o":"m 18 0 l 278 351 l 33 678 l 154 678 l 342 419 l 528 678 l 643 678 l 397 349 l 658 0 l 538 0 l 335 276 l 133 0 l 18 0 z "},"y":{"ha":692,"x_min":21,"x_max":669,"o":"m 133 -304 q 68 -294 101 -304 l 68 -204 q 97 -208 82 -207 q 124 -210 113 -210 q 188 -189 163 -210 q 232 -124 214 -168 l 282 0 l 21 678 l 133 678 l 339 121 l 557 678 l 669 678 l 328 -154 q 279 -242 306 -208 q 218 -290 253 -275 q 133 -304 183 -304 z "},"ý":{"ha":692,"x_min":21,"x_max":669,"o":"m 133 -304 q 68 -294 101 -304 l 68 -204 q 97 -208 82 -207 q 124 -210 113 -210 q 188 -189 163 -210 q 232 -124 214 -168 l 282 0 l 21 678 l 133 678 l 339 121 l 557 678 l 669 678 l 328 -154 q 279 -242 306 -208 q 218 -290 253 -275 q 133 -304 183 -304 m 257 811 l 413 981 l 550 981 l 350 811 l 257 811 z "},"ŷ":{"ha":692,"x_min":21,"x_max":669,"o":"m 133 -304 q 68 -294 101 -304 l 68 -204 q 97 -208 82 -207 q 124 -210 113 -210 q 188 -189 163 -210 q 232 -124 214 -168 l 282 0 l 21 678 l 133 678 l 339 121 l 557 678 l 669 678 l 328 -154 q 279 -242 306 -208 q 218 -290 253 -275 q 133 -304 183 -304 m 475 804 l 344 921 l 215 804 l 133 804 l 292 981 l 400 981 l 558 804 l 475 804 z "},"ÿ":{"ha":692,"x_min":21,"x_max":669,"o":"m 133 -304 q 68 -294 101 -304 l 68 -204 q 97 -208 82 -207 q 124 -210 113 -210 q 188 -189 163 -210 q 232 -124 214 -168 l 282 0 l 21 678 l 133 678 l 339 121 l 557 678 l 669 678 l 328 -154 q 279 -242 306 -208 q 218 -290 253 -275 q 133 -304 183 -304 m 224 846 q 172 867 193 846 q 150 918 150 889 q 172 969 150 947 q 224 990 193 990 q 276 969 254 990 q 297 918 297 947 q 276 867 297 889 q 224 846 254 846 m 468 846 q 416 867 438 846 q 394 918 394 889 q 416 969 394 947 q 468 990 438 990 q 520 969 499 990 q 542 918 542 947 q 520 867 542 889 q 468 846 499 846 z "},"ỳ":{"ha":692,"x_min":21,"x_max":669,"o":"m 133 -304 q 68 -294 101 -304 l 68 -204 q 97 -208 82 -207 q 124 -210 113 -210 q 188 -189 163 -210 q 232 -124 214 -168 l 282 0 l 21 678 l 133 678 l 339 121 l 557 678 l 669 678 l 328 -154 q 279 -242 306 -208 q 218 -290 253 -275 q 133 -304 183 -304 m 338 811 l 138 981 l 281 981 l 436 811 l 338 811 z "},"z":{"ha":638,"x_min":57,"x_max":576,"o":"m 57 0 l 57 81 l 447 586 l 61 585 l 61 678 l 571 678 l 571 599 l 179 90 l 576 92 l 576 0 l 57 0 z "},"ź":{"ha":638,"x_min":57,"x_max":576,"o":"m 57 0 l 57 81 l 447 586 l 61 585 l 61 678 l 571 678 l 571 599 l 179 90 l 576 92 l 576 0 l 57 0 m 228 811 l 383 981 l 521 981 l 321 811 l 228 811 z "},"ž":{"ha":638,"x_min":57,"x_max":576,"o":"m 57 0 l 57 81 l 447 586 l 61 585 l 61 678 l 571 678 l 571 599 l 179 90 l 576 92 l 576 0 l 57 0 m 189 986 l 317 871 l 444 986 l 529 986 l 371 810 l 263 810 l 104 986 l 189 986 z "},"ż":{"ha":638,"x_min":57,"x_max":576,"o":"m 57 0 l 57 81 l 447 586 l 61 585 l 61 678 l 571 678 l 571 599 l 179 90 l 576 92 l 576 0 l 57 0 m 317 846 q 265 867 286 846 q 243 918 243 889 q 265 969 243 947 q 317 990 286 990 q 369 969 347 990 q 390 918 390 947 q 369 867 390 889 q 317 846 347 846 z "},"ﬁ":{"ha":822,"x_min":39,"x_max":742,"o":"m 190 0 l 190 594 l 39 594 l 39 678 l 190 678 l 190 819 q 243 974 190 919 q 393 1028 296 1028 q 444 1025 421 1028 q 485 1015 467 1022 l 485 924 q 444 933 463 931 q 403 936 426 936 q 318 908 344 936 q 292 818 292 879 l 292 678 l 485 678 l 485 594 l 292 594 l 292 0 l 190 0 m 617 0 l 617 678 l 718 678 l 718 0 l 617 0 m 668 846 q 616 867 638 846 q 594 918 594 889 q 616 969 594 947 q 668 990 638 990 q 720 969 699 990 q 742 918 742 947 q 720 867 742 889 q 668 846 699 846 z "},"ﬂ":{"ha":824,"x_min":39,"x_max":719,"o":"m 190 0 l 190 594 l 39 594 l 39 678 l 190 678 l 190 819 q 243 974 190 919 q 393 1028 296 1028 q 444 1025 421 1028 q 485 1015 467 1022 l 485 924 q 444 933 463 931 q 403 936 426 936 q 318 908 344 936 q 292 818 292 879 l 292 678 l 485 678 l 485 594 l 292 594 l 292 0 l 190 0 m 618 0 l 618 1003 l 719 1024 l 719 0 l 618 0 z "},"ª":{"ha":567,"x_min":46,"x_max":492,"o":"m 240 443 q 100 488 154 443 q 46 601 46 532 q 103 718 46 675 q 258 761 161 761 q 407 725 338 761 l 407 793 q 272 914 407 914 q 196 903 235 914 q 108 869 157 893 l 76 935 q 185 975 135 963 q 282 988 235 988 q 438 940 383 988 q 492 803 492 892 l 492 453 l 407 453 l 407 508 q 240 443 336 443 m 257 510 q 339 524 301 510 q 407 564 376 538 l 407 663 q 341 691 376 682 q 261 700 306 700 q 165 674 201 700 q 129 604 129 649 q 165 535 129 561 q 257 510 200 510 z "},"º":{"ha":644,"x_min":53,"x_max":592,"o":"m 322 440 q 186 476 247 440 q 89 575 125 513 q 53 714 53 638 q 89 853 53 792 q 186 951 125 915 q 322 988 247 988 q 458 951 397 988 q 556 853 519 915 q 592 714 592 792 q 556 575 592 638 q 458 476 519 513 q 322 440 397 440 m 322 517 q 415 543 374 517 q 481 614 457 569 q 506 714 506 658 q 481 814 506 769 q 415 885 457 858 q 322 911 374 911 q 229 885 271 911 q 163 814 188 858 q 139 714 139 769 q 163 614 139 658 q 229 543 188 569 q 322 517 271 517 z "}," ":{"ha":324,"x_min":0,"x_max":0,"o":""}," ":{"ha":324,"x_min":0,"x_max":0,"o":""}," ":{"ha":701,"x_min":0,"x_max":0,"o":""}," ":{"ha":1361,"x_min":0,"x_max":0,"o":""}," ":{"ha":275,"x_min":0,"x_max":0,"o":""}," ":{"ha":174,"x_min":0,"x_max":0,"o":""},"​":{"ha":0,"x_min":0,"x_max":0,"o":""},"﻿":{"ha":0,"x_min":0,"x_max":0,"o":""},"\r":{"ha":324,"x_min":0,"x_max":0,"o":""},".":{"ha":347,"x_min":100,"x_max":247,"o":"m 174 -11 q 122 11 143 -11 q 100 64 100 33 q 122 117 100 96 q 174 139 143 139 q 226 117 204 139 q 247 64 247 96 q 226 11 247 33 q 174 -11 204 -11 z "},",":{"ha":347,"x_min":69,"x_max":261,"o":"m 69 -218 l 153 103 l 261 103 l 149 -218 l 69 -218 z "},":":{"ha":347,"x_min":100,"x_max":247,"o":"m 174 -11 q 122 11 143 -11 q 100 64 100 33 q 122 117 100 96 q 174 139 143 139 q 226 117 204 139 q 247 64 247 96 q 226 11 247 33 q 174 -11 204 -11 m 174 540 q 122 563 143 540 q 100 615 100 585 q 122 669 100 647 q 174 690 143 690 q 226 669 204 690 q 247 615 247 647 q 226 563 247 585 q 174 540 204 540 z "},";":{"ha":347,"x_min":60,"x_max":258,"o":"m 185 540 q 133 563 154 540 q 111 615 111 585 q 133 669 111 647 q 185 690 154 690 q 237 669 215 690 q 258 615 258 647 q 237 563 258 585 q 185 540 215 540 m 60 -218 l 143 103 l 251 103 l 139 -218 l 60 -218 z "},"…":{"ha":957,"x_min":100,"x_max":857,"o":"m 174 -11 q 122 11 143 -11 q 100 64 100 33 q 122 117 100 96 q 174 139 143 139 q 226 117 204 139 q 247 64 247 96 q 226 11 247 33 q 174 -11 204 -11 m 479 -11 q 427 11 449 -11 q 406 64 406 33 q 427 117 406 96 q 479 139 449 139 q 531 117 510 139 q 553 64 553 96 q 531 11 553 33 q 479 -11 510 -11 m 783 -11 q 731 11 753 -11 q 710 64 710 33 q 731 117 710 96 q 783 139 753 139 q 835 117 814 139 q 857 64 857 96 q 835 11 857 33 q 783 -11 814 -11 z "},"!":{"ha":308,"x_min":81,"x_max":228,"o":"m 114 285 l 101 1010 l 206 1010 l 193 285 l 114 285 m 154 -11 q 102 10 124 -11 q 81 63 81 32 q 102 115 81 94 q 154 136 124 136 q 206 115 185 136 q 228 63 228 94 q 206 10 228 32 q 154 -11 185 -11 z "},"¡":{"ha":308,"x_min":81,"x_max":228,"o":"m 194 394 l 207 -331 l 103 -331 l 115 394 l 194 394 m 154 690 q 206 669 185 690 q 228 617 228 649 q 206 565 228 586 q 154 543 185 543 q 102 565 124 543 q 81 617 81 586 q 102 669 81 649 q 154 690 124 690 z "},"?":{"ha":711,"x_min":47,"x_max":638,"o":"m 268 288 q 274 389 265 346 q 308 467 283 432 q 376 535 333 503 l 435 578 q 515 658 492 622 q 539 742 539 694 q 514 818 539 785 q 446 872 489 851 q 349 892 403 892 q 226 860 283 892 q 125 767 169 828 l 47 819 q 183 941 104 899 q 353 983 261 983 q 499 952 435 983 q 600 867 563 921 q 638 743 638 813 q 623 658 638 696 q 575 583 608 619 q 482 504 542 547 l 438 471 q 371 393 390 436 q 356 288 351 350 l 268 288 m 314 -11 q 262 10 283 -11 q 240 63 240 32 q 262 115 240 94 q 314 136 283 136 q 365 115 344 136 q 386 63 386 94 q 365 10 386 32 q 314 -11 344 -11 z "},"¿":{"ha":711,"x_min":74,"x_max":664,"o":"m 443 392 q 438 291 447 335 q 403 212 428 247 q 335 144 378 176 l 276 101 q 196 22 219 58 q 172 -62 172 -15 q 197 -138 172 -104 q 266 -192 222 -172 q 363 -212 310 -212 q 485 -181 428 -212 q 586 -87 542 -149 l 664 -140 q 529 -262 608 -219 q 358 -304 450 -304 q 213 -273 278 -304 q 111 -187 149 -242 q 74 -64 74 -132 q 88 22 74 -15 q 136 97 103 60 q 229 175 169 133 l 274 208 q 341 287 322 244 q 356 392 360 329 l 443 392 m 397 690 q 450 669 429 690 q 471 617 471 647 q 450 565 471 586 q 397 543 429 543 q 346 565 367 543 q 325 617 325 586 q 346 669 325 647 q 397 690 367 690 z "},"·":{"ha":347,"x_min":104,"x_max":251,"o":"m 178 318 q 126 340 147 318 q 104 393 104 363 q 126 447 104 425 q 178 468 147 468 q 230 447 208 468 q 251 393 251 425 q 230 340 251 363 q 178 318 208 318 z "},"•":{"ha":475,"x_min":99,"x_max":376,"o":"m 238 350 q 140 390 182 350 q 99 490 99 431 q 140 590 99 550 q 238 631 182 631 q 335 590 294 631 q 376 490 376 550 q 335 390 376 431 q 238 350 294 350 z "},"*":{"ha":632,"x_min":86,"x_max":546,"o":"m 279 474 l 282 665 l 126 564 l 86 626 l 250 728 l 92 828 l 131 889 l 281 790 l 279 972 l 351 972 l 350 792 l 499 889 l 540 828 l 381 728 l 546 626 l 504 564 l 349 665 l 351 474 l 279 474 z "},"#":{"ha":958,"x_min":61,"x_max":897,"o":"m 92 0 l 196 304 l 61 304 l 61 385 l 224 385 l 293 588 l 128 588 l 128 668 l 321 668 l 425 972 l 517 972 l 413 668 l 672 668 l 776 972 l 868 972 l 764 668 l 897 668 l 897 588 l 736 588 l 667 385 l 831 385 l 831 304 l 639 304 l 535 0 l 443 0 l 547 304 l 288 304 l 183 0 l 92 0 m 315 385 l 575 385 l 644 588 l 385 588 l 315 385 z "},"/":{"ha":647,"x_min":-67,"x_max":589,"o":"m -67 -290 l 488 972 l 589 972 l 33 -290 l -67 -290 z "},"\\":{"ha":654,"x_min":60,"x_max":721,"o":"m 615 -290 l 60 972 l 165 972 l 721 -290 l 615 -290 z "},"-":{"ha":632,"x_min":85,"x_max":547,"o":"m 85 347 l 85 435 l 547 435 l 547 347 l 85 347 z "},"–":{"ha":764,"x_min":85,"x_max":679,"o":"m 85 347 l 85 435 l 679 435 l 679 347 l 85 347 z "},"—":{"ha":961,"x_min":85,"x_max":876,"o":"m 85 347 l 85 435 l 876 435 l 876 347 l 85 347 z "},"―":{"ha":1292,"x_min":85,"x_max":1207,"o":"m 85 347 l 85 435 l 1207 435 l 1207 347 l 85 347 z "},"_":{"ha":635,"x_min":-1,"x_max":636,"o":"m -1 -190 l -1 -111 l 636 -111 l 636 -190 l -1 -190 z "},"(":{"ha":557,"x_min":104,"x_max":486,"o":"m 433 -304 q 254 -141 328 -237 q 142 78 181 -44 q 104 342 104 200 q 142 607 104 485 q 254 826 181 729 q 433 989 328 922 l 486 918 q 276 683 350 833 q 201 342 201 533 q 276 0 201 150 q 486 -235 350 -150 l 433 -304 z "},")":{"ha":557,"x_min":71,"x_max":453,"o":"m 124 988 q 303 825 231 922 q 415 606 376 728 q 453 342 453 485 q 415 76 453 199 q 303 -142 376 -46 q 124 -306 231 -239 l 71 -235 q 281 0 207 -150 q 356 342 356 150 q 281 683 356 533 q 71 918 207 833 l 124 988 z "},"{":{"ha":547,"x_min":58,"x_max":475,"o":"m 368 -304 q 244 -268 292 -304 q 184 -169 196 -232 q 203 -28 172 -106 l 258 113 q 261 245 289 192 q 161 299 233 299 l 58 299 l 58 383 l 161 383 q 262 437 233 383 q 258 569 290 490 l 203 711 q 184 853 172 790 q 244 951 196 915 q 368 988 292 988 q 421 983 396 988 q 475 967 446 978 l 456 889 q 414 901 433 897 q 374 904 394 904 q 306 882 331 904 q 276 822 281 860 q 289 735 271 783 l 353 564 q 364 468 372 514 q 325 389 356 422 q 246 342 294 356 q 326 294 296 328 q 363 215 356 260 q 353 118 371 169 l 289 -51 q 276 -138 271 -100 q 306 -198 281 -176 q 374 -221 331 -219 q 414 -217 394 -221 q 456 -206 433 -214 l 475 -283 q 421 -299 446 -294 q 368 -304 396 -304 z "},"}":{"ha":547,"x_min":72,"x_max":489,"o":"m 179 988 q 304 951 257 988 q 363 853 351 915 q 344 711 375 790 l 289 571 q 286 438 258 492 q 386 385 314 385 l 489 385 l 489 300 l 386 300 q 286 247 314 300 q 289 114 258 193 l 344 -28 q 363 -169 375 -106 q 304 -268 351 -232 q 179 -304 257 -304 q 127 -299 153 -304 q 72 -283 101 -294 l 92 -206 q 134 -217 115 -214 q 174 -221 153 -221 q 242 -198 217 -219 q 272 -138 267 -176 q 258 -51 276 -100 l 194 119 q 184 216 176 171 q 222 295 192 261 q 301 342 253 329 q 222 390 253 357 q 184 469 192 424 q 194 565 176 515 l 258 735 q 272 822 276 785 q 242 882 267 860 q 174 904 217 904 q 134 901 153 904 q 92 889 115 897 l 72 967 q 127 983 101 978 q 179 988 153 988 z "},"[":{"ha":501,"x_min":96,"x_max":431,"o":"m 96 -299 l 96 972 l 431 972 l 431 889 l 193 889 l 193 -215 l 431 -215 l 431 -299 l 96 -299 z "},"]":{"ha":501,"x_min":71,"x_max":406,"o":"m 406 972 l 406 -299 l 71 -299 l 71 -215 l 308 -215 l 308 889 l 71 889 l 71 972 l 406 972 z "},"‚":{"ha":347,"x_min":69,"x_max":261,"o":"m 69 -218 l 153 103 l 261 103 l 149 -218 l 69 -218 z "},"„":{"ha":574,"x_min":69,"x_max":488,"o":"m 296 -218 l 379 103 l 488 103 l 375 -218 l 296 -218 m 69 -218 l 153 103 l 261 103 l 149 -218 l 69 -218 z "},"“":{"ha":569,"x_min":86,"x_max":500,"o":"m 278 1042 l 194 721 l 86 721 l 199 1042 l 278 1042 m 500 1042 l 417 721 l 308 721 l 421 1042 l 500 1042 z "},"”":{"ha":569,"x_min":69,"x_max":483,"o":"m 292 721 l 375 1042 l 483 1042 l 371 721 l 292 721 m 69 721 l 153 1042 l 261 1042 l 149 721 l 69 721 z "},"‘":{"ha":347,"x_min":86,"x_max":278,"o":"m 278 1042 l 194 721 l 86 721 l 199 1042 l 278 1042 z "},"’":{"ha":347,"x_min":69,"x_max":261,"o":"m 69 721 l 153 1042 l 261 1042 l 149 721 l 69 721 z "},"«":{"ha":868,"x_min":61,"x_max":793,"o":"m 371 0 l 61 340 l 371 678 l 478 678 l 176 343 l 482 0 l 371 0 m 682 0 l 372 340 l 682 678 l 789 678 l 488 343 l 793 0 l 682 0 z "},"»":{"ha":867,"x_min":75,"x_max":806,"o":"m 496 678 l 806 338 l 496 0 l 389 0 l 690 335 l 385 678 l 496 678 m 186 678 l 496 338 l 186 0 l 79 0 l 381 335 l 75 678 l 186 678 z "},"‹":{"ha":557,"x_min":61,"x_max":482,"o":"m 371 0 l 61 340 l 371 678 l 478 678 l 176 343 l 482 0 l 371 0 z "},"›":{"ha":557,"x_min":75,"x_max":496,"o":"m 186 678 l 496 338 l 186 0 l 79 0 l 381 335 l 75 678 l 186 678 z "},"\"":{"ha":494,"x_min":97,"x_max":397,"o":"m 113 736 l 97 1042 l 199 1042 l 185 736 l 113 736 m 311 736 l 296 1042 l 397 1042 l 383 736 l 311 736 z "},"'":{"ha":297,"x_min":97,"x_max":199,"o":"m 113 736 l 97 1042 l 199 1042 l 185 736 l 113 736 z "},"@":{"ha":1065,"x_min":78,"x_max":988,"o":"m 553 -200 q 365 -163 451 -200 q 213 -60 278 -126 q 113 94 149 6 q 78 288 78 183 q 113 491 78 397 q 212 654 149 585 q 361 762 275 724 q 547 800 447 800 q 722 768 642 800 q 861 678 801 736 q 954 543 921 621 q 988 374 988 465 q 957 222 988 289 q 874 115 926 154 q 754 76 821 76 q 631 133 665 76 q 490 71 564 71 q 393 99 436 71 q 325 174 350 126 q 300 281 300 221 q 331 404 300 349 q 413 493 361 460 q 525 526 464 526 q 598 513 564 526 q 657 474 632 499 l 664 508 l 740 508 l 689 242 q 699 165 679 192 q 763 138 718 138 q 845 168 808 138 q 903 252 882 199 q 924 371 924 306 q 874 560 924 476 q 739 691 825 643 q 544 739 653 739 q 387 705 460 739 q 259 609 314 671 q 174 466 204 547 q 143 290 143 385 q 197 70 143 167 q 344 -82 250 -26 q 557 -137 438 -137 q 674 -123 618 -137 q 781 -81 731 -108 l 804 -137 q 685 -184 749 -168 q 553 -200 621 -200 m 507 136 q 613 185 567 136 q 612 215 611 200 q 615 249 613 231 l 643 396 q 593 443 625 426 q 524 460 561 460 q 449 436 483 460 q 395 373 415 413 q 375 286 375 333 q 412 178 375 219 q 507 136 449 136 z "},"&":{"ha":929,"x_min":47,"x_max":908,"o":"m 368 -15 q 200 19 272 -15 q 88 116 128 54 q 47 261 47 178 q 94 411 47 347 q 263 540 142 475 q 194 652 214 601 q 174 758 174 703 q 204 876 174 825 q 288 958 235 928 q 408 988 342 988 q 522 962 472 988 q 599 891 571 936 q 628 786 628 846 q 590 664 628 718 q 472 563 553 610 l 403 521 q 528 390 460 457 q 667 258 596 324 q 724 381 701 314 q 761 519 747 447 l 856 504 q 808 338 838 415 q 736 196 779 261 q 825 122 781 157 q 908 56 869 86 l 846 -18 q 765 47 807 13 q 679 117 722 81 q 368 -15 556 -15 m 349 585 l 428 631 q 505 699 479 661 q 531 783 531 736 q 494 870 531 836 q 406 904 458 904 q 309 865 347 904 q 271 760 271 825 q 288 677 271 717 q 349 585 306 638 m 372 72 q 503 99 442 72 q 611 178 564 126 q 454 327 531 251 q 317 474 378 403 q 215 408 253 439 q 160 342 176 376 q 144 264 144 308 q 208 124 144 176 q 372 72 271 72 z "},"¶":{"ha":903,"x_min":71,"x_max":781,"o":"m 439 0 l 439 401 l 364 401 q 211 438 278 401 q 108 538 144 474 q 71 686 71 603 q 108 836 71 772 q 210 936 144 900 q 363 972 276 972 l 781 972 l 781 0 l 689 0 l 689 401 l 532 401 l 532 0 l 439 0 m 532 489 l 689 489 l 689 885 l 532 885 l 532 489 m 364 489 l 439 489 l 439 885 l 364 885 q 221 831 275 885 q 167 688 167 776 q 221 543 167 597 q 364 489 275 489 z "},"§":{"ha":789,"x_min":97,"x_max":692,"o":"m 390 -69 q 153 -3 271 -69 l 193 71 q 298 24 249 40 q 390 7 347 7 q 490 36 454 7 q 526 117 526 65 q 503 184 526 157 q 426 229 479 211 l 282 279 q 139 359 181 314 q 97 479 97 404 q 135 590 97 544 q 242 653 174 635 q 169 797 169 707 q 233 935 169 883 q 399 988 296 988 q 516 969 456 988 q 636 919 576 951 l 596 846 q 490 894 540 878 q 399 911 440 911 q 298 882 335 911 q 261 801 261 853 q 286 734 261 761 q 363 689 311 707 l 506 639 q 650 559 608 604 q 692 438 692 514 q 653 328 692 374 q 546 264 614 283 q 618 119 618 210 q 556 -17 618 35 q 390 -69 493 -69 m 467 306 q 567 347 529 313 q 604 431 604 381 q 575 504 604 475 q 485 556 546 533 l 332 607 q 326 609 329 608 q 321 611 324 610 q 222 572 258 604 q 185 486 185 539 q 213 414 185 443 q 304 361 242 385 l 456 310 q 461 308 458 308 q 467 306 464 307 z "},"©":{"ha":1107,"x_min":78,"x_max":1029,"o":"m 567 231 q 446 265 500 231 q 360 357 392 299 q 328 486 328 415 q 360 616 328 558 q 446 708 392 674 q 567 743 500 743 q 669 722 619 743 q 753 663 718 701 l 704 607 q 642 654 678 638 q 569 671 606 671 q 486 647 524 671 q 426 581 449 622 q 404 486 404 539 q 426 393 404 435 q 486 327 449 351 q 569 303 524 303 q 640 318 607 303 q 704 364 674 333 l 751 310 q 667 251 715 272 q 567 231 619 231 m 553 -15 q 367 23 453 -15 q 215 130 281 61 q 114 290 150 199 q 78 486 78 381 q 114 683 78 592 q 215 842 150 774 q 367 949 281 911 q 553 988 453 988 q 740 949 653 988 q 892 843 826 911 q 993 684 957 775 q 1029 486 1029 593 q 993 289 1029 381 q 892 129 957 197 q 740 23 826 61 q 553 -15 653 -15 m 553 44 q 715 78 640 44 q 847 173 790 113 q 935 314 903 233 q 967 486 967 394 q 935 658 967 578 q 847 799 903 739 q 715 894 790 860 q 553 928 640 928 q 393 894 468 928 q 262 799 318 860 q 174 658 206 739 q 142 486 142 578 q 174 314 142 394 q 262 173 206 233 q 393 78 318 113 q 553 44 468 44 z "},"®":{"ha":689,"x_min":79,"x_max":608,"o":"m 343 433 q 209 470 269 433 q 114 571 149 507 q 79 713 79 635 q 114 855 79 792 q 209 955 149 918 q 343 992 269 992 q 478 955 418 992 q 573 855 538 918 q 608 713 608 792 q 573 571 608 635 q 478 470 538 507 q 343 433 418 433 m 343 481 q 456 510 407 481 q 532 593 504 540 q 560 713 560 646 q 532 832 560 779 q 456 915 504 885 q 343 944 407 944 q 233 915 282 944 q 157 832 185 885 q 129 713 129 779 q 157 594 129 647 q 233 511 185 542 q 343 481 282 481 m 256 583 l 256 844 l 356 844 q 416 823 394 844 q 438 764 438 801 q 392 692 438 714 l 454 583 l 404 583 l 349 682 l 301 682 l 301 583 l 256 583 m 349 806 l 301 806 l 301 718 l 349 718 q 393 763 393 718 q 349 806 393 806 z "},"™":{"ha":933,"x_min":65,"x_max":826,"o":"m 449 585 l 449 972 l 522 972 l 638 721 l 753 972 l 826 972 l 826 585 l 769 585 l 772 896 l 638 611 l 503 893 l 504 585 l 449 585 m 194 585 l 194 919 l 65 919 l 65 972 l 383 972 l 383 919 l 253 919 l 253 585 l 194 585 z "},"°":{"ha":561,"x_min":82,"x_max":479,"o":"m 281 588 q 181 615 226 588 q 109 688 136 642 q 82 788 82 733 q 109 888 82 843 q 181 960 136 933 q 281 988 226 988 q 381 960 336 988 q 452 888 425 933 q 479 788 479 843 q 452 688 479 733 q 381 615 425 642 q 281 588 336 588 m 281 656 q 372 694 333 656 q 410 788 410 733 q 372 881 410 842 q 281 919 333 919 q 190 881 228 919 q 151 788 151 842 q 190 694 151 733 q 281 656 228 656 z "},"′":{"ha":347,"x_min":69,"x_max":261,"o":"m 69 721 l 153 1042 l 261 1042 l 149 721 l 69 721 z "},"″":{"ha":569,"x_min":69,"x_max":483,"o":"m 292 721 l 375 1042 l 483 1042 l 371 721 l 292 721 m 69 721 l 153 1042 l 261 1042 l 149 721 l 69 721 z "},"|":{"ha":404,"x_min":156,"x_max":249,"o":"m 156 -290 l 156 972 l 249 972 l 249 -290 l 156 -290 z "},"¦":{"ha":406,"x_min":156,"x_max":250,"o":"m 156 399 l 156 972 l 250 972 l 250 399 l 156 399 m 156 -290 l 156 283 l 250 283 l 250 -290 l 156 -290 z "},"†":{"ha":600,"x_min":69,"x_max":531,"o":"m 256 0 l 256 615 l 69 615 l 69 694 l 256 694 l 256 972 l 344 972 l 344 694 l 531 694 l 531 615 l 344 615 l 344 0 l 256 0 z "},"‡":{"ha":600,"x_min":69,"x_max":531,"o":"m 256 0 l 256 278 l 69 278 l 69 357 l 256 357 l 256 615 l 69 615 l 69 694 l 256 694 l 256 972 l 344 972 l 344 694 l 531 694 l 531 615 l 344 615 l 344 357 l 531 357 l 531 278 l 344 278 l 344 0 l 256 0 z "},"�":{"ha":714,"x_min":83,"x_max":631,"o":"m 83 -139 l 83 1042 l 631 1042 l 631 -139 l 83 -139 z "},"¢":{"ha":707,"x_min":74,"x_max":669,"o":"m 367 -164 l 367 -8 q 217 51 283 3 q 112 174 150 99 q 74 339 74 249 q 112 504 74 429 q 217 628 150 579 q 367 686 283 676 l 367 846 l 436 846 l 436 688 q 563 656 503 683 q 669 583 624 629 l 604 513 q 528 570 572 549 q 436 596 483 592 l 436 82 q 528 108 483 86 q 604 165 572 131 l 669 94 q 563 22 624 49 q 436 -10 503 -6 l 436 -164 l 367 -164 m 175 339 q 200 222 175 275 q 268 133 225 168 q 367 85 311 97 l 367 593 q 268 546 311 582 q 200 456 225 510 q 175 339 175 403 z "},"¤":{"ha":947,"x_min":64,"x_max":883,"o":"m 118 89 l 64 144 l 193 275 q 138 379 158 321 q 118 501 118 438 q 138 624 118 567 q 194 726 158 681 l 64 858 l 119 915 l 250 783 q 353 842 296 821 q 474 863 410 863 q 594 842 538 863 q 697 783 651 821 l 828 915 l 882 860 l 750 728 q 807 624 786 682 q 828 501 828 567 q 808 380 828 438 q 753 276 789 322 l 883 144 l 828 88 l 697 218 q 594 160 651 181 q 474 139 538 139 q 351 160 410 139 q 247 219 293 182 l 118 89 m 474 232 q 602 268 544 232 q 694 365 660 304 q 728 501 728 426 q 694 638 728 578 q 602 735 660 699 q 474 771 544 771 q 345 735 403 771 q 253 638 288 699 q 219 501 219 578 q 253 365 219 426 q 345 268 288 304 q 474 232 403 232 z "},"$":{"ha":764,"x_min":63,"x_max":700,"o":"m 351 -93 l 351 31 q 199 64 274 36 q 63 140 124 92 l 113 215 q 230 147 169 172 q 351 115 290 122 l 351 458 l 281 478 q 124 565 175 510 q 74 701 74 619 q 149 872 74 807 q 351 943 225 938 l 351 1065 l 418 1065 l 418 940 q 553 905 488 933 q 676 831 619 876 l 625 758 q 418 854 529 838 l 418 533 l 489 513 q 651 426 601 479 q 700 286 700 372 q 665 159 700 215 q 566 69 629 103 q 418 31 503 36 l 418 -93 l 351 -93 m 351 553 l 351 858 q 217 815 267 856 q 168 708 168 774 q 202 622 168 656 q 313 564 236 588 l 351 553 m 418 115 q 553 166 503 122 q 604 278 604 210 q 572 365 604 332 q 456 426 539 397 l 418 439 l 418 115 z "},"€":{"ha":1013,"x_min":61,"x_max":933,"o":"m 610 -15 q 422 31 507 -15 q 278 161 336 78 q 199 356 221 244 l 61 356 l 61 431 l 189 431 q 187 458 188 444 q 186 486 186 472 q 187 515 186 501 q 189 542 188 528 l 61 542 l 61 617 l 199 617 q 278 811 221 728 q 422 941 336 894 q 610 988 507 988 q 790 944 708 988 q 933 814 872 900 l 860 757 q 749 863 813 826 q 607 899 685 899 q 408 822 490 899 q 299 617 326 746 l 672 617 l 647 542 l 288 542 q 285 515 286 528 q 285 486 285 501 q 285 458 285 472 q 288 431 286 444 l 608 431 l 585 356 l 299 356 q 408 150 326 226 q 607 74 490 74 q 749 110 685 74 q 860 215 813 146 l 933 158 q 790 28 872 72 q 610 -15 708 -15 z "},"£":{"ha":856,"x_min":17,"x_max":838,"o":"m 635 -29 q 597 -27 617 -29 q 554 -19 576 -25 l 285 38 q 257 42 271 40 q 231 43 243 43 q 92 -51 140 43 l 17 -1 q 99 94 53 61 q 206 132 146 126 q 247 222 247 161 q 246 241 247 228 q 237 297 244 254 q 213 433 229 340 l 72 433 l 72 513 l 199 513 q 185 599 190 567 q 178 651 181 631 q 176 686 176 671 q 210 847 176 779 q 308 951 244 914 q 461 988 372 988 q 658 925 581 988 q 763 743 735 863 l 671 717 q 598 853 651 807 q 461 900 544 900 q 322 847 369 900 q 275 696 275 794 q 276 665 275 683 q 283 613 278 647 q 299 513 288 578 l 575 513 l 575 433 l 313 433 q 332 312 326 351 q 339 258 338 272 q 340 235 340 243 q 303 124 340 164 l 572 68 q 602 63 588 65 q 631 61 617 61 q 761 144 717 61 l 838 96 q 635 -29 765 -29 z "},"¥":{"ha":897,"x_min":17,"x_max":881,"o":"m 394 0 l 394 186 l 147 186 l 147 261 l 394 261 l 394 365 l 147 365 l 147 440 l 367 440 l 17 972 l 142 972 l 451 490 l 763 972 l 881 972 l 532 440 l 747 440 l 747 365 l 501 365 l 501 261 l 747 261 l 747 186 l 501 186 l 501 0 l 394 0 z "},"∕":{"ha":803,"x_min":44,"x_max":671,"o":"m 44 0 l 590 972 l 671 972 l 124 0 l 44 0 z "},"+":{"ha":833,"x_min":142,"x_max":692,"o":"m 374 201 l 374 453 l 142 453 l 142 536 l 374 536 l 374 788 l 460 788 l 460 536 l 692 536 l 692 453 l 460 453 l 460 201 l 374 201 z "},"−":{"ha":833,"x_min":142,"x_max":692,"o":"m 142 456 l 142 539 l 692 539 l 692 456 l 142 456 z "},"×":{"ha":833,"x_min":158,"x_max":675,"o":"m 210 225 l 158 281 l 363 499 l 158 717 l 211 774 l 415 556 l 619 774 l 674 718 l 468 500 l 675 281 l 619 224 l 414 443 l 210 225 z "},"÷":{"ha":833,"x_min":142,"x_max":692,"o":"m 417 679 q 365 701 386 679 q 343 753 343 722 q 365 805 343 783 q 417 826 386 826 q 469 805 447 826 q 490 753 490 783 q 469 701 490 722 q 417 679 447 679 m 417 168 q 365 190 386 168 q 343 242 343 211 q 365 294 343 272 q 417 315 386 315 q 469 294 447 315 q 490 242 490 272 q 469 190 490 211 q 417 168 447 168 m 142 456 l 142 539 l 692 539 l 692 456 l 142 456 z "},"=":{"ha":833,"x_min":142,"x_max":692,"o":"m 142 340 l 142 424 l 692 424 l 692 340 l 142 340 m 142 567 l 142 650 l 692 650 l 692 567 l 142 567 z "},"≠":{"ha":833,"x_min":142,"x_max":692,"o":"m 154 171 l 271 340 l 142 340 l 142 424 l 328 424 l 426 567 l 142 567 l 142 650 l 483 650 l 599 818 l 679 818 l 564 650 l 692 650 l 692 567 l 507 567 l 408 424 l 692 424 l 692 340 l 351 340 l 235 171 l 154 171 z "},">":{"ha":833,"x_min":193,"x_max":685,"o":"m 246 825 l 685 483 l 244 143 l 193 208 l 556 482 l 193 758 l 246 825 z "},"<":{"ha":833,"x_min":149,"x_max":640,"o":"m 588 143 l 149 485 l 589 825 l 640 760 l 278 486 l 640 210 l 588 143 z "},"±":{"ha":833,"x_min":142,"x_max":692,"o":"m 142 -1 l 142 82 l 692 82 l 692 -1 l 142 -1 m 374 240 l 374 485 l 142 485 l 142 568 l 374 568 l 374 813 l 460 813 l 460 568 l 692 568 l 692 485 l 460 485 l 460 240 l 374 240 z "},"~":{"ha":833,"x_min":88,"x_max":746,"o":"m 167 418 l 88 428 q 143 578 99 525 q 256 631 188 631 q 310 622 282 631 q 378 590 339 613 l 482 535 q 534 511 515 518 q 571 504 553 504 q 668 631 653 504 l 746 621 q 692 471 736 524 q 579 418 647 418 q 523 427 553 418 q 456 457 493 436 l 351 513 q 299 538 317 532 q 263 544 281 544 q 167 418 183 544 z "},"¬":{"ha":810,"x_min":93,"x_max":728,"o":"m 642 0 l 642 353 l 93 353 l 93 436 l 728 436 l 728 0 l 642 0 z "},"^":{"ha":833,"x_min":126,"x_max":707,"o":"m 126 486 l 372 972 l 461 972 l 707 486 l 615 486 l 417 881 l 218 486 l 126 486 z "},"µ":{"ha":771,"x_min":104,"x_max":667,"o":"m 104 -290 l 104 678 l 206 678 l 206 268 q 255 126 206 179 q 388 74 304 74 q 490 100 444 74 q 565 178 535 126 l 565 678 l 667 678 l 667 0 l 565 0 l 565 110 q 472 19 526 50 q 350 -11 418 -11 q 206 36 265 -11 l 206 -290 l 104 -290 z "},"%":{"ha":1026,"x_min":40,"x_max":988,"o":"m 243 479 q 97 549 153 479 q 40 729 40 618 q 97 910 40 840 q 243 979 153 979 q 390 910 333 979 q 446 729 446 840 q 390 549 446 618 q 243 479 333 479 m 243 542 q 340 592 304 542 q 376 729 376 643 q 340 866 376 815 q 243 917 304 917 q 147 866 183 917 q 110 729 110 815 q 147 592 110 643 q 243 542 183 542 m 200 0 l 746 972 l 826 972 l 279 0 l 200 0 m 785 -7 q 638 63 694 -7 q 582 243 582 132 q 638 424 582 354 q 785 493 694 493 q 931 424 875 493 q 988 243 988 354 q 931 63 988 132 q 785 -7 875 -7 m 785 56 q 882 106 846 56 q 918 243 918 157 q 882 380 918 329 q 785 431 846 431 q 688 380 725 431 q 651 243 651 329 q 688 106 651 157 q 785 56 725 56 z "},"‰":{"ha":1506,"x_min":40,"x_max":1465,"o":"m 243 479 q 97 549 153 479 q 40 729 40 618 q 97 910 40 840 q 243 979 153 979 q 390 910 333 979 q 446 729 446 840 q 390 549 446 618 q 243 479 333 479 m 243 542 q 340 592 304 542 q 376 729 376 643 q 340 866 376 815 q 243 917 304 917 q 147 866 183 917 q 110 729 110 815 q 147 592 110 643 q 243 542 183 542 m 200 0 l 746 972 l 826 972 l 279 0 l 200 0 m 785 -7 q 638 63 694 -7 q 582 243 582 132 q 638 424 582 354 q 785 493 694 493 q 931 424 875 493 q 988 243 988 354 q 931 63 988 132 q 785 -7 875 -7 m 785 56 q 882 106 846 56 q 918 243 918 157 q 882 380 918 329 q 785 431 846 431 q 688 380 725 431 q 651 243 651 329 q 688 106 651 157 q 785 56 725 56 m 1263 -7 q 1116 63 1172 -7 q 1060 243 1060 132 q 1116 424 1060 354 q 1263 493 1172 493 q 1409 424 1353 493 q 1465 243 1465 354 q 1409 63 1465 132 q 1263 -7 1353 -7 m 1263 56 q 1360 106 1324 56 q 1396 243 1396 157 q 1360 380 1396 329 q 1263 431 1324 431 q 1166 380 1203 431 q 1129 243 1129 329 q 1166 106 1129 157 q 1263 56 1203 56 z "},"↑":{"ha":794,"x_min":56,"x_max":739,"o":"m 349 0 l 349 846 l 122 547 l 56 600 l 397 1042 l 739 600 l 674 549 l 443 853 l 443 0 l 349 0 z "},"↓":{"ha":794,"x_min":56,"x_max":739,"o":"m 446 972 l 446 126 l 672 425 l 739 372 l 397 -69 l 56 372 l 121 424 l 351 119 l 351 972 l 446 972 z "},"̈":{"ha":0,"x_min":221,"x_max":613,"o":"m 294 846 q 242 867 264 846 q 221 918 221 889 q 242 969 221 947 q 294 990 264 990 q 347 969 325 990 q 368 918 368 947 q 347 867 368 889 q 294 846 325 846 m 539 846 q 487 867 508 846 q 465 918 465 889 q 487 969 465 947 q 539 990 508 990 q 591 969 569 990 q 613 918 613 947 q 591 867 613 889 q 539 846 569 846 z "},"̇":{"ha":0,"x_min":343,"x_max":490,"o":"m 417 846 q 365 867 386 846 q 343 918 343 889 q 365 969 343 947 q 417 990 386 990 q 469 969 447 990 q 490 918 490 947 q 469 867 490 889 q 417 846 447 846 z "},"̀":{"ha":0,"x_min":208,"x_max":507,"o":"m 408 811 l 208 981 l 351 981 l 507 811 l 408 811 z "},"́":{"ha":0,"x_min":328,"x_max":621,"o":"m 328 811 l 483 981 l 621 981 l 421 811 l 328 811 z "},"̋":{"ha":0,"x_min":229,"x_max":767,"o":"m 229 808 l 408 981 l 525 981 l 325 808 l 229 808 m 469 808 l 649 981 l 767 981 l 563 808 l 469 808 z "},"̂":{"ha":0,"x_min":204,"x_max":629,"o":"m 546 804 l 415 921 l 286 804 l 204 804 l 363 981 l 471 981 l 629 804 l 546 804 z "},"̌":{"ha":0,"x_min":204,"x_max":629,"o":"m 289 986 l 417 871 l 544 986 l 629 986 l 471 810 l 363 810 l 204 986 l 289 986 z "},"̆":{"ha":0,"x_min":197,"x_max":636,"o":"m 418 804 q 275 851 333 804 q 197 979 217 897 l 268 996 q 418 868 300 868 q 513 901 475 868 q 567 996 551 935 l 636 979 q 560 851 618 897 q 418 804 501 804 z "},"̊":{"ha":0,"x_min":261,"x_max":572,"o":"m 417 794 q 338 815 374 794 q 282 872 303 836 q 261 949 261 907 q 282 1026 261 992 q 338 1082 303 1061 q 417 1103 374 1103 q 495 1082 460 1103 q 551 1026 531 1061 q 572 949 572 992 q 551 872 572 907 q 495 815 531 836 q 417 794 460 794 m 417 851 q 485 880 457 851 q 514 949 514 908 q 485 1017 514 989 q 417 1046 457 1046 q 348 1017 376 1046 q 319 949 319 989 q 348 880 319 908 q 417 851 376 851 z "},"̃":{"ha":0,"x_min":179,"x_max":654,"o":"m 250 806 l 179 819 q 233 927 199 890 q 318 964 268 964 q 394 943 358 964 q 460 901 429 922 q 519 881 492 881 q 556 900 543 881 q 583 969 569 919 l 654 956 q 602 848 636 885 q 521 811 568 811 q 447 832 482 811 q 381 874 413 853 q 321 894 350 894 q 278 874 294 894 q 250 806 263 854 z "},"̄":{"ha":0,"x_min":228,"x_max":606,"o":"m 228 849 l 228 921 l 606 921 l 606 849 l 228 849 z "},"̒":{"ha":0,"x_min":86,"x_max":278,"o":"m 86 721 l 199 1042 l 278 1042 l 194 721 l 86 721 z "},"̦":{"ha":0,"x_min":304,"x_max":474,"o":"m 304 -381 l 372 -121 l 474 -121 l 378 -381 l 304 -381 z "},"̧":{"ha":0,"x_min":243,"x_max":550,"o":"m 396 -332 q 310 -319 349 -332 q 243 -282 271 -307 l 282 -237 q 392 -278 331 -278 q 458 -258 435 -278 q 482 -206 482 -239 q 456 -156 482 -174 q 383 -137 431 -137 l 343 -137 l 378 0 l 436 0 l 415 -92 q 513 -124 476 -94 q 550 -203 550 -154 q 507 -295 550 -258 q 396 -332 464 -332 z "},"̨":{"ha":0,"x_min":276,"x_max":525,"o":"m 424 -321 q 317 -286 357 -321 q 276 -194 276 -251 q 316 -87 276 -137 q 446 22 356 -37 l 490 0 q 381 -92 415 -49 q 346 -178 346 -135 q 371 -236 346 -215 q 439 -257 396 -257 q 475 -253 457 -257 q 506 -240 493 -249 l 525 -294 q 424 -321 483 -321 z "},"¨":{"ha":833,"x_min":221,"x_max":613,"o":"m 294 846 q 242 867 264 846 q 221 918 221 889 q 242 969 221 947 q 294 990 264 990 q 347 969 325 990 q 368 918 368 947 q 347 867 368 889 q 294 846 325 846 m 539 846 q 487 867 508 846 q 465 918 465 889 q 487 969 465 947 q 539 990 508 990 q 591 969 569 990 q 613 918 613 947 q 591 867 613 889 q 539 846 569 846 z "},"˙":{"ha":833,"x_min":343,"x_max":490,"o":"m 417 846 q 365 867 386 846 q 343 918 343 889 q 365 969 343 947 q 417 990 386 990 q 469 969 447 990 q 490 918 490 947 q 469 867 490 889 q 417 846 447 846 z "},"`":{"ha":833,"x_min":208,"x_max":507,"o":"m 408 811 l 208 981 l 351 981 l 507 811 l 408 811 z "},"´":{"ha":833,"x_min":328,"x_max":621,"o":"m 328 811 l 483 981 l 621 981 l 421 811 l 328 811 z "},"˝":{"ha":833,"x_min":229,"x_max":767,"o":"m 229 808 l 408 981 l 525 981 l 325 808 l 229 808 m 469 808 l 649 981 l 767 981 l 563 808 l 469 808 z "},"ˆ":{"ha":833,"x_min":204,"x_max":629,"o":"m 546 804 l 415 921 l 286 804 l 204 804 l 363 981 l 471 981 l 629 804 l 546 804 z "},"ˇ":{"ha":833,"x_min":204,"x_max":629,"o":"m 289 986 l 417 871 l 544 986 l 629 986 l 471 810 l 363 810 l 204 986 l 289 986 z "},"˘":{"ha":833,"x_min":197,"x_max":636,"o":"m 418 804 q 275 851 333 804 q 197 979 217 897 l 268 996 q 418 868 300 868 q 513 901 475 868 q 567 996 551 935 l 636 979 q 560 851 618 897 q 418 804 501 804 z "},"˚":{"ha":833,"x_min":261,"x_max":572,"o":"m 417 794 q 338 815 374 794 q 282 872 303 836 q 261 949 261 907 q 282 1026 261 992 q 338 1082 303 1061 q 417 1103 374 1103 q 495 1082 460 1103 q 551 1026 531 1061 q 572 949 572 992 q 551 872 572 907 q 495 815 531 836 q 417 794 460 794 m 417 851 q 485 880 457 851 q 514 949 514 908 q 485 1017 514 989 q 417 1046 457 1046 q 348 1017 376 1046 q 319 949 319 989 q 348 880 319 908 q 417 851 376 851 z "},"˜":{"ha":833,"x_min":179,"x_max":654,"o":"m 250 806 l 179 819 q 233 927 199 890 q 318 964 268 964 q 394 943 358 964 q 460 901 429 922 q 519 881 492 881 q 556 900 543 881 q 583 969 569 919 l 654 956 q 602 848 636 885 q 521 811 568 811 q 447 832 482 811 q 381 874 413 853 q 321 894 350 894 q 278 874 294 894 q 250 806 263 854 z "},"¯":{"ha":833,"x_min":228,"x_max":606,"o":"m 228 849 l 228 921 l 606 921 l 606 849 l 228 849 z "},"¸":{"ha":833,"x_min":243,"x_max":550,"o":"m 396 -332 q 310 -319 349 -332 q 243 -282 271 -307 l 282 -237 q 392 -278 331 -278 q 458 -258 435 -278 q 482 -206 482 -239 q 456 -156 482 -174 q 383 -137 431 -137 l 343 -137 l 378 0 l 436 0 l 415 -92 q 513 -124 476 -94 q 550 -203 550 -154 q 507 -295 550 -258 q 396 -332 464 -332 z "},"˛":{"ha":833,"x_min":276,"x_max":525,"o":"m 424 -321 q 317 -286 357 -321 q 276 -194 276 -251 q 316 -87 276 -137 q 446 22 356 -37 l 490 0 q 381 -92 415 -49 q 346 -178 346 -135 q 371 -236 346 -215 q 439 -257 396 -257 q 475 -253 457 -257 q 506 -240 493 -249 l 525 -294 q 424 -321 483 -321 z "},"ʼ":{"ha":347,"x_min":69,"x_max":261,"o":"m 69 721 l 153 1042 l 261 1042 l 149 721 l 69 721 z "},"ʻ":{"ha":347,"x_min":86,"x_max":278,"o":"m 278 1042 l 194 721 l 86 721 l 199 1042 l 278 1042 z "},"⁄":{"ha":803,"x_min":44,"x_max":671,"o":"m 44 0 l 590 972 l 671 972 l 124 0 l 44 0 z "},"½":{"ha":885,"x_min":29,"x_max":854,"o":"m 117 486 l 117 897 l 29 861 l 29 924 l 143 972 l 188 972 l 188 486 l 117 486 m 56 0 l 601 972 l 682 972 l 135 0 l 56 0 m 518 0 l 518 53 l 713 233 q 763 293 749 268 q 778 347 778 318 q 750 407 778 383 q 679 431 722 431 q 616 418 646 431 q 547 371 586 406 l 507 419 q 590 474 547 456 q 681 493 633 493 q 801 453 754 493 q 847 353 847 414 q 828 278 847 311 q 760 200 808 244 l 611 61 l 854 61 l 854 0 l 518 0 z "},"¼":{"ha":838,"x_min":29,"x_max":813,"o":"m 683 0 l 683 122 l 410 122 l 410 179 l 675 486 l 754 486 l 754 181 l 813 181 l 813 122 l 754 122 l 754 0 l 683 0 m 485 181 l 683 181 l 683 410 l 485 181 m 117 486 l 117 897 l 29 861 l 29 924 l 143 972 l 188 972 l 188 486 l 117 486 m 56 0 l 601 972 l 682 972 l 135 0 l 56 0 z "},"¾":{"ha":968,"x_min":28,"x_max":943,"o":"m 814 0 l 814 122 l 540 122 l 540 179 l 806 486 l 885 486 l 885 181 l 943 181 l 943 122 l 885 122 l 885 0 l 814 0 m 615 181 l 814 181 l 814 410 l 615 181 m 210 479 q 28 542 107 479 l 69 594 q 140 554 106 567 q 210 542 175 542 q 292 564 260 542 q 324 622 324 586 q 293 680 324 658 q 211 701 263 701 l 165 701 l 165 757 l 204 757 q 277 781 249 757 q 306 840 306 804 q 278 895 306 874 q 208 917 250 917 q 143 904 174 917 q 78 864 113 892 l 35 914 q 117 963 72 946 q 210 981 163 981 q 331 943 283 981 q 378 846 378 906 q 351 777 378 807 q 276 735 324 747 q 362 695 329 725 q 394 621 394 665 q 343 519 394 558 q 210 479 292 479 m 186 0 l 732 972 l 813 972 l 265 0 l 186 0 z "},"₀":{"ha":486,"x_min":40,"x_max":446,"o":"m 243 -7 q 97 63 153 -7 q 40 243 40 132 q 97 424 40 354 q 243 493 153 493 q 390 424 333 493 q 446 243 446 354 q 390 63 446 132 q 243 -7 333 -7 m 243 56 q 340 106 304 56 q 376 243 376 157 q 340 380 376 329 q 243 431 304 431 q 147 380 183 431 q 110 243 110 329 q 147 106 110 157 q 243 56 183 56 z "},"₁":{"ha":231,"x_min":29,"x_max":188,"o":"m 117 0 l 117 411 l 29 375 l 29 438 l 143 486 l 188 486 l 188 0 l 117 0 z "},"₂":{"ha":406,"x_min":26,"x_max":374,"o":"m 38 0 l 38 53 l 232 233 q 283 293 268 268 q 297 347 297 318 q 269 407 297 383 q 199 431 242 431 q 135 418 165 431 q 67 371 106 406 l 26 419 q 110 474 67 456 q 200 493 153 493 q 320 453 274 493 q 367 353 367 414 q 347 278 367 311 q 279 200 328 244 l 131 61 l 374 61 l 374 0 l 38 0 z "},"₃":{"ha":435,"x_min":28,"x_max":394,"o":"m 210 -7 q 28 56 107 -7 l 69 108 q 140 68 106 81 q 210 56 175 56 q 292 78 260 56 q 324 136 324 100 q 293 194 324 172 q 211 215 263 215 l 165 215 l 165 271 l 204 271 q 277 294 249 271 q 306 354 306 318 q 278 409 306 388 q 208 431 250 431 q 143 418 174 431 q 78 378 113 406 l 35 428 q 117 477 72 460 q 210 494 163 494 q 331 457 283 494 q 378 360 378 419 q 351 291 378 321 q 276 249 324 261 q 362 209 329 239 q 394 135 394 179 q 343 33 394 72 q 210 -7 292 -7 z "},"₄":{"ha":457,"x_min":31,"x_max":433,"o":"m 304 0 l 304 122 l 31 122 l 31 179 l 296 486 l 375 486 l 375 181 l 433 181 l 433 122 l 375 122 l 375 0 l 304 0 m 106 181 l 304 181 l 304 410 l 106 181 z "},"₅":{"ha":429,"x_min":32,"x_max":392,"o":"m 204 -7 q 32 44 111 -7 l 67 100 q 139 63 107 75 q 203 51 171 51 q 288 80 256 51 q 319 151 319 108 q 289 221 319 194 q 206 247 258 247 q 153 242 179 247 q 100 226 128 238 l 56 240 l 67 486 l 365 486 l 365 428 l 125 428 l 119 282 q 214 301 165 301 q 344 259 296 300 q 392 153 392 218 q 340 37 392 81 q 204 -7 289 -7 z "},"₆":{"ha":454,"x_min":39,"x_max":418,"o":"m 243 -7 q 96 58 153 -7 q 39 229 39 124 q 103 420 39 349 q 274 492 168 492 q 394 461 338 492 l 365 401 q 314 422 340 414 q 267 429 288 429 q 151 376 193 429 q 110 233 110 324 q 173 281 135 264 q 254 299 211 299 q 372 258 326 299 q 418 153 418 218 q 369 39 418 85 q 243 -7 319 -7 m 235 244 q 168 229 200 244 q 113 185 136 214 q 158 90 124 125 q 244 54 193 54 q 318 82 289 54 q 347 151 347 110 q 316 218 347 192 q 235 244 285 244 z "},"₇":{"ha":414,"x_min":24,"x_max":397,"o":"m 79 0 l 318 424 l 24 424 l 24 486 l 397 486 l 397 432 l 163 0 l 79 0 z "},"₈":{"ha":454,"x_min":42,"x_max":413,"o":"m 228 -7 q 94 33 147 -7 q 42 132 42 72 q 71 208 42 175 q 147 253 100 240 q 84 295 108 265 q 60 364 60 325 q 108 458 60 421 q 226 494 156 494 q 313 477 275 494 q 374 431 351 460 q 396 364 396 401 q 371 295 396 325 q 306 253 346 265 q 383 208 354 240 q 413 132 413 175 q 360 33 413 72 q 228 -7 308 -7 m 228 281 q 297 303 268 281 q 325 358 325 325 q 297 415 325 392 q 228 438 268 438 q 157 415 185 438 q 129 358 129 392 q 157 303 129 325 q 228 281 185 281 m 228 51 q 309 76 276 51 q 342 138 342 101 q 309 200 342 175 q 228 225 276 225 q 145 200 178 225 q 113 138 113 175 q 146 76 113 101 q 228 51 179 51 z "},"₉":{"ha":453,"x_min":35,"x_max":414,"o":"m 210 492 q 357 426 300 492 q 414 256 414 361 q 350 65 414 138 q 179 -7 286 -7 q 58 24 115 -7 l 88 83 q 139 63 113 71 q 186 56 165 56 q 301 108 260 56 q 343 251 343 161 q 280 203 318 221 q 199 186 242 186 q 81 227 126 186 q 35 332 35 268 q 84 447 35 401 q 210 492 133 492 m 218 240 q 285 256 253 240 q 340 300 317 271 q 295 395 331 360 q 208 431 260 431 q 135 403 164 431 q 106 333 106 375 q 137 267 106 293 q 218 240 168 240 z "},"⁰":{"ha":486,"x_min":40,"x_max":446,"o":"m 243 479 q 97 549 153 479 q 40 729 40 618 q 97 910 40 840 q 243 979 153 979 q 390 910 333 979 q 446 729 446 840 q 390 549 446 618 q 243 479 333 479 m 243 542 q 340 592 304 542 q 376 729 376 643 q 340 866 376 815 q 243 917 304 917 q 147 866 183 917 q 110 729 110 815 q 147 592 110 643 q 243 542 183 542 z "},"¹":{"ha":229,"x_min":29,"x_max":188,"o":"m 117 486 l 117 897 l 29 861 l 29 924 l 143 972 l 188 972 l 188 486 l 117 486 z "},"²":{"ha":404,"x_min":26,"x_max":374,"o":"m 38 486 l 38 539 l 232 719 q 283 779 268 754 q 297 833 297 804 q 269 893 297 869 q 199 917 242 917 q 135 904 165 917 q 67 857 106 892 l 26 906 q 110 960 67 942 q 200 979 153 979 q 320 940 274 979 q 367 839 367 900 q 347 764 367 797 q 279 686 328 731 l 131 547 l 374 547 l 374 486 l 38 486 z "},"³":{"ha":435,"x_min":28,"x_max":394,"o":"m 210 479 q 28 542 107 479 l 69 594 q 140 554 106 567 q 210 542 175 542 q 292 564 260 542 q 324 622 324 586 q 293 680 324 658 q 211 701 263 701 l 165 701 l 165 757 l 204 757 q 277 781 249 757 q 306 840 306 804 q 278 895 306 874 q 208 917 250 917 q 143 904 174 917 q 78 864 113 892 l 35 914 q 117 963 72 946 q 210 981 163 981 q 331 943 283 981 q 378 846 378 906 q 351 777 378 807 q 276 735 324 747 q 362 695 329 725 q 394 621 394 665 q 343 519 394 558 q 210 479 292 479 z "},"⁴":{"ha":458,"x_min":31,"x_max":433,"o":"m 304 486 l 304 608 l 31 608 l 31 665 l 296 972 l 375 972 l 375 667 l 433 667 l 433 608 l 375 608 l 375 486 l 304 486 m 106 667 l 304 667 l 304 896 l 106 667 z "},"⁵":{"ha":429,"x_min":32,"x_max":392,"o":"m 204 479 q 32 531 111 479 l 67 586 q 139 549 107 561 q 203 538 171 538 q 288 566 256 538 q 319 638 319 594 q 289 707 319 681 q 206 733 258 733 q 153 728 179 733 q 100 713 128 724 l 56 726 l 67 972 l 365 972 l 365 914 l 125 914 l 119 768 q 214 788 165 788 q 344 745 296 786 q 392 639 392 704 q 340 523 392 567 q 204 479 289 479 z "},"⁶":{"ha":453,"x_min":39,"x_max":418,"o":"m 243 479 q 96 544 153 479 q 39 715 39 610 q 103 906 39 835 q 274 978 168 978 q 394 947 338 978 l 365 888 q 314 908 340 900 q 267 915 288 915 q 151 863 193 915 q 110 719 110 810 q 173 767 135 750 q 254 785 211 785 q 372 744 326 785 q 418 639 418 704 q 369 525 418 571 q 243 479 319 479 m 235 731 q 168 715 200 731 q 113 671 136 700 q 158 576 124 611 q 244 540 193 540 q 318 568 289 540 q 347 638 347 596 q 316 704 347 678 q 235 731 285 731 z "},"⁷":{"ha":414,"x_min":24,"x_max":397,"o":"m 79 486 l 318 910 l 24 910 l 24 972 l 397 972 l 397 918 l 163 486 l 79 486 z "},"⁸":{"ha":454,"x_min":42,"x_max":413,"o":"m 228 479 q 94 519 147 479 q 42 618 42 558 q 71 694 42 661 q 147 739 100 726 q 84 781 108 751 q 60 850 60 811 q 108 944 60 907 q 226 981 156 981 q 313 963 275 981 q 374 917 351 946 q 396 850 396 888 q 371 781 396 811 q 306 739 346 751 q 383 694 354 726 q 413 618 413 661 q 360 519 413 558 q 228 479 308 479 m 228 767 q 297 789 268 767 q 325 844 325 811 q 297 901 325 878 q 228 924 268 924 q 157 901 185 924 q 129 844 129 878 q 157 789 129 811 q 228 767 185 767 m 228 538 q 309 563 276 538 q 342 624 342 588 q 309 686 342 661 q 228 711 276 711 q 145 686 178 711 q 113 624 113 661 q 146 563 113 588 q 228 538 179 538 z "},"⁹":{"ha":453,"x_min":35,"x_max":414,"o":"m 210 978 q 357 913 300 978 q 414 742 414 847 q 350 551 414 624 q 179 479 286 479 q 58 510 115 479 l 88 569 q 139 549 113 557 q 186 542 165 542 q 301 594 260 542 q 343 738 343 647 q 280 690 318 707 q 199 672 242 672 q 81 713 126 672 q 35 818 35 754 q 84 933 35 888 q 210 978 133 978 m 218 726 q 285 742 253 726 q 340 786 317 757 q 295 881 331 846 q 208 917 260 917 q 135 889 164 917 q 106 819 106 861 q 137 753 106 779 q 218 726 168 726 z "}}}
